<?xml version="1.0" encoding="UTF-8" standalone="no"?>
<svg
   xmlns:dc="http://purl.org/dc/elements/1.1/"
   xmlns:cc="http://creativecommons.org/ns#"
   xmlns:rdf="http://www.w3.org/1999/02/22-rdf-syntax-ns#"
   xmlns:svg="http://www.w3.org/2000/svg"
   xmlns="http://www.w3.org/2000/svg"
   version="1.1"
   id="svg2"
   viewBox="0 0 16 15.999999"
   height="16"
   width="16">
  <metadata
     id="metadata9">
    <rdf:RDF>
      <cc:Work
         rdf:about="">
        <dc:format>image/svg+xml</dc:format>
        <dc:type
           rdf:resource="http://purl.org/dc/dcmitype/StillImage" />
        <dc:title></dc:title>
      </cc:Work>
    </rdf:RDF>
  </metadata>
  <defs
     id="defs7" />
  <path
     id="path3499"
     d="m 6.3043488,12.351363 0,-3.6486374 -1.2271745,0 -1.2271744,0 0,-1.4227607 0,-1.4227607 1.2270497,0 1.2270498,0 0.00129,-1.1657291 C 6.3063262,3.8494967 6.3078094,3.5094022 6.3107394,3.466897 6.3236904,3.2787121 6.3323914,3.1846497 6.3478164,3.0660688 6.4513484,2.2701677 6.7407657,1.6007819 7.2029206,1.0883205 7.2528086,1.0330015 7.3722223,0.9143949 7.4276764,0.8650827 7.9357262,0.4133028 8.5814685,0.1351866 9.3471918,0.0383621 c 0.246266,-0.03114 0.4416253,-0.040348 0.7858072,-0.03704 0.731669,0.00703 1.526231,0.049875 2.006923,0.1082109 l 0.01817,0.00221 0,1.2734252 0,1.2734252 -0.774557,2.07e-5 c -0.770783,2.08e-5 -0.877933,0.00134 -1.001298,0.012287 C 9.951336,2.7091481 9.6565494,2.84159 9.4798722,3.0763119 9.3514883,3.2468746 9.281403,3.4609708 9.2555389,3.7616053 c -0.01092,0.1269335 -0.012113,0.241258 -0.012158,1.165266 l -4.46e-5,0.9303329 1.4090707,0 1.409071,0 -0.002,0.011251 c -0.0011,0.00619 -0.08295,0.6398096 -0.181907,1.4080485 -0.09896,0.7682389 -0.180884,1.4034184 -0.182046,1.4115102 l -0.0021,0.014712 -1.22505,0 -1.2250507,0 0,3.6486371 0,3.648637 -1.4694938,0 -1.4694938,0 0,-3.648637 z"
     style="fill:#000000" />
</svg>
