<svg xmlns="http://www.w3.org/2000/svg" width="18.598" height="18.599" viewBox="0 0 18.598 18.599">
  <path id="Path_3" data-name="Path 3" d="M9.3,1.653a28.513,28.513,0,0,1,3.72.1,4.792,4.792,0,0,1,1.757.31,3.629,3.629,0,0,1,1.757,1.757,4.792,4.792,0,0,1,.31,1.757c0,.93.1,1.24.1,3.72a28.513,28.513,0,0,1-.1,3.72,4.792,4.792,0,0,1-.31,1.757,3.629,3.629,0,0,1-1.757,1.757,4.792,4.792,0,0,1-1.757.31c-.93,0-1.24.1-3.72.1a28.513,28.513,0,0,1-3.72-.1,4.792,4.792,0,0,1-1.757-.31,3.629,3.629,0,0,1-1.757-1.757,4.792,4.792,0,0,1-.31-1.757c0-.93-.1-1.24-.1-3.72a28.513,28.513,0,0,1,.1-3.72,4.792,4.792,0,0,1,.31-1.757A3.711,3.711,0,0,1,2.79,2.79a1.747,1.747,0,0,1,1.033-.723,4.792,4.792,0,0,1,1.757-.31,28.513,28.513,0,0,1,3.72-.1M9.3,0A30.53,30.53,0,0,0,5.476.1,6.379,6.379,0,0,0,3.2.517,4.045,4.045,0,0,0,1.55,1.55,4.045,4.045,0,0,0,.517,3.2,4.708,4.708,0,0,0,.1,5.476,30.53,30.53,0,0,0,0,9.3a30.53,30.53,0,0,0,.1,3.823A6.379,6.379,0,0,0,.517,15.4,4.045,4.045,0,0,0,1.55,17.049,4.045,4.045,0,0,0,3.2,18.082a6.379,6.379,0,0,0,2.273.413,30.53,30.53,0,0,0,3.823.1,30.53,30.53,0,0,0,3.823-.1,6.379,6.379,0,0,0,2.273-.413A4.335,4.335,0,0,0,18.082,15.4a6.379,6.379,0,0,0,.413-2.273c0-1.033.1-1.343.1-3.823a30.53,30.53,0,0,0-.1-3.823A6.379,6.379,0,0,0,18.082,3.2,4.045,4.045,0,0,0,17.049,1.55,4.045,4.045,0,0,0,15.4.517,6.379,6.379,0,0,0,13.122.1,30.53,30.53,0,0,0,9.3,0m0,4.546A4.676,4.676,0,0,0,4.546,9.3,4.753,4.753,0,1,0,9.3,4.546m0,7.853A3.044,3.044,0,0,1,6.2,9.3,3.044,3.044,0,0,1,9.3,6.2a3.044,3.044,0,0,1,3.1,3.1,3.044,3.044,0,0,1-3.1,3.1m4.96-9.2A1.137,1.137,0,1,0,15.4,4.34,1.147,1.147,0,0,0,14.259,3.2" fill="#fff" fill-rule="evenodd"/>
</svg>
