<?xml version="1.0" encoding="UTF-8" standalone="no"?>
<svg
   xmlns:dc="http://purl.org/dc/elements/1.1/"
   xmlns:cc="http://creativecommons.org/ns#"
   xmlns:rdf="http://www.w3.org/1999/02/22-rdf-syntax-ns#"
   xmlns:svg="http://www.w3.org/2000/svg"
   xmlns="http://www.w3.org/2000/svg"
   width="16"
   height="16"
   viewBox="0 0 16 16"
   id="svg2"
   version="1.1">
  <defs
     id="defs4" />
  <metadata
     id="metadata7">
    <rdf:RDF>
      <cc:Work
         rdf:about="">
        <dc:format>image/svg+xml</dc:format>
        <dc:type
           rdf:resource="http://purl.org/dc/dcmitype/StillImage" />
        <dc:title></dc:title>
      </cc:Work>
    </rdf:RDF>
  </metadata>
  <path
     id="path3417"
     d="M 4.3184685,15.970415 C 3.0783823,15.846986 2.1577765,15.468929 1.4312209,14.784928 0.6968951,14.093728 0.2927636,13.283099 0.0721535,12.059098 0.0076659,11.701153 0,11.271896 0,8.0179501 0,4.6720051 0.0062971,4.3396621 0.0778286,3.9141761 0.2661254,2.7940591 0.6484792,1.9950871 1.3080135,1.3434301 2.011006,0.64880083 2.8338949,0.27200053 4.07964,0.07428603 4.4993555,0.00800003 4.9043115,3.3817805e-8 7.9800224,3.3817805e-8 11.7291,1.1423382e-4 11.962799,0.01257103 12.806446,0.25348593 c 1.738008,0.4966862 2.809586,1.80891587 3.118021,3.81794687 0.06439,0.419315 0.07307,0.874972 0.07523,3.946403 0.0026,3.7954322 -0.0067,3.9755472 -0.253409,4.8261772 -0.485569,1.674744 -1.712331,2.70663 -3.657256,3.076116 -0.285864,0.05486 -0.904093,0.06629 -3.8774081,0.07543 -1.9455252,0.01143 -3.6974493,0 -3.893164,-0.02514 z m 6.5250985,-1.428573 c 1.041008,-0.06171 1.547404,-0.1624 2.043674,-0.407543 0.677864,-0.334629 1.162158,-0.886286 1.381079,-1.572915 0.221322,-0.694058 0.247861,-1.105374 0.268868,-4.1664049 0.0205,-2.987316 -0.008,-3.80526 -0.157769,-4.519889 -0.231161,-1.103202 -0.901807,-1.861603 -1.915644,-2.166517 -0.635607,-0.191086 -1.165341,-0.222743 -4.0836987,-0.243772 -2.926513,-0.02171 -3.7573209,0.01143 -4.4848147,0.154629 -0.7810808,0.157829 -1.4673337,0.580686 -1.831726,1.128572 -0.5596117,0.841258 -0.6794923,1.976346 -0.6388587,6.048578 0.024173,2.4226299 0.04123,2.6923449 0.2187394,3.4581749 0.2343327,1.010858 0.8582655,1.707316 1.8285735,2.04103 0.2499292,0.08571 0.9344539,0.184915 1.6655444,0.240915 0.6576234,0.05028 4.8757088,0.05371 5.7060328,0 z M 7.1735634,12.076926 C 5.574028,11.787554 4.2796465,10.536124 3.91146,8.9228651 3.812237,8.4882371 3.8086473,7.5401211 3.9046028,7.1123501 c 0.2715061,-1.210401 1.1068822,-2.280116 2.2013695,-2.81886 0.6590067,-0.324571 0.9263862,-0.379314 1.8529931,-0.3792 0.8679342,0 1.0875506,0.03657 1.6655386,0.2744 1.035772,0.426972 1.971896,1.483316 2.291225,2.585602 0.360152,1.243316 0.165652,2.541145 -0.535687,3.5744029 -0.367447,0.541486 -0.996806,1.096801 -1.568195,1.383773 -0.715498,0.359544 -1.7840453,0.498973 -2.638285,0.344458 z M 8.8082031,10.508581 C 9.604413,10.232467 10.264774,9.5552091 10.518532,8.7546371 c 0.121214,-0.382629 0.127943,-1.092001 0.01398,-1.473259 -0.289693,-0.969029 -1.114384,-1.724344 -2.0682518,-1.894173 -0.4221382,-0.07543 -0.5884342,-0.07543 -1.0105724,0 -0.8956693,0.159429 -1.7225575,0.871773 -2.026708,1.745945 -0.213849,0.614629 -0.173059,1.407658 0.1026629,1.99623 0.3102569,0.662172 1.0337591,1.2502869 1.7650378,1.4346299 0.3625288,0.09143 1.1760124,0.06171 1.5135298,-0.056 z M 11.864234,4.6040051 c -0.336001,-0.166172 -0.599559,-0.561944 -0.599559,-0.900229 0,-0.244687 0.102012,-0.462516 0.318405,-0.680116 0.407804,-0.410172 0.925163,-0.418972 1.33947,-0.02286 0.211278,0.202057 0.31949,0.440114 0.31949,0.702973 0,0.697371 -0.77045,1.2008 -1.377806,0.900229 z"
     style="fill:#000000" />
</svg>
