<svg xmlns="http://www.w3.org/2000/svg" width="65" height="58.494" viewBox="0 0 65 58.494">
  <g id="Group_313" data-name="Group 313" transform="translate(-525.591 -80.629)">
    <g id="Group_312" data-name="Group 312">
      <path id="Path_416" data-name="Path 416" d="M588.136,83.872h-3.754a2.17,2.17,0,0,1,2.967-.787A2.23,2.23,0,0,1,588.136,83.872Z" fill="#fff"/>
      <path id="Path_417" data-name="Path 417" d="M576.352,116.5a8.659,8.659,0,0,0-.42-9.554l.133-.092,2.588,1.186a.621.621,0,0,1,.082.041,1.074,1.074,0,0,1,.409,1.473l-1.391,2.486,1.381,2.486a.2.2,0,0,1,.041.082,1.073,1.073,0,0,1-.532,1.432l-2.138.982V116.5Z" fill="#2811ca"/>
      <rect id="Rectangle_1518" data-name="Rectangle 1518" width="38.996" height="2.169" transform="translate(538.593 97.959)" fill="#2811ca"/>
      <rect id="Rectangle_1519" data-name="Rectangle 1519" width="38.996" height="2.169" transform="translate(538.593 93.621)" fill="#2811ca"/>
      <path id="Path_418" data-name="Path 418" d="M576.352,116.5a9.179,9.179,0,0,1-.727,1.054V116.5Z" fill="#2811ca"/>
      <path id="Path_419" data-name="Path 419" d="M575.625,117.559a9.179,9.179,0,0,0,.727-1.054h.153v.522l-.45.205-.327,2.823a1.212,1.212,0,0,1-.1.338Z" fill="#2811ca"/>
      <path id="Path_420" data-name="Path 420" d="M574.346,120.976v-2.159a9.271,9.271,0,0,0,1.279-1.258v2.834a1.03,1.03,0,0,1-.337.419,1.06,1.06,0,0,1-.839.184Z" fill="#2811ca"/>
      <path id="Path_421" data-name="Path 421" d="M574.346,118.817V116.5h1.279v1.054A9.271,9.271,0,0,1,574.346,118.817Z" fill="#2811ca"/>
      <path id="Path_422" data-name="Path 422" d="M574.346,120.976V135.43l-4.654-4.654a1.093,1.093,0,0,0-1.535,0L563.5,135.43V120.976l2.69-.532,1.934,2.087a1.085,1.085,0,0,0,1.534.061l.062-.061,1.933-2.087Z" fill="#f8cd16"/>
      <path id="Path_423" data-name="Path 423" d="M570.469,105.57l-1.544-1.678.01-.5a8.655,8.655,0,0,1,7.417,13.114h-2.394l.02-.133a1.1,1.1,0,0,1,.624-.859l2.077-.951-1.115-1.995a1.075,1.075,0,0,1,0-1.054l1.115-2-2.077-.941a1.135,1.135,0,0,1-.624-.859l-.266-2.271-2.23.44A1.064,1.064,0,0,1,570.469,105.57Z" fill="#2811ca"/>
      <path id="Path_424" data-name="Path 424" d="M568.925,108.792a3.248,3.248,0,1,1-3.253,3.253A3.255,3.255,0,0,1,568.925,108.792Z" fill="#f8cd16"/>
      <path id="Path_425" data-name="Path 425" d="M565.856,116.5h6.138a5.423,5.423,0,0,1-6.138,0Z" fill="#2811ca"/>
      <path id="Path_426" data-name="Path 426" d="M538.593,95.79h39V93.621h-39Zm39,2.169h-39v2.168h39ZM560.26,119.625h-26V84.957a2.17,2.17,0,0,1,2.169-2.169H582.53a4.287,4.287,0,0,0-.6,2.169v34.668h-4.338v2.169h4.041a2.156,2.156,0,0,1-1.872,1.084h-3.253v-5.851l2.138-.982a1.073,1.073,0,0,0,.532-1.432.2.2,0,0,0-.041-.082l-1.381-2.486,1.391-2.486a1.074,1.074,0,0,0-.409-1.473.621.621,0,0,0-.082-.041l-2.588-1.186-.337-2.834a1.073,1.073,0,0,0-1.2-.941c-.031,0-.062.01-.082.01l-2.793.552-1.933-2.086a1.127,1.127,0,0,0-1.586-.021c0,.01,0,.01-.01.021l-1.934,2.086-2.792-.552a1.083,1.083,0,0,0-1.269.849.26.26,0,0,0-.01.082l-.338,2.834-2.588,1.186a1.083,1.083,0,0,0-.532,1.432.566.566,0,0,0,.041.082l1.391,2.486-1.391,2.486a1.078,1.078,0,0,0,.409,1.473.565.565,0,0,1,.082.041l2.148.982v5.851H529.919a2.18,2.18,0,0,1-1.872-1.084H560.26Zm6.5-30.331V87.125H549.427v2.169Zm-13,24.92v-2.169H539.678v2.169Z" fill="#fff"/>
      <rect id="Rectangle_1520" data-name="Rectangle 1520" width="17.329" height="2.169" transform="translate(549.427 87.125)" fill="#2811ca"/>
      <path id="Path_427" data-name="Path 427" d="M566.193,120.444l-2.69.532v-2.159a8.674,8.674,0,0,0,10.843,0v2.159l-2.69-.532-1.933,2.087-.062.061a1.085,1.085,0,0,1-1.534-.061Z" fill="#2811ca"/>
      <path id="Path_428" data-name="Path 428" d="M563.892,116.5h1.964a5.423,5.423,0,0,0,6.138,0h1.964l-.246,2.128-2.23-.44a1.068,1.068,0,0,0-1.013.328l-1.544,1.677-1.545-1.677a1.066,1.066,0,0,0-.8-.348,1.271,1.271,0,0,0-.2.02l-2.241.44Z" fill="#f8cd16"/>
      <path id="Path_429" data-name="Path 429" d="M565.672,112.045a3.253,3.253,0,1,0,3.253-3.253A3.253,3.253,0,0,0,565.672,112.045Zm.184,4.46a5.418,5.418,0,1,1,8.49-4.46,5.391,5.391,0,0,1-2.352,4.46Z" fill="#2811ca"/>
      <path id="Path_430" data-name="Path 430" d="M563.892,116.5l.245,2.128,2.241-.44a1.271,1.271,0,0,1,.2-.02,1.066,1.066,0,0,1,.8.348l1.545,1.677,1.544-1.677a1.068,1.068,0,0,1,1.013-.328l2.23.44.246-2.128h.388v2.312a8.674,8.674,0,0,1-10.843,0V116.5Z" fill="#2811ca"/>
      <path id="Path_431" data-name="Path 431" d="M563.247,115.513l-2.076-.951,1.115-1.985a1.069,1.069,0,0,0,0-1.064l-1.115-1.984,2.076-.952a1.1,1.1,0,0,0,.624-.859l.266-2.261,2.241.44a1.082,1.082,0,0,0,1-.327l1.545-1.678,1.544,1.678a1.064,1.064,0,0,0,1.013.317l2.23-.44.266,2.271a1.135,1.135,0,0,0,.624.859l2.077.941-1.115,2a1.075,1.075,0,0,0,0,1.054l1.115,1.995-2.077.951a1.1,1.1,0,0,0-.624.859l-.02.133h-1.964a5.419,5.419,0,1,0-8.491-4.46,5.457,5.457,0,0,0,2.353,4.46h-1.964l-.021-.133A1.1,1.1,0,0,0,563.247,115.513Z" fill="#f8cd16"/>
      <path id="Path_432" data-name="Path 432" d="M563.5,120.976V135.43l4.654-4.654a1.093,1.093,0,0,1,1.535,0l4.654,4.654V120.976l.1.02a1.06,1.06,0,0,0,.839-.184,1.03,1.03,0,0,0,.337-.419v17.636l-6.7-6.138-6.68,6.138V120.454a1.076,1.076,0,0,0,1.074.552c.03,0,.061-.01.082-.01Z" fill="#2811ca"/>
      <path id="Path_433" data-name="Path 433" d="M563.5,116.5v2.312a9.563,9.563,0,0,1-1.258-1.238V116.5Z" fill="#2811ca"/>
      <path id="Path_434" data-name="Path 434" d="M568.925,103.391a8.664,8.664,0,0,0-7.008,3.56l-.133-.092.338-2.834a.26.26,0,0,1,.01-.082,1.083,1.083,0,0,1,1.269-.849l2.792.552,1.934-2.086c.01-.011.01-.011.01-.021a1.127,1.127,0,0,1,1.586.021l1.933,2.086,2.793-.552c.02,0,.051-.01.082-.01a1.073,1.073,0,0,1,1.2.941l.337,2.834-.133.092a8.642,8.642,0,0,0-7-3.56Z" fill="#2811ca"/>
      <path id="Path_435" data-name="Path 435" d="M562.245,117.579a9.563,9.563,0,0,0,1.258,1.238v2.159l-.1.02c-.021,0-.052.01-.082.01a1.076,1.076,0,0,1-1.074-.552Z" fill="#2811ca"/>
      <path id="Path_436" data-name="Path 436" d="M562.245,116.5v1.074a7.637,7.637,0,0,1-.747-1.074Z" fill="#2811ca"/>
      <path id="Path_437" data-name="Path 437" d="M562.122,120.055l-.338-2.823-.44-.205V116.5h.154a7.637,7.637,0,0,0,.747,1.074v2.875A1.271,1.271,0,0,1,562.122,120.055Z" fill="#2811ca"/>
      <path id="Path_438" data-name="Path 438" d="M561.171,114.562l2.076.951a1.1,1.1,0,0,1,.624.859l.021.133H561.5a8.656,8.656,0,0,1,.419-9.554,8.664,8.664,0,0,1,7.008-3.56h.01l-.01.5-1.545,1.678a1.082,1.082,0,0,1-1,.327l-2.241-.44-.266,2.261a1.1,1.1,0,0,1-.624.859l-2.076.952,1.115,1.984a1.069,1.069,0,0,1,0,1.064Z" fill="#2811ca"/>
      <path id="Path_439" data-name="Path 439" d="M560.26,112.055a8.552,8.552,0,0,0,1.238,4.45h-.154v.522l-2.148-.982a.565.565,0,0,0-.082-.041,1.078,1.078,0,0,1-.409-1.473l1.391-2.486-1.391-2.486a.566.566,0,0,1-.041-.082,1.083,1.083,0,0,1,.532-1.432l2.588-1.186.133.092A8.627,8.627,0,0,0,560.26,112.055Z" fill="#2811ca"/>
      <rect id="Rectangle_1521" data-name="Rectangle 1521" width="14.076" height="2.169" transform="translate(539.678 112.045)" fill="#2811ca"/>
      <path id="Path_440" data-name="Path 440" d="M588.136,83.872a2.23,2.23,0,0,0-.787-.787,2.17,2.17,0,0,0-2.967.787Zm-56.049,1.085a4.332,4.332,0,0,1,4.338-4.328h49.829a4.331,4.331,0,0,1,4.337,4.328,1.078,1.078,0,0,1-1.084,1.084h-5.412V120.71a4.339,4.339,0,0,1-4.337,4.337h-3.253v12.992a1.069,1.069,0,0,1-.665,1,.98.98,0,0,1-.419.082,1.04,1.04,0,0,1-.757-.317l-5.739-5.729-5.739,5.729a1.043,1.043,0,0,1-.757.317,1.079,1.079,0,0,1-1.085-1.084V125.047H529.919a4.338,4.338,0,0,1-4.328-4.337,1.079,1.079,0,0,1,1.085-1.085h5.411Zm50.443-2.169H536.425a2.17,2.17,0,0,0-2.169,2.169v34.668h26v2.169H528.047a2.18,2.18,0,0,0,1.872,1.084h31.425v-5.851l.44.205.338,2.823a1.271,1.271,0,0,0,.123.4v17.575l6.68-6.138,6.7,6.138V120.393a1.212,1.212,0,0,0,.1-.338l.327-2.823.45-.205v5.851h3.253a2.156,2.156,0,0,0,1.872-1.084h-4.041v-2.169h4.338V84.957A4.287,4.287,0,0,1,582.53,82.788Z" fill="#2811ca"/>
    </g>
  </g>
</svg>
