<svg xmlns="http://www.w3.org/2000/svg" xmlns:xlink="http://www.w3.org/1999/xlink" width="597.7" height="628.257" viewBox="0 0 597.7 628.257">
  <defs>
    <clipPath id="clip-path">
      <path id="Path_307" data-name="Path 307" d="M597.7,0,0,628.257V0Z" fill="none"/>
    </clipPath>
  </defs>
  <g id="scipy-bg1" clip-path="url(#clip-path)">
    <path id="Path_304" data-name="Path 304" d="M597.7,0,0,747.559V0Z" fill="#ce1126"/>
    <rect id="Rectangle_1329" data-name="Rectangle 1329" width="515.12" height="13.94" transform="matrix(0.692, -0.722, 0.722, 0.692, 264.015, 469.124)" fill="#fbbe0c"/>
    <rect id="Rectangle_1330" data-name="Rectangle 1330" width="515.126" height="13.94" transform="matrix(0.692, -0.722, 0.722, 0.692, 300.199, 503.627)" fill="#fbbe0c"/>
    <rect id="Rectangle_1331" data-name="Rectangle 1331" width="515.126" height="13.94" transform="matrix(0.692, -0.722, 0.722, 0.692, 336.378, 538.137)" fill="#fbbe0c"/>
    <rect id="Rectangle_1332" data-name="Rectangle 1332" width="515.126" height="13.94" transform="matrix(0.692, -0.722, 0.722, 0.692, 372.556, 572.653)" fill="#fbbe0c"/>
    <rect id="Rectangle_1333" data-name="Rectangle 1333" width="515.12" height="13.94" transform="matrix(0.692, -0.722, 0.722, 0.692, 408.74, 607.164)" fill="#fbbe0c"/>
    <path id="Path_305" data-name="Path 305" d="M-398.46,801.57,19.7,363.16,155.226,492.42,57.457,595.963,6.027,546.908l9.622-10.087L56.936,576.2l78.631-83.269L20.174,382.868-388.368,811.192Z" transform="translate(175.301 -159.771)" fill="#eb132b"/>
    <path id="Path_306" data-name="Path 306" d="M181.41,619.584l86.142-90.314,51.273,47.913-9.515,10.187-41.192-38.492-67,70.242,428.323,408.542-9.622,10.087Z" transform="translate(-79.811 -232.851)" fill="#eb132b"/>
    <rect id="Rectangle_1334" data-name="Rectangle 1334" width="515.12" height="13.94" transform="matrix(0.692, -0.722, 0.722, 0.692, -345.745, 393.94)" fill="#eb132b"/>
    <rect id="Rectangle_1335" data-name="Rectangle 1335" width="515.12" height="13.94" transform="matrix(0.692, -0.722, 0.722, 0.692, -309.565, 428.446)" fill="#eb132b"/>
    <rect id="Rectangle_1336" data-name="Rectangle 1336" width="515.12" height="13.94" transform="matrix(0.692, -0.722, 0.722, 0.692, -273.387, 462.957)" fill="#eb132b"/>
    <rect id="Rectangle_1337" data-name="Rectangle 1337" width="515.126" height="13.94" transform="matrix(0.692, -0.722, 0.722, 0.692, -237.204, 497.469)" fill="#eb132b"/>
    <rect id="Rectangle_1338" data-name="Rectangle 1338" width="515.126" height="13.94" transform="matrix(0.692, -0.722, 0.722, 0.692, -201.02, 531.979)" fill="#eb132b"/>
    <rect id="Rectangle_1339" data-name="Rectangle 1339" width="13.94" height="515.126" transform="matrix(0.692, -0.722, 0.722, 0.692, 123.037, -190.696)" fill="#eb132b"/>
    <rect id="Rectangle_1340" data-name="Rectangle 1340" width="13.94" height="515.126" transform="matrix(0.692, -0.722, 0.722, 0.692, 88.53, -154.518)" fill="#eb132b"/>
    <rect id="Rectangle_1341" data-name="Rectangle 1341" width="13.94" height="515.126" transform="matrix(0.692, -0.722, 0.722, 0.692, 54.023, -118.335)" fill="#eb132b"/>
    <rect id="Rectangle_1342" data-name="Rectangle 1342" width="13.94" height="515.12" transform="matrix(0.692, -0.722, 0.722, 0.692, 19.514, -82.153)" fill="#eb132b"/>
    <rect id="Rectangle_1343" data-name="Rectangle 1343" width="13.94" height="515.12" transform="matrix(0.692, -0.722, 0.722, 0.692, 226.016, -299.239)" fill="#eb132b"/>
    <rect id="Rectangle_1344" data-name="Rectangle 1344" width="13.94" height="515.12" transform="matrix(0.692, -0.722, 0.722, 0.692, 191.509, -263.055)" fill="#eb132b"/>
    <rect id="Rectangle_1345" data-name="Rectangle 1345" width="13.94" height="515.126" transform="matrix(0.692, -0.722, 0.722, 0.692, 157.002, -226.878)" fill="#eb132b"/>
    <rect id="Rectangle_1346" data-name="Rectangle 1346" width="13.94" height="515.12" transform="matrix(0.692, -0.722, 0.722, 0.692, -14.993, -45.975)" fill="#eb132b"/>
    <rect id="Rectangle_1347" data-name="Rectangle 1347" width="13.94" height="515.12" transform="matrix(0.692, -0.722, 0.722, 0.692, 63.438, 423.298)" fill="#eb132b"/>
    <rect id="Rectangle_1348" data-name="Rectangle 1348" width="13.94" height="515.12" transform="matrix(0.692, -0.722, 0.722, 0.692, 28.931, 459.482)" fill="#eb132b"/>
    <rect id="Rectangle_1349" data-name="Rectangle 1349" width="13.94" height="515.126" transform="matrix(0.692, -0.722, 0.722, 0.692, -5.582, 495.659)" fill="#eb132b"/>
    <rect id="Rectangle_1350" data-name="Rectangle 1350" width="13.94" height="515.126" transform="matrix(0.692, -0.722, 0.722, 0.692, -40.085, 531.847)" fill="#eb132b"/>
    <rect id="Rectangle_1351" data-name="Rectangle 1351" width="13.94" height="515.126" transform="matrix(0.692, -0.722, 0.722, 0.692, -74.592, 568.025)" fill="#eb132b"/>
  </g>
</svg>
