<svg id="Layer_1" data-name="Layer 1" xmlns="http://www.w3.org/2000/svg" viewBox="0 0 108.37 92.03"><defs><style>.cls-1{fill:#fcd116;}.cls-2{fill:#2811ce;}.cls-3{fill:#efcf37;}.cls-4{fill:#af182a;}</style></defs><title>tickets</title><g id="Group_663" data-name="Group 663"><g id="Group_676" data-name="Group 676"><g id="Group_675" data-name="Group 675"><g id="Group_674" data-name="Group 674"><g id="Group_673" data-name="Group 673"><path id="Path_836" data-name="Path 836" class="cls-1" d="M108.37,33.1,53.59,87.88l-10.05-10,1-1a6.86,6.86,0,0,0,2.31-5.82A9.19,9.19,0,0,0,38,61.56h-.63a6.91,6.91,0,0,0-5.82,2.32l-1,.95-10-10L75.28,0l10,10.05-1,1a6.9,6.9,0,0,0-2.32,5.82,9.19,9.19,0,0,0,8.86,9.49h.63A6.9,6.9,0,0,0,97.36,24l1-.95Z"/></g></g></g><path id="Path_837" data-name="Path 837" class="cls-1" d="M47.33,77.79a9.34,9.34,0,0,0,2.19-6.74,11.93,11.93,0,0,0-11.66-12.2h-.54A9.38,9.38,0,0,0,30.58,61l-6.25-6.25,32-32,1.92-1.91L75.28,3.83l6.25,6.26a9.33,9.33,0,0,0-2.18,6.74A11.92,11.92,0,0,0,91,29h.55a9.37,9.37,0,0,0,6.74-2.19l6.25,6.26L87.48,50.16l-1.92,1.92-32,32Z"/></g><g id="Group_680" data-name="Group 680"><g id="Group_679" data-name="Group 679"><g id="Group_678" data-name="Group 678"><g id="Group_677" data-name="Group 677"><path id="Path_838" data-name="Path 838" class="cls-2" d="M87.88,37.24,33.1,92l-10-10L24,81a6.91,6.91,0,0,0,2.32-5.82,9.18,9.18,0,0,0-8.86-9.49h-.63A6.86,6.86,0,0,0,11,68l-1,1L0,58.93,54.78,4.15l10,10-.95,1A6.89,6.89,0,0,0,61.56,21a9.18,9.18,0,0,0,8.86,9.49h.63a6.86,6.86,0,0,0,5.82-2.31l1-1Z"/></g></g></g><path id="Path_839" data-name="Path 839" class="cls-2" d="M26.84,81.94A9.34,9.34,0,0,0,29,75.2,11.93,11.93,0,0,0,17.37,63h-.54a9.34,9.34,0,0,0-6.74,2.19L3.83,58.93l32-32L37.72,25,54.79,8,61,14.24A9.34,9.34,0,0,0,58.85,21a11.94,11.94,0,0,0,11.66,12.2h.54A9.38,9.38,0,0,0,77.79,31l6.26,6.25L67,54.3l-1.92,1.92-32,32Z"/></g><g id="Group_682" data-name="Group 682"><g id="Group_681" data-name="Group 681"><path id="Path_840" data-name="Path 840" class="cls-3" d="M44.06,63.46A15.37,15.37,0,1,1,59.43,48.09h0A15.39,15.39,0,0,1,44.06,63.46Zm0-29.21A13.84,13.84,0,1,0,57.91,48.09h0A13.85,13.85,0,0,0,44.06,34.25Z"/></g><g id="path13"><path id="Path_841" data-name="Path 841" class="cls-4" d="M54.35,44.36l-.15-.25.83-.48v-.8h.3v.74h.59v.3h-.7Z"/></g><g id="path17"><path id="Path_842" data-name="Path 842" class="cls-3" d="M44.19,57.75a6.62,6.62,0,0,1-1.4-.17h0a9.21,9.21,0,0,1-4.49-3.2c-.82-.92-1.31-1.45-1.93-1.45h0c-.87,0-2.2,1-4.08,3.21l-.89-.78c2.2-2.53,3.68-3.61,5-3.61h0c1.19,0,2,.9,2.82,1.85a8.15,8.15,0,0,0,3.92,2.84c1.75.39,3.14-.11,3.73-1.34a4,4,0,0,0-1.5-4.63l0,0A7.5,7.5,0,0,0,41.86,49a10.3,10.3,0,0,1-2.79-1A3.94,3.94,0,0,1,37,44.05a4,4,0,0,1,2.76-3.58c4.15-1.47,5.6.82,6.75,2.66,1.31,2.07,2.25,3.57,6.56,1l.6,1c-5.3,3.12-6.81.7-8.15-1.42-1.13-1.79-2.1-3.33-5.39-2.17a2.85,2.85,0,0,0-2,2.56A2.75,2.75,0,0,0,39.62,47l0,0a9.54,9.54,0,0,0,2.49.86A8.64,8.64,0,0,1,46,49.55a5.06,5.06,0,0,1,1.82,6.05A3.87,3.87,0,0,1,44.19,57.75Z"/></g><g id="path19"><path id="Path_843" data-name="Path 843" class="cls-3" d="M50.37,44l1.72,3.5,2.54-2.84-.45-.9Z"/></g></g></g></svg>