<svg id="Layer_1" data-name="Layer 1" xmlns="http://www.w3.org/2000/svg" viewBox="0 0 47.16 18.04"><title>Artboard 1</title><path d="M11.08,12.57a9.48,9.48,0,0,1-5,1.49,3.63,3.63,0,0,1,0-.88c0-.55.33-.4.55-.84a2.77,2.77,0,0,0,.28-.64S6.74,9,6.7,7.9c0-.61-.13-1.62-.27-2.61-.08-.58-.26-1-.34-1.6C6,2.89,5.83,2,5.83,2a17.66,17.66,0,0,0-.38,2.29c-.07.52-.14,1.06-.2,1.57-.14,1.08-.48,4-.53,4.13s-.08-.06-.08-.06.2-3,.26-4.36c0-.66.08-1.37.16-2A13.9,13.9,0,0,1,5.3,2,4.86,4.86,0,0,1,5.76,1c.11,0,.52.66.65,1.27.31,1.37.49,1.54.73,3s.42,2.51.45,2.7a16.74,16.74,0,0,1-.12,3.64.65.65,0,0,1-.21.47,1.85,1.85,0,0,0-.6,1.06c0,.27,0,.27,0,.43,0,0,.47.69,3.15-.9a1.64,1.64,0,0,0,.84-1.4V1.47A18,18,0,0,0,6,.57a17,17,0,0,0-4.62.9v9.71c0,.6.09,1.72,1,2.1,0,0-2.29-.78-2.29-2.11V.64A41.19,41.19,0,0,1,6,0a42.51,42.51,0,0,1,6,.64V11.18a1.74,1.74,0,0,1-.9,1.39"/><path d="M44.25,4.42a2.15,2.15,0,0,1-1,.2,1.26,1.26,0,0,1-1-.38,1.47,1.47,0,0,1-.34-1,1.61,1.61,0,0,1,.34-1.08,1.12,1.12,0,0,1,.89-.39,1.35,1.35,0,0,1,.43.06V.66h.64Zm-.64-.27v-2a1.18,1.18,0,0,0-.28,0c-.5,0-.75.36-.75,1.07s.23,1,.7,1a.69.69,0,0,0,.33-.06"/><path d="M47.16,3.15l-1.73.25c0,.51.31.77.77.77A1.58,1.58,0,0,0,46.91,4l.15.4a1.94,1.94,0,0,1-.93.2,1.27,1.27,0,0,1-1-.38,1.54,1.54,0,0,1-.35-1.08,1.59,1.59,0,0,1,.33-1.07A1.09,1.09,0,0,1,46,1.71a1,1,0,0,1,.86.37,1.65,1.65,0,0,1,.27,1.07m-.6-.25c0-.53-.18-.8-.55-.8a.54.54,0,0,0-.46.23,1.29,1.29,0,0,0-.16.74Z"/><rect x="14.05" y="5.9" width="1" height="6.16"/><path d="M19.67,9.86a2.64,2.64,0,0,1-.45,1.62,1.8,1.8,0,0,1-2.77,0A2.64,2.64,0,0,1,16,9.86a2.65,2.65,0,0,1,.45-1.63,1.78,1.78,0,0,1,2.77,0,2.65,2.65,0,0,1,.45,1.63m-1,0c0-1.1-.28-1.65-.85-1.65S17,8.75,17,9.85s.28,1.61.84,1.61.85-.54.85-1.61"/><path d="M23.1,10.79a1.21,1.21,0,0,1-.43.94,1.64,1.64,0,0,1-1.14.39,2.18,2.18,0,0,1-1.23-.31l.27-.64a1.28,1.28,0,0,0,.83.25.68.68,0,0,0,.49-.17.58.58,0,0,0,.19-.45.59.59,0,0,0-.15-.43,1.26,1.26,0,0,0-.5-.29,1.32,1.32,0,0,1-1-1.23,1.21,1.21,0,0,1,.39-.91,1.4,1.4,0,0,1,1-.37A2.12,2.12,0,0,1,23,7.88l-.24.58A1.13,1.13,0,0,0,22,8.22a.61.61,0,0,0-.46.16.59.59,0,0,0-.17.42c0,.28.22.52.66.69a1.39,1.39,0,0,1,1.05,1.3"/><path d="M30.49,12.05H29.32l-.47-1.57h-2l-.49,1.57h-1l2-6.1h1.06Zm-1.8-2.22-.64-2.15a5.33,5.33,0,0,1-.16-.74h0c0,.16-.09.41-.17.74l-.66,2.15Z"/><path d="M34.61,12.05h-1V8.93c0-.48-.27-.73-.8-.73a1.92,1.92,0,0,0-.69.12v3.73h-1V7.89a4.11,4.11,0,0,1,1.73-.32A2,2,0,0,1,34.22,8a1.19,1.19,0,0,1,.39.94Z"/><path d="M39.12,11.81a3.09,3.09,0,0,1-1.54.32,2,2,0,0,1-1.52-.58,2.35,2.35,0,0,1-.54-1.64,2.5,2.5,0,0,1,.54-1.69,1.73,1.73,0,0,1,1.39-.61,2.22,2.22,0,0,1,.67.09V5.92h1Zm-1-.41V8.23a2,2,0,0,0-.45-.05c-.77,0-1.16.55-1.16,1.67s.36,1.65,1.09,1.65a1.11,1.11,0,0,0,.52-.1"/><path d="M43.67,9.82l-2.7.4c.08.81.48,1.22,1.2,1.22a2.46,2.46,0,0,0,1.12-.24l.24.62a3,3,0,0,1-1.46.31,1.94,1.94,0,0,1-1.5-.59A2.42,2.42,0,0,1,40,9.84a2.5,2.5,0,0,1,.5-1.67,1.72,1.72,0,0,1,1.38-.6,1.62,1.62,0,0,1,1.35.58,2.43,2.43,0,0,1,.42,1.67m-.93-.39c0-.83-.29-1.24-.87-1.24a.81.81,0,0,0-.71.36,2,2,0,0,0-.25,1.16Z"/><path d="M47.12,10.79a1.22,1.22,0,0,1-.44.94,1.64,1.64,0,0,1-1.14.39,2.14,2.14,0,0,1-1.22-.31l.26-.64a1.28,1.28,0,0,0,.83.25.67.67,0,0,0,.49-.17.58.58,0,0,0,.19-.45.59.59,0,0,0-.15-.43,1.26,1.26,0,0,0-.5-.29,1.32,1.32,0,0,1-1-1.23,1.21,1.21,0,0,1,.39-.91,1.41,1.41,0,0,1,1-.37A2.11,2.11,0,0,1,47,7.88l-.24.58A1.13,1.13,0,0,0,46,8.22a.63.63,0,0,0-.46.16.59.59,0,0,0-.17.42c0,.28.22.52.66.69a1.4,1.4,0,0,1,1.06,1.3"/><path d="M19.33,4.58H18.7v-2c0-.31-.17-.47-.51-.47a1,1,0,0,0-.44.08V4.58h-.64V1.92a2.7,2.7,0,0,1,1.1-.2,1.28,1.28,0,0,1,.88.26.78.78,0,0,1,.24.6Z"/><path d="M20.71,1a.3.3,0,0,1-.1.22.36.36,0,0,1-.5,0A.27.27,0,0,1,20,1a.28.28,0,0,1,.1-.22.36.36,0,0,1,.5,0,.3.3,0,0,1,.1.22m0,3.61H20V1.77h.64Z"/><path d="M23.58,1.77l-.91,2.81h-.6l-.92-2.81h.68l.5,1.81a2,2,0,0,1,.06.39h0c0-.1,0-.23.08-.39L23,1.77Z"/><path d="M26.25,3.15l-1.72.25c0,.52.31.78.77.78A1.58,1.58,0,0,0,26,4l.15.4a1.94,1.94,0,0,1-.93.2,1.24,1.24,0,0,1-1-.38,1.58,1.58,0,0,1-.35-1.08,1.65,1.65,0,0,1,.32-1.07,1.11,1.11,0,0,1,.88-.38,1,1,0,0,1,.86.37,1.52,1.52,0,0,1,.27,1.06m-.59-.24c0-.54-.19-.8-.56-.8a.53.53,0,0,0-.45.23,1.29,1.29,0,0,0-.16.74Z"/><path d="M28.19,1.72l-.12.47a1,1,0,0,0-.3,0,.56.56,0,0,0-.3.07V4.58h-.64V1.92a3.14,3.14,0,0,1,1.36-.2"/><path d="M30.23,3.77a.75.75,0,0,1-.28.6,1,1,0,0,1-.73.25,1.33,1.33,0,0,1-.78-.2L28.61,4a.82.82,0,0,0,.53.17.45.45,0,0,0,.31-.11.38.38,0,0,0,.12-.29.41.41,0,0,0-.09-.28.84.84,0,0,0-.32-.18.84.84,0,0,1-.64-.79A.76.76,0,0,1,28.77,2a.91.91,0,0,1,.64-.23,1.3,1.3,0,0,1,.73.2L30,2.29a.67.67,0,0,0-.45-.16.41.41,0,0,0-.3.11.35.35,0,0,0-.1.26c0,.18.13.33.41.44a.9.9,0,0,1,.68.83"/><path d="M31.48,1a.3.3,0,0,1-.1.22.35.35,0,0,1-.25.1.33.33,0,0,1-.25-.1.27.27,0,0,1-.1-.22.28.28,0,0,1,.1-.22.37.37,0,0,1,.25-.1.39.39,0,0,1,.25.1.3.3,0,0,1,.1.22m0,3.61h-.63V1.77h.63Z"/><path d="M34.34,4.42a2,2,0,0,1-1,.21,1.25,1.25,0,0,1-1-.38,1.48,1.48,0,0,1-.34-1,1.59,1.59,0,0,1,.34-1.08,1.11,1.11,0,0,1,.89-.39,1.29,1.29,0,0,1,.42.06V.66h.64Zm-.64-.26v-2a1.11,1.11,0,0,0-.28,0c-.49,0-.74.36-.74,1.07s.23,1,.7,1a.62.62,0,0,0,.32-.06"/><path d="M37.06,4.42a2.09,2.09,0,0,1-1,.21c-.77,0-1.15-.29-1.15-.86A.82.82,0,0,1,35.35,3a3.2,3.2,0,0,1,1.11-.27V2.59c0-.31-.18-.46-.56-.46a1.5,1.5,0,0,0-.7.17l-.15-.37a2.19,2.19,0,0,1,1-.21c.69,0,1,.32,1,1Zm-.6-.22V3a2,2,0,0,0-.71.19.59.59,0,0,0-.26.53c0,.34.2.52.59.52a.86.86,0,0,0,.38-.08"/><path d="M39.93,4.42a2,2,0,0,1-1,.21,1.25,1.25,0,0,1-1-.38,1.48,1.48,0,0,1-.34-1A1.59,1.59,0,0,1,38,2.13a1.12,1.12,0,0,1,.89-.39,1.35,1.35,0,0,1,.43.06V.66h.63Zm-.63-.26v-2a1.27,1.27,0,0,0-.29,0c-.49,0-.74.36-.74,1.07s.23,1,.7,1a.69.69,0,0,0,.33-.06"/><path d="M14,.67h.68v3c0,.33.18.49.54.49a1.19,1.19,0,0,0,.47-.08V.67h.68V4.39a2.7,2.7,0,0,1-1.18.22,1.28,1.28,0,0,1-.92-.28A.77.77,0,0,1,14,3.7Z"/><path d="M34,17.88a.9.9,0,0,1-.59.16,1,1,0,0,1-.85-.47,1.86,1.86,0,0,1-.24-1,1.9,1.9,0,0,1,.25-1,1,1,0,0,1,.85-.47.93.93,0,0,1,.58.16l-.11.31a.76.76,0,0,0-.37-.1.56.56,0,0,0-.53.39,1.71,1.71,0,0,0-.12.69,1.53,1.53,0,0,0,.13.68.53.53,0,0,0,.52.38.61.61,0,0,0,.36-.1Z"/><path d="M35.89,17a1.2,1.2,0,0,1-.19.72.82.82,0,0,1-1.31,0A1.28,1.28,0,0,1,34.2,17a1.34,1.34,0,0,1,.19-.73.74.74,0,0,1,.66-.32.72.72,0,0,1,.65.32,1.26,1.26,0,0,1,.19.73m-.46,0c0-.5-.12-.75-.38-.75s-.39.25-.39.75.13.74.39.74.38-.25.38-.74"/><rect x="36.33" y="15.15" width="0.46" height="2.84"/><path d="M38.91,17a1.2,1.2,0,0,1-.19.72.82.82,0,0,1-1.31,0,1.28,1.28,0,0,1-.19-.72,1.34,1.34,0,0,1,.19-.73.74.74,0,0,1,.66-.32.72.72,0,0,1,.65.32,1.26,1.26,0,0,1,.19.73m-.45,0q0-.75-.39-.75t-.39.75c0,.49.13.74.39.74s.39-.25.39-.74"/><path d="M42.08,18h-.46V16.55c0-.22-.12-.33-.35-.33a.49.49,0,0,0-.34.14V18h-.46V16.54c0-.21-.13-.32-.38-.32a.73.73,0,0,0-.3.06V18h-.46V16.07a1.88,1.88,0,0,1,.76-.14.83.83,0,0,1,.64.22.9.9,0,0,1,.65-.22.75.75,0,0,1,.5.16.57.57,0,0,1,.2.46Z"/><path d="M44.22,16.93a1.17,1.17,0,0,1-.23.78.91.91,0,0,1-.75.32,1.21,1.21,0,0,1-.67-.15V15.15H43V16a1.1,1.1,0,0,1,.4-.08.71.71,0,0,1,.62.31,1.21,1.21,0,0,1,.18.68m-.45,0c0-.5-.16-.76-.47-.76a.61.61,0,0,0-.28.07v1.44a.86.86,0,0,0,.24,0c.34,0,.51-.27.51-.79"/><path d="M45.14,15.39a.19.19,0,0,1-.08.16.28.28,0,0,1-.17.07.29.29,0,0,1-.18-.07.19.19,0,0,1-.08-.16.21.21,0,0,1,.08-.16.24.24,0,0,1,.18-.07.27.27,0,0,1,.17.06.23.23,0,0,1,.08.17m0,2.6h-.47V16h.47Z"/><path d="M47.09,17.88a1.52,1.52,0,0,1-.73.15c-.56,0-.83-.21-.83-.62a.61.61,0,0,1,.39-.58,2.53,2.53,0,0,1,.74-.17v-.11c0-.22-.13-.33-.4-.33a1.19,1.19,0,0,0-.51.12l-.1-.26a1.58,1.58,0,0,1,.69-.15c.5,0,.75.23.75.7Zm-.43-.17v-.83a1.48,1.48,0,0,0-.47.12.4.4,0,0,0-.23.4c0,.25.14.37.43.37a.54.54,0,0,0,.27-.06"/></svg>