<svg xmlns="http://www.w3.org/2000/svg" xmlns:xlink="http://www.w3.org/1999/xlink" viewBox="0 0 300 300"><defs><style>.cls-1{fill:#fcd116;}.cls-2{fill:url(#linear-gradient);}.cls-3{fill:url(#linear-gradient-2);}.cls-4{fill:url(#linear-gradient-3);}.cls-5{fill:url(#linear-gradient-4);}.cls-10,.cls-14,.cls-17,.cls-21,.cls-6,.cls-7{fill:none;}.cls-10,.cls-6,.cls-7{stroke:#1d325f;}.cls-10,.cls-12,.cls-14,.cls-15,.cls-17,.cls-6,.cls-7{stroke-miterlimit:10;}.cls-7{stroke-dasharray:3.02 3.02;}.cls-8{fill:url(#linear-gradient-5);}.cls-9{fill:#2811ce;}.cls-10{stroke-dasharray:3.02 3.02;}.cls-11,.cls-12,.cls-15{fill:#fff;}.cls-12,.cls-14,.cls-15,.cls-17,.cls-19,.cls-21,.cls-22,.cls-23{stroke:#00030e;}.cls-12,.cls-14,.cls-18,.cls-19,.cls-21,.cls-22,.cls-23{stroke-linecap:round;}.cls-12,.cls-14,.cls-15,.cls-17,.cls-18,.cls-19,.cls-21,.cls-22,.cls-23{stroke-width:0.25px;}.cls-13{fill:#cfdeff;}.cls-16{fill:url(#linear-gradient-6);}.cls-18{fill:#f4b7bc;stroke:#f4b7bc;}.cls-18,.cls-19,.cls-21,.cls-22,.cls-23{stroke-linejoin:round;}.cls-19{fill:url(#Gradiente_sem_nome_10);}.cls-20{fill:#10068e;}.cls-22{fill:url(#Gradiente_sem_nome_10-2);}.cls-23{fill:url(#Gradiente_sem_nome_10-3);}.cls-24{fill:url(#linear-gradient-7);}.cls-25{fill:#ffe161;}</style><linearGradient id="linear-gradient" x1="111.03" y1="238.28" x2="149.03" y2="238.28" gradientUnits="userSpaceOnUse"><stop offset="0" stop-color="#e8e8e9"/><stop offset="1" stop-color="#efefef"/></linearGradient><linearGradient id="linear-gradient-2" x1="28.26" y1="247.5" x2="61.94" y2="247.5" xlink:href="#linear-gradient"/><linearGradient id="linear-gradient-3" x1="246.05" y1="242.32" x2="279.99" y2="242.32" xlink:href="#linear-gradient"/><linearGradient id="linear-gradient-4" x1="225.42" y1="248.73" x2="255.66" y2="248.73" xlink:href="#linear-gradient"/><linearGradient id="linear-gradient-5" x1="29.43" y1="74.91" x2="92.17" y2="74.91" xlink:href="#linear-gradient"/><linearGradient id="linear-gradient-6" x1="97.89" y1="119.51" x2="225.78" y2="119.51" gradientTransform="matrix(0.16, 0.99, -0.99, 0.16, 253.29, -59.68)" gradientUnits="userSpaceOnUse"><stop offset="0" stop-color="#fefefe"/><stop offset="1" stop-color="#fff"/></linearGradient><linearGradient id="Gradiente_sem_nome_10" x1="88.91" y1="69.93" x2="72.44" y2="114.66" gradientUnits="userSpaceOnUse"><stop offset="0" stop-color="#1d325f"/><stop offset="1" stop-color="#00030e"/></linearGradient><linearGradient id="Gradiente_sem_nome_10-2" x1="145.86" y1="175.98" x2="91.8" y2="284.09" xlink:href="#Gradiente_sem_nome_10"/><linearGradient id="Gradiente_sem_nome_10-3" x1="126.72" y1="166.4" x2="72.66" y2="274.52" xlink:href="#Gradiente_sem_nome_10"/><linearGradient id="linear-gradient-7" x1="146.45" y1="244.13" x2="175.83" y2="244.13" xlink:href="#linear-gradient"/></defs><title>Convince your boss</title><g id="OBJECTS"><path class="cls-1" d="M146.32,246A47.5,47.5,0,0,1,137.08,261a55,55,0,0,1-5.91,5.6c-1,.82-2,1.6-3,2.31s-2,1.37-3,2a57,57,0,0,1-5.48,3,47.58,47.58,0,0,1-4.5,2c-2.56,1-4.12,1.39-4.12,1.39s-.24-1.63-.46-4.31c-.09-1.35-.2-2.95-.33-4.75s-.16-3.78-.23-5.91c0-1.07,0-2.16,0-3.27s0-2.27,0-3.43c.1-2.31.17-4.73.45-7.13a53.72,53.72,0,0,1,10.14-27.64c1.34-2,2.85-3.9,4.27-5.72.73-.91,1.47-1.79,2.2-2.64s1.42-1.68,2.13-2.48c1.44-1.58,2.76-3.05,4-4.36l3.32-3.41c1.9-1.9,3.14-3,3.14-3s.92,1.32,2.25,3.73a47.09,47.09,0,0,1,2.15,4.41,56,56,0,0,1,2.22,5.87c.34,1.09.67,2.23,1,3.43s.55,2.42.79,3.69a55.8,55.8,0,0,1,.88,8.09A47.61,47.61,0,0,1,146.32,246Z"/><path class="cls-2" d="M149,231.55l0-.94c-1.21.62-2.77,1.48-4.51,2.54s-3.74,2.3-5.72,3.75a51.22,51.22,0,0,0-11.52,11c2.07-4.87,3.89-9.84,5.5-14.88a21.9,21.9,0,0,1,1.19-2.95,23.6,23.6,0,0,1,1.46-2.72,35.74,35.74,0,0,1,3.63-4.78,53.41,53.41,0,0,1,4.06-4c1.36-1.18,2.72-2.21,3.91-3.1-.08-.27-.15-.55-.23-.82-3.83,2.82-9,7.09-12.32,12.72a178.52,178.52,0,0,0,5.6-27.67l-.33-.5h0l-.45.41a178.6,178.6,0,0,1-5.57,27.55c.12-6.59-2.77-12.47-5.36-16.15l-.5.59a30.88,30.88,0,0,1,2.37,4.09,27.5,27.5,0,0,1,1.92,5.1,22.56,22.56,0,0,1,.8,5.8,22.93,22.93,0,0,1-.2,3.07,20.45,20.45,0,0,1-.72,3.08c-1.61,5-3.42,10-5.48,14.81a30.69,30.69,0,0,0-1.62-15.31,42.45,42.45,0,0,0-2.67-5.85,45.08,45.08,0,0,0-2.61-4.07l-.44.67a38.53,38.53,0,0,1,5.88,12.34,26.6,26.6,0,0,1-1.17,18.17c-.89,1.92-1.83,3.81-2.77,5.71s-1.93,3.78-3,5.61a32,32,0,0,0-.91-18.58,38.87,38.87,0,0,0-4.58-9.33l-.25.93a36.77,36.77,0,0,1,2.46,4.51,39,39,0,0,1,2.69,7.82c1.37,6,1.32,13.66-2.67,20.28-1.23,2.11-2.58,4.14-3.89,6.19l.08.6.57-.17c1.32-2.06,2.67-4.1,3.91-6.21,4-6.59,10-11.05,15.7-14.37a85.94,85.94,0,0,1,7.87-4c2.29-1,4.16-1.69,5.16-2l.5-1.05a78.64,78.64,0,0,0-10.23,4.4c-5.11,2.61-11,6.25-15.73,11.39,1.06-1.84,2-3.76,3-5.63s1.89-3.81,2.78-5.74c2.85-6.1,7.41-10.73,12.06-14.44A82,82,0,0,1,149,231.55Z"/><path class="cls-1" d="M56.13,245A49.12,49.12,0,0,1,59,255.42c.37,1.73.57,3.55.86,5.25.12.86.22,1.73.33,2.58s.24,1.65.34,2.45c.18,1.64.41,3.13.58,4.52.08.7.16,1.37.23,2s.16,1.17.23,1.69c.28,2.08.39,3.4.39,3.4a32.17,32.17,0,0,1-3.43-.37c-.54-.08-1.14-.18-1.79-.31s-1.32-.32-2-.52a35.77,35.77,0,0,1-4.8-1.69c-.85-.38-1.73-.79-2.64-1.24s-1.77-1-2.68-1.58a38.24,38.24,0,0,1-5.38-4.11A33.27,33.27,0,0,1,28.3,240.59a38.43,38.43,0,0,1,1-6.69c.26-1.05.53-2.05.84-3s.68-1.87,1-2.73a32.67,32.67,0,0,1,2.27-4.55q.57-1,1.11-1.8c.38-.54.74-1,1.07-1.47a30.86,30.86,0,0,1,2.21-2.65s.84,1,2.08,2.71l1,1.38,1.21,1.59c.85,1.12,1.72,2.35,2.73,3.65.49.65,1,1.32,1.46,2s1.05,1.37,1.56,2.08c1,1.42,2.09,2.86,3,4.37A48.8,48.8,0,0,1,56.13,245Z"/><path class="cls-3" d="M52,237.11l-.31-.5a29.88,29.88,0,0,0-2.2,3,28,28,0,0,0-2.18,4.45A20.65,20.65,0,0,0,46.43,256a73.53,73.53,0,0,1-4.72-11.52,15.26,15.26,0,0,1-.57-2.43,17.76,17.76,0,0,1-.08-2.41,15.15,15.15,0,0,1,.84-4.51,17.29,17.29,0,0,1,1.79-3.83,18.61,18.61,0,0,1,2.16-2.95l-.35-.48a18.92,18.92,0,0,0-5.06,12.19,74.81,74.81,0,0,1-2.3-22l-.3-.37h0l-.32.35a75.36,75.36,0,0,0,2.32,22.18c-2.53-4.52-6.32-8.27-9.12-10.92l-.24.65c.86.84,1.88,1.78,2.89,2.83s2,2.19,3,3.41a38.65,38.65,0,0,1,2.72,3.94,18.81,18.81,0,0,1,1.1,2.2,19.32,19.32,0,0,1,.93,2.34,73.73,73.73,0,0,0,4.76,11.61,55.25,55.25,0,0,0-9.51-8.51c-1.58-1.19-3.16-2.25-4.56-3.16s-2.6-1.68-3.55-2.25v.78a114.2,114.2,0,0,1,9.82,6.68,52.47,52.47,0,0,1,5.52,4.91,26.43,26.43,0,0,1,2.52,2.86,26.75,26.75,0,0,1,2.23,3.23c.85,1.46,1.79,2.86,2.71,4.27l1.47,2c.49.69,1,1.37,1.53,2a60.58,60.58,0,0,0-13.59-7.68c-2.11-.93-4-1.7-5.53-2.24s-2.52-.92-2.91-1l.46.87c.81.29,2.37.79,4.26,1.54,1,.37,2,.81,3.09,1.27s2.3,1,3.49,1.56c4.83,2.29,10,5.17,14.08,9.66,1.26,1.47,2.68,2.79,4,4.16l.47,0,0-.48c-1.36-1.35-2.77-2.67-4-4.13a19,19,0,0,1-1.4-1.74c-.4-.62-.76-1.25-1.09-1.89a16.76,16.76,0,0,1-.86-1.95c-.23-.67-.42-1.34-.58-2s-.29-1.33-.39-2-.11-1.34-.13-2a20,20,0,0,1,.2-3.74,29,29,0,0,1,.71-3.33,25.47,25.47,0,0,1,1-2.79,22,22,0,0,1,1.8-3.5l-.21-.67a21.67,21.67,0,0,0-1.38,2.35,28,28,0,0,0-1.91,4.92,21.34,21.34,0,0,0,.92,14.4c-.54-.64-1-1.31-1.52-2l-1.46-2c-.91-1.4-1.84-2.79-2.69-4.23A18.81,18.81,0,0,1,47.31,257a22.78,22.78,0,0,1-.73-3.64,20.81,20.81,0,0,1,.61-6.9,23,23,0,0,1,2.25-5.59A24.12,24.12,0,0,1,52,237.11Z"/><path class="cls-1" d="M276.7,245.76a52.76,52.76,0,0,1-6,11.6c-1.14,1.8-2.44,3.51-3.64,5.16-.61.83-1.25,1.63-1.87,2.41s-1.2,1.54-1.8,2.27c-1.22,1.46-2.33,2.83-3.39,4.05l-2.8,3.2c-1.6,1.8-2.65,2.85-2.65,2.85a38.48,38.48,0,0,1-2.21-3.22,39.69,39.69,0,0,1-2.16-3.86A46.51,46.51,0,0,1,248,265c-.35-1-.69-2-1-3.07s-.57-2.17-.83-3.33a47.74,47.74,0,0,1-1-7.34,39.45,39.45,0,0,1,10.63-29.78,47.79,47.79,0,0,1,5.43-5c.93-.73,1.84-1.42,2.75-2s1.85-1.2,2.73-1.73a46.23,46.23,0,0,1,5-2.61,35.52,35.52,0,0,1,4.11-1.62c2.34-.79,3.75-1.1,3.75-1.1s.15,1.48.25,3.88c0,1.21.09,2.65.14,4.25s0,3.38.06,5.28c0,.95,0,1.92,0,2.9s0,2-.07,3c-.12,2-.2,4.18-.46,6.29A52.48,52.48,0,0,1,276.7,245.76Z"/><path class="cls-4" d="M279.15,235.3l.1-.7a38,38,0,0,0-4.14,1.19,36.09,36.09,0,0,0-5.22,2.4,26.22,26.22,0,0,0-9.86,9.59,126,126,0,0,1,4.72-13.36,18.22,18.22,0,0,1,1.29-2.53,20.3,20.3,0,0,1,1.66-2.19,19.21,19.21,0,0,1,4-3.45A22.49,22.49,0,0,1,276,224a26.6,26.6,0,0,1,4-1.3c0-.23,0-.46,0-.69a24.07,24.07,0,0,0-13.14,7.64,129.07,129.07,0,0,1,12.74-21.75c0-.35,0-.54,0-.54h0l-.52.13a130.1,130.1,0,0,0-12.81,21.87c1-5.8.12-11.74-.73-16l-.65.42c.26,1.32.55,2.84.76,4.45a50.43,50.43,0,0,1,.38,5.09,34.14,34.14,0,0,1-.36,5.39,21.94,21.94,0,0,1-.6,2.71,19.61,19.61,0,0,1-.91,2.71,125.89,125.89,0,0,0-4.74,13.43,49.83,49.83,0,0,0-1.63-14.27c-.51-2.15-1.12-4.17-1.71-5.94s-1.11-3.26-1.56-4.41l-.53.66a84.68,84.68,0,0,1,3.76,12.68,38.94,38.94,0,0,1,.13,16.94c-.46,1.86-.85,3.73-1.25,5.6s-.74,3.75-1,5.64a53.68,53.68,0,0,0-4.7-16.87,79.33,79.33,0,0,0-4.57-9l-.26,1c.47.83,1.39,2.39,2.39,4.42s2.18,4.53,3.23,7.3c2.12,5.57,3.89,12.06,3.15,18.92-.28,2.18-.4,4.38-.56,6.57l.32.43.38-.39c.16-2.18.28-4.36.56-6.53.74-6.9,5-12.33,9.3-15.73a32.12,32.12,0,0,1,6.27-3.87,29.62,29.62,0,0,1,4.26-1.67l.34-.78a33.2,33.2,0,0,0-8.45,3.78,27.4,27.4,0,0,0-11,12.48c.25-1.88.66-3.74,1-5.61s.79-3.72,1.24-5.57A23,23,0,0,1,268,240.2,32.4,32.4,0,0,1,279.15,235.3Z"/><path class="cls-1" d="M250.83,251.69a44.64,44.64,0,0,1-5.32,9.27c-1,1.44-2.11,2.81-3.13,4.15-.53.67-1.07,1.32-1.6,1.95s-1,1.26-1.53,1.85l-2.87,3.34-1.27,1.42L234,274.91c-1.33,1.5-2.21,2.39-2.21,2.39a31.12,31.12,0,0,1-1.87-2.7l-.89-1.48c-.29-.54-.6-1.14-.91-1.78a35.32,35.32,0,0,1-1.84-4.42c-.28-.83-.55-1.7-.81-2.62s-.45-1.85-.64-2.84a38.85,38.85,0,0,1-.67-6.27,32.47,32.47,0,0,1,10.39-24.89,38.16,38.16,0,0,1,4.93-3.94c.84-.55,1.65-1.08,2.47-1.55s1.64-.87,2.43-1.25a34.66,34.66,0,0,1,4.44-1.81c.68-.23,1.31-.43,1.9-.6s1.17-.29,1.68-.41a30.75,30.75,0,0,1,3.23-.57s0,1.25-.14,3.25c0,.5-.08,1.05-.12,1.64s-.08,1.24-.12,1.91c-.11,1.35-.23,2.82-.35,4.38-.07.78-.15,1.58-.25,2.39s-.15,1.67-.25,2.51c-.24,1.66-.42,3.43-.75,5.14A45,45,0,0,1,250.83,251.69Z"/><path class="cls-5" d="M253.34,243.27l.11-.57a29.7,29.7,0,0,0-3.51.72,28.6,28.6,0,0,0-4.47,1.68,21.1,21.1,0,0,0-8.65,7.56,88.18,88.18,0,0,1,4.53-11,16.55,16.55,0,0,1,1.22-2.05,15.81,15.81,0,0,1,1.52-1.73,15.29,15.29,0,0,1,3.51-2.62,18.17,18.17,0,0,1,3.74-1.59,20.6,20.6,0,0,1,3.43-.76l.06-.57a19.22,19.22,0,0,0-11.45,5.43,90,90,0,0,1,12.27-17.18v-.45h0l-.44.05a90.52,90.52,0,0,0-12.36,17.3,40,40,0,0,0,.52-13.45l-.58.31c.1,1.12.24,2.42.29,3.79s0,2.81-.05,4.3a29.58,29.58,0,0,1-.65,4.5,24.69,24.69,0,0,1-1.56,4.46,86.93,86.93,0,0,0-4.56,11,45.44,45.44,0,0,0-.74-12.07c-.3-1.84-.71-3.58-1.09-5.11s-.72-2.82-1-3.82l-.49.54a83.07,83.07,0,0,1,2.42,10.91,35.22,35.22,0,0,1-.55,14.25c-.44,1.54-.8,3.11-1.18,4.66s-.69,3.14-.92,4.72a49.2,49.2,0,0,0-3.55-14.33,75.21,75.21,0,0,0-3.46-7.78l-.27.87c.35.73,1.06,2.09,1.83,3.85s1.65,3.91,2.45,6.28c1.61,4.77,3,10.24,2.31,16-.24,1.83-.33,3.67-.47,5.51l.28.36.31-.33c.14-1.83.22-3.66.47-5.47.65-5.79,4.31-10.27,8-13a25.34,25.34,0,0,1,5.36-3,24.88,24.88,0,0,1,3.6-1.19l.32-.62a26.54,26.54,0,0,0-7.19,2.76,21.9,21.9,0,0,0-9.44,10.14c.23-1.57.61-3.12.91-4.69s.74-3.1,1.18-4.63a18.42,18.42,0,0,1,8.44-10.65A25.34,25.34,0,0,1,253.34,243.27Z"/><path class="cls-6" d="M68.28,77.09c-.48-.16-1-.3-1.43-.44"/><path class="cls-7" d="M63.92,75.9c-32.75-7.25-59,24.57-47,51.22,13,28.85,46.94,3.42,32.94-4.51-7-4-20.42,3.94-25,16.08-5.8,15.39-8.23,27.18-4.81,44.92,6.92,35.78,41,57,72,35.69,15.62-10.72,31.09-28.44,54.65-29.86"/><path class="cls-6" d="M148.24,189.38c.5,0,1,0,1.51,0"/><path class="cls-8" d="M87.27,74.91a26.43,26.43,0,0,0-.64-5.8A3,3,0,0,1,88,65.84l2.63-1.52a3,3,0,0,0,1.1-4.09L89,55.43a3,3,0,0,0-4.09-1.1l-2.63,1.52a3,3,0,0,1-3.54-.41,26.4,26.4,0,0,0-10-5.79,3,3,0,0,1-2.12-2.86v-3a3,3,0,0,0-3-3H58a3,3,0,0,0-3,3v3a3,3,0,0,1-2.12,2.86,26.47,26.47,0,0,0-10,5.79,3,3,0,0,1-3.54.41L36.7,54.33a3,3,0,0,0-4.09,1.1l-2.78,4.8a3,3,0,0,0,1.1,4.09l2.63,1.52A3,3,0,0,1,35,69.11,26.56,26.56,0,0,0,35,80.7,3,3,0,0,1,33.56,84l-2.63,1.51a3,3,0,0,0-1.1,4.09l2.78,4.81a3,3,0,0,0,4.09,1.09L39.33,94a3,3,0,0,1,3.54.41,26.5,26.5,0,0,0,10,5.8A3,3,0,0,1,55,103v3a3,3,0,0,0,3,3h5.54a3,3,0,0,0,3-3v-3a3,3,0,0,1,2.12-2.86,26.42,26.42,0,0,0,10-5.8A3,3,0,0,1,82.27,94l2.63,1.52A3,3,0,0,0,89,94.39l2.78-4.81a3,3,0,0,0-1.1-4.09L88,84a3,3,0,0,1-1.41-3.28A26.28,26.28,0,0,0,87.27,74.91ZM60.8,88.45A13.54,13.54,0,1,1,74.34,74.91,13.54,13.54,0,0,1,60.8,88.45Z"/><path class="cls-9" d="M126.56,87.35a20.64,20.64,0,0,0-.49-4.48,2.3,2.3,0,0,1,1.09-2.53l2-1.17A2.31,2.31,0,0,0,130,76l-2.15-3.72a2.32,2.32,0,0,0-3.16-.84l-2,1.17A2.31,2.31,0,0,1,120,72.3a20.5,20.5,0,0,0-7.76-4.48,2.32,2.32,0,0,1-1.64-2.21V63.26A2.31,2.31,0,0,0,108.24,61H104a2.3,2.3,0,0,0-2.31,2.31v2.35A2.31,2.31,0,0,1,100,67.82a20.39,20.39,0,0,0-7.75,4.48,2.33,2.33,0,0,1-2.74.32l-2-1.17a2.32,2.32,0,0,0-3.16.84L82.15,76A2.32,2.32,0,0,0,83,79.17l2,1.17a2.32,2.32,0,0,1,1.1,2.53,20.32,20.32,0,0,0,0,9A2.32,2.32,0,0,1,85,94.36l-2,1.18a2.32,2.32,0,0,0-.85,3.16l2.15,3.71a2.31,2.31,0,0,0,3.16.85l2-1.18a2.33,2.33,0,0,1,2.74.32,20.26,20.26,0,0,0,7.75,4.48,2.32,2.32,0,0,1,1.65,2.21v2.35a2.31,2.31,0,0,0,2.31,2.32h4.29a2.32,2.32,0,0,0,2.32-2.32v-2.35a2.33,2.33,0,0,1,1.64-2.21A20.37,20.37,0,0,0,120,102.4a2.31,2.31,0,0,1,2.73-.32l2,1.18a2.31,2.31,0,0,0,3.16-.85L130,98.7a2.31,2.31,0,0,0-.85-3.16l-2-1.18a2.3,2.3,0,0,1-1.09-2.53A20.64,20.64,0,0,0,126.56,87.35ZM106.1,97.82a10.47,10.47,0,1,1,10.47-10.47A10.46,10.46,0,0,1,106.1,97.82Z"/><path class="cls-6" d="M80.13,82.61c.4.24.84.48,1.31.72"/><path class="cls-10" d="M84.17,84.61c9.17,3.87,24.5,6.7,32.4,0,9.22-7.83,9.35-25,2.12-34.74-2.74-3.68-8.22-6.57-11.7-3.58-3,2.6-1.9,7.79,1,10.56,5.46,5.29,14.79,4.44,21.16.28C149.75,43.67,166.86,28,189.75,22.94c28.12-6.23,51.35,7.73,42.79,27.74-3.86,9-7.89,18.17-9,27.9s2.95,21.17,12.3,24.13c5.94,1.87,12.31-.11,18.37-1.59s13-2.28,18,1.44S279,114.31,276.08,120c-7,13.44-41.69,17.2-45.42,33.89"/><path class="cls-6" d="M230.41,155.37a14.76,14.76,0,0,0-.08,1.5"/><rect class="cls-11" x="194.61" y="42.67" width="57.79" height="77.88" rx="5.13"/><path class="cls-12" d="M199.74,42.67h47.54a5.13,5.13,0,0,1,5.13,5.13v67.62a5.13,5.13,0,0,1-5.13,5.13"/><rect class="cls-13" x="203.75" y="56.45" width="33.77" height="2.77"/><rect class="cls-13" x="203.75" y="67.12" width="33.77" height="2.77"/><rect class="cls-13" x="203.75" y="77.78" width="33.77" height="2.77"/><rect class="cls-13" x="203.75" y="88.44" width="33.77" height="2.77"/><rect class="cls-13" x="203.75" y="99.11" width="33.77" height="2.77"/><rect class="cls-14" x="241.1" y="55.16" width="5.35" height="5.35" rx="0.97"/><rect class="cls-14" x="241.1" y="65.82" width="5.35" height="5.35" rx="0.97"/><rect class="cls-14" x="241.1" y="76.49" width="5.35" height="5.35" rx="0.97"/><rect class="cls-14" x="241.1" y="87.15" width="5.35" height="5.35" rx="0.97"/><rect class="cls-14" x="241.1" y="97.82" width="5.35" height="5.35" rx="0.97"/><polygon class="cls-9" points="242.06 59.51 242.1 56.13 245.48 56.16 245.45 59.51 242.06 59.51"/><polygon class="cls-9" points="242.06 70.17 242.1 66.79 245.48 66.82 245.45 70.17 242.06 70.17"/><polygon class="cls-9" points="242.06 80.84 242.1 77.46 245.48 77.49 245.45 80.84 242.06 80.84"/><rect class="cls-11" x="154.31" y="159.21" width="114.38" height="91.01" rx="13.64"/><path class="cls-15" d="M268.69,172.85v63.72a13.64,13.64,0,0,1-13.64,13.64H168a13.64,13.64,0,0,1-13.64-13.64"/><path class="cls-9" d="M154.31,172.85A13.64,13.64,0,0,1,168,159.21h87.1a13.64,13.64,0,0,1,13.64,13.64Z"/><rect class="cls-13" x="170.59" y="183" width="14.27" height="9.98" rx="1.68"/><rect class="cls-13" x="187.48" y="183" width="14.27" height="9.98" rx="1.68"/><rect class="cls-13" x="204.36" y="183" width="14.27" height="9.98" rx="1.68"/><rect class="cls-13" x="221.25" y="183" width="14.27" height="9.98" rx="1.68"/><rect class="cls-13" x="238.13" y="183" width="14.27" height="9.98" rx="1.68"/><rect class="cls-13" x="170.59" y="196.98" width="14.27" height="9.98" rx="1.68"/><rect class="cls-9" x="187.48" y="196.98" width="14.27" height="9.98" rx="1.68"/><rect class="cls-13" x="204.36" y="196.98" width="14.27" height="9.98" rx="1.68"/><rect class="cls-13" x="221.25" y="196.98" width="14.27" height="9.98" rx="1.68"/><rect class="cls-13" x="238.13" y="196.98" width="14.27" height="9.98" rx="1.68"/><rect class="cls-13" x="170.59" y="210.95" width="14.27" height="9.98" rx="1.68"/><rect class="cls-13" x="187.48" y="210.95" width="14.27" height="9.98" rx="1.68"/><rect class="cls-13" x="204.36" y="210.95" width="14.27" height="9.98" rx="1.68"/><rect class="cls-9" x="221.25" y="210.95" width="14.27" height="9.98" rx="1.68"/><rect class="cls-13" x="238.13" y="210.95" width="14.27" height="9.98" rx="1.68"/><rect class="cls-13" x="170.59" y="224.92" width="14.27" height="9.98" rx="1.68"/><rect class="cls-13" x="187.48" y="224.92" width="14.27" height="9.98" rx="1.68"/><rect class="cls-13" x="204.36" y="224.92" width="14.27" height="9.98" rx="1.68"/><rect class="cls-13" x="221.25" y="224.92" width="14.27" height="9.98" rx="1.68"/><rect class="cls-13" x="238.13" y="224.92" width="14.27" height="9.98" rx="1.68"/><path class="cls-13" d="M240.7,168h0a3.4,3.4,0,0,1-3.4-3.4V153.81a3.4,3.4,0,0,1,3.4-3.39h0a3.39,3.39,0,0,1,3.39,3.39V164.6A3.4,3.4,0,0,1,240.7,168Z"/><path class="cls-14" d="M244.09,153.81V164.6a3.4,3.4,0,0,1-3.39,3.4h0a3.4,3.4,0,0,1-3.4-3.4"/><path class="cls-9" d="M214.49,192.53h0l-6-6a2.19,2.19,0,0,1,0-3.09h0l6,6A2.2,2.2,0,0,1,214.49,192.53Z"/><path class="cls-9" d="M207,191h0l6-6a2.17,2.17,0,0,1,3.09,0h0l-6,6A2.2,2.2,0,0,1,207,191Z"/><path class="cls-9" d="M180.71,220.48h0l-6-6a2.19,2.19,0,0,1,0-3.09h0l6,6A2.18,2.18,0,0,1,180.71,220.48Z"/><path class="cls-9" d="M173.19,218.93h0l6-6a2.19,2.19,0,0,1,3.09,0h0l-6,6A2.2,2.2,0,0,1,173.19,218.93Z"/><path class="cls-9" d="M248.26,234.45h0l-6-6a2.2,2.2,0,0,1,0-3.1h0l6,6A2.2,2.2,0,0,1,248.26,234.45Z"/><path class="cls-9" d="M240.74,232.9h0l6-6a2.17,2.17,0,0,1,3.09,0h0l-6,6A2.17,2.17,0,0,1,240.74,232.9Z"/><circle class="cls-16" cx="161.83" cy="119.51" r="63.95" transform="translate(17.48 259.64) rotate(-80.59)"/><path class="cls-17" d="M161.83,69a50.52,50.52,0,1,1,0,101"/><path class="cls-17" d="M161.83,55.57a63.95,63.95,0,1,1,0,127.89"/><circle class="cls-11" cx="162.58" cy="119.26" r="49.28"/><path class="cls-9" d="M162.58,170a50.77,50.77,0,1,1,35.9-14.87A50.41,50.41,0,0,1,162.58,170Zm0-98.57a47.81,47.81,0,1,0,47.81,47.8A47.85,47.85,0,0,0,162.58,71.46Z"/><g id="path13"><polygon class="cls-9" points="193.03 106.86 192.6 106.11 195.06 104.69 195.06 102.32 195.93 102.32 195.93 104.5 197.68 104.5 197.68 105.38 195.62 105.38 193.03 106.86"/></g><g id="path17"><path class="cls-9" d="M163,146.42a18.62,18.62,0,0,1-4.15-.49l-.1,0c-6.66-1.94-10.33-6.1-13.28-9.45-2.41-2.74-3.87-4.29-5.71-4.29h0c-2.57,0-6.52,3.11-12.06,9.48l-2.63-2.29c6.5-7.47,10.89-10.66,14.68-10.68h0c3.5,0,5.85,2.66,8.33,5.48,2.78,3.15,5.93,6.72,11.58,8.39,5.17,1.16,9.29-.32,11-4s.81-9.58-4.42-13.69l-.07,0c-3-2.59-6.43-3.44-10.1-4.34a30.64,30.64,0,0,1-8.25-2.9A11.66,11.66,0,0,1,141.68,106a11.91,11.91,0,0,1,8.13-10.6c12.29-4.33,16.55,2.44,20,7.87,3.86,6.13,6.65,10.56,19.39,3.06l1.77,3c-15.66,9.21-20.15,2.08-24.11-4.21-3.33-5.28-6.21-9.84-15.94-6.41a8.47,8.47,0,0,0-5.75,7.58,8.14,8.14,0,0,0,4.35,8.27l.08,0a27.34,27.34,0,0,0,7.36,2.55c3.91,1,7.94,2,11.53,5.07,5.95,4.7,8.17,12.06,5.38,17.9C172.28,143.38,168.7,146.42,163,146.42Z"/></g><g id="path19"><path class="cls-9" d="M181.28,105.66l5.1,10.35,7.5-8.38L192.53,105Z"/></g><g id="circle15"><path class="cls-9" d="M162.58,162a42.74,42.74,0,1,1,42.74-42.74A42.79,42.79,0,0,1,162.58,162Zm0-82.86a40.13,40.13,0,1,0,40.13,40.12A40.17,40.17,0,0,0,162.58,79.14Z"/></g><g id="circle15-2" data-name="circle15"><path class="cls-9" d="M163.39,155.89h-.93l0-4.36h.75Zm2.78-.16-.43-4.35c.28,0,.55,0,.82-.09l.53,4.33Zm-6.48.06-.93-.09.45-4.34.82.08Zm10.14-.61L169,150.9l.8-.17,1,4.26Zm-13.82.13c-.31-.06-.61-.11-.91-.18l.89-4.27.8.16Zm17.42-1.05-1.29-4.16.78-.25,1.39,4.13Zm-21,.2c-.3-.08-.6-.17-.89-.27l1.31-4.15.79.23ZM176.92,153l-1.71-4,.75-.33,1.8,4Zm-28,.26-.86-.36,1.74-4,.75.32Zm31.37-1.88-2.11-3.82.71-.4,2.2,3.76C180.79,151.07,180.52,151.22,180.25,151.37Zm-34.74.32-.81-.45,2.13-3.8.72.39Zm37.88-2.27-2.47-3.59.66-.47,2.57,3.52Zm-41.07.37-.76-.52,2.5-3.57.68.46Zm44-2.63-2.83-3.32.61-.54,2.92,3.25Zm-47,.42c-.24-.19-.48-.39-.71-.6l2.86-3.29.62.52Zm49.69-3-3.15-3,.56-.6,3.23,2.94C189.46,144.16,189.25,144.39,189,144.61Zm-52.43.48c-.22-.22-.44-.44-.65-.67l3.17-3,.57.58Zm54.86-3.28L188,139.12l.49-.65,3.5,2.6C191.84,141.32,191.65,141.57,191.46,141.81Zm-57.34.52c-.2-.24-.39-.48-.57-.73l3.45-2.66.51.64Zm59.47-3.55-3.68-2.34.42-.69,3.75,2.23C193.92,138.25,193.76,138.52,193.59,138.78ZM133,138.61c.41-.43,2.1-2.35,2.1-2.35.14.23.29.46.44.69Zm62.37-3.07-3.9-1.94c.12-.25.24-.49.35-.74l4,1.84C195.69,135,195.55,135.26,195.41,135.54Zm-65.35.6-.42-.83,3.92-1.91c.12.25.24.49.37.73Zm66.84-4-4.09-1.53c.1-.26.19-.51.28-.77l4.12,1.43Zm-68.38.64c-.12-.29-.22-.58-.33-.86l3.33-1.24Zm69.5-4.18-4.22-1.1c.07-.27.14-.53.2-.8l4.25,1C198.17,128,198.1,128.29,198,128.59Zm-70.69.66c-.09-.29-.17-.59-.24-.89l4.22-1.08.21.79ZM198.78,125l-4.31-.68.12-.8,4.32.56C198.87,124.35,198.83,124.66,198.78,125Zm-72.28.68-.15-.92,4.32-.64c0,.27.08.54.13.81Zm72.67-4.37-4.36-.23c0-.27,0-.55,0-.82l4.36.13Zm-73.12.69q0-.46-.06-.93l4.36-.2c0,.27,0,.54.05.81Zm68.77-4.19c0-.28,0-.55,0-.82l4.36-.31c0,.31,0,.62.05.93Zm-64.5.6-4.36-.12c0-.31,0-.62,0-.93l4.35.24Zm64.19-3.85c0-.27-.08-.55-.13-.82l4.3-.74c0,.31.1.61.14.91Zm-63.94.59-4.32-.55c0-.31.08-.62.13-.92l4.31.66C130.64,114.57,130.61,114.84,130.57,115.11Zm63.3-3.8-.21-.79,4.2-1.17.24.89Zm-62.72.59-4.25-1c.07-.3.15-.6.23-.9l4.22,1.09C131.28,111.37,131.21,111.63,131.15,111.9Zm.91-3.14-4.13-1.42c.1-.29.21-.59.32-.88l4.08,1.53Zm1.22-3-4-1.84c.13-.28.26-.56.4-.83l3.91,1.92C133.51,105.23,133.39,105.48,133.28,105.73Zm56.78-3.41c-.14-.23-.29-.46-.44-.68l3.65-2.39c.17.26.34.52.5.78Zm-55.26.51-3.75-2.22.48-.8,3.7,2.32C135.08,102.36,134.94,102.6,134.8,102.83Zm53.41-3.19L187.7,99l3.39-2.75c.2.24.39.49.58.73Zm-51.6.47-3.51-2.6c.18-.25.37-.49.56-.73l3.44,2.67Zm49.48-3-.57-.59,3.1-3.07.64.66Zm-47.41.43-3.23-2.93.63-.68,3.16,3C139.05,97.17,138.86,97.37,138.68,97.58Zm45-2.7-.62-.53L185.88,91l.71.6ZM141,95.27,138.08,92l.69-.61,2.84,3.31Zm40.16-2.4-.68-.47,2.43-3.62.76.52Zm-37.63.34L141,89.69l.76-.54,2.48,3.59Zm34.86-2.09-.72-.39,2.05-3.85.81.44Zm-32.13.29-2.21-3.76.81-.46L147,91Zm29.21-1.75-.76-.31,1.64-4,.86.36Zm-26.32.25-1.81-4,.84-.37,1.72,4Zm23.26-1.4-.79-.24,1.22-4.19.89.27Zm-20.23.19-1.4-4.13.88-.29L153,88.45Zm17.06-1-.8-.16.79-4.29c.31.06.61.11.91.18Zm-13.91.13-1-4.25.91-.2.86,4.28ZM166,87.17l-.81-.08.34-4.34.93.08Zm-7.47.07L158,82.91l.93-.1.43,4.34Zm4.2-.25h-.95l-.09-4.36h1.07Z"/></g><circle class="cls-11" cx="162.7" cy="119.26" r="40.12"/><g id="path13-2" data-name="path13"><polygon class="cls-9" points="191.33 107.62 190.92 106.91 193.23 105.58 193.23 103.36 194.05 103.36 194.05 105.41 195.69 105.41 195.69 106.22 193.75 106.22 191.33 107.62"/><path class="cls-9" d="M191.24,107.93l-.63-1.1,2.4-1.38v-2.32h1.27v2.05h1.64v1.27h-2.11Zm0-.94.18.32,2.28-1.31h1.77v-.37h-1.64v-2h-.36v2.12Z"/></g><g id="path17-2" data-name="path17"><path class="cls-9" d="M163.14,144.76a17.93,17.93,0,0,1-3.89-.46l-.1,0c-6.25-1.82-9.69-5.73-12.46-8.87-2.27-2.57-3.64-4-5.37-4h0c-2.41,0-7,3.91-12.18,9.89l-1.73-2.9c6.1-7,10.35-10.25,13.9-10.26h0c3.3,0,5.5,2.49,7.82,5.13,2.61,3,5.57,6.32,10.88,7.88,4.85,1.09,8.72-.3,10.35-3.71s.75-9-4.16-12.85l-.07-.06c-2.77-2.43-6-3.22-9.47-4.07a28.46,28.46,0,0,1-7.74-2.72,10.94,10.94,0,0,1-5.82-10.94,11.18,11.18,0,0,1,7.64-9.94c11.54-4.07,15.54,2.28,18.76,7.38,3.62,5.75,6.24,9.91,18.2,2.88l1.66,2.82c-14.7,8.64-18.91,1.95-22.64-4-3.12-5-5.82-9.24-14.95-6a8,8,0,0,0-5.4,7.12,7.62,7.62,0,0,0,4.08,7.76l.08,0a25.41,25.41,0,0,0,6.91,2.39c3.66.9,7.45,1.83,10.82,4.76,5.59,4.41,7.67,11.32,5,16.81C171.85,141.9,168.48,144.76,163.14,144.76Z"/><path class="cls-9" d="M163.14,145h0a17.84,17.84,0,0,1-3.94-.47l-.11,0c-6.32-1.84-9.79-5.78-12.57-8.94-2.23-2.52-3.57-4-5.2-4-2.22,0-6.6,3.58-12,9.81l-.2.24-2-3.32.11-.12c6.29-7.24,10.5-10.33,14.07-10.34,3.42,0,5.65,2.53,8,5.21,2.58,2.94,5.52,6.27,10.76,7.81,4.73,1.06,8.51-.28,10.08-3.59s.73-8.79-4.09-12.57l-.07-.06c-2.74-2.4-6-3.19-9.39-4a28.92,28.92,0,0,1-7.8-2.74,11.16,11.16,0,0,1-5.92-11.16,11.39,11.39,0,0,1,7.8-10.14c11.69-4.12,15.75,2.31,19,7.48,1.79,2.84,3.33,5.29,5.86,6.14,2.75.93,6.58-.13,12-3.34l.2-.11,1.89,3.21-.2.12c-14.88,8.75-19.16,2-22.94-4-3.07-4.87-5.72-9.08-14.69-5.93a7.75,7.75,0,0,0-5.24,6.93,7.39,7.39,0,0,0,3.95,7.53l.09.05A25.53,25.53,0,0,0,157.5,117c3.69.9,7.51,1.84,10.92,4.81,5.66,4.47,7.77,11.5,5.11,17.08C171.72,142.71,167.83,145,163.14,145Zm-21.83-13.84c1.84,0,3.24,1.48,5.55,4.1,2.75,3.12,6.17,7,12.35,8.8l.09,0a17.51,17.51,0,0,0,3.84.45c4.51,0,8.24-2.18,10-5.82,2.56-5.39.51-12.18-5-16.53-3.34-2.9-7.1-3.83-10.74-4.72a26.09,26.09,0,0,1-7-2.41l-.07,0a7.83,7.83,0,0,1-4.2-8,8.2,8.2,0,0,1,5.56-7.32c9.3-3.27,12,1.08,15.22,6.12,1.87,3,3.81,6,7.09,7.34,3.72,1.47,8.64.38,15-3.35l-1.43-2.43c-5.48,3.19-9.36,4.23-12.22,3.26-2.68-.9-4.26-3.41-6.09-6.32-3.18-5-7.13-11.3-18.49-7.3a11,11,0,0,0-7.49,9.75A10.73,10.73,0,0,0,149,117.5a28.55,28.55,0,0,0,7.69,2.7c3.48.85,6.76,1.66,9.57,4.12l.07.05c5,3.93,5.9,9.58,4.21,13.13s-5.63,4.95-10.6,3.84c-5.39-1.59-8.37-5-11-8-2.29-2.61-4.46-5.06-7.65-5.06-3.42,0-7.5,3-13.64,10l1.49,2.49C132.44,137.13,138.17,131.15,141.31,131.15Z"/></g><g id="path19-2" data-name="path19"><path class="cls-9" d="M180.29,106.49l4.79,9.72,7-7.87-1.26-2.5Z"/><path class="cls-9" d="M185,116.61l-5.09-10.33L191,105.6l1.4,2.78Zm-4.38-9.91,4.49,9.1,6.71-7.5-1.13-2.22Z"/></g><path class="cls-9" d="M164.54,154.46l-1.6,0,0-7.19c.42,0,.84,0,1.27,0Zm4.76-.52-1.25-7.07,1.26-.25,1.55,7C170.34,153.74,169.82,153.85,169.3,153.94Zm-11.14.21c-.53-.07-1-.15-1.57-.25l1.3-7.07,1.26.21Zm17.31-1.88L173,145.54l1.2-.48,2.78,6.63C176.46,151.89,176,152.08,175.47,152.27Zm-23.53.44c-.51-.17-1-.35-1.52-.54l2.57-6.71c.39.15.79.29,1.19.42Zm29.3-3.19-3.68-6.17c.37-.22.73-.45,1.08-.68l4,6Zm-35.17.65c-.47-.25-.93-.52-1.39-.8l3.72-6.14c.36.22.73.43,1.1.63Zm40.33-4.37-4.7-5.44.94-.85,5,5.21C187.2,145.09,186.8,145.45,186.4,145.8Zm-45.64.83c-.42-.33-.82-.67-1.22-1l4.74-5.4c.32.28.65.56,1,.82Zm50.07-5.43-5.6-4.51c.27-.33.53-.67.79-1l5.78,4.26C191.49,140.36,191.17,140.79,190.83,141.2Zm-54.67,1q-.53-.6-1-1.23l5.63-4.46c.26.33.53.66.81,1Zm58.22-6.32-6.31-3.44c.2-.37.4-.75.58-1.13l6.46,3.15C194.88,135,194.63,135.42,194.38,135.89Zm2.54-5.86-6.82-2.26c.13-.4.26-.81.37-1.22l6.92,1.94C197.24,129,197.09,129.52,196.92,130Zm-67.25,1.25c-.19-.5-.36-1-.53-1.52l6.85-2.19C136.12,128,129.67,131.28,129.67,131.28Zm68.7-7.48-7.12-1c.06-.41.11-.84.15-1.26l7.15.67C198.51,122.74,198.44,123.27,198.37,123.8ZM128,125.11c-.09-.52-.17-1-.24-1.57l7.12-1c.06.43.12.85.2,1.27Zm70.69-7.69-7.18.3c0-.43,0-.85-.08-1.28l7.15-.74v.13C198.62,116.36,198.66,116.89,198.68,117.42Zm-64.05,1.35h-7.19c0-.53,0-1.07,0-1.6l7.18.34C134.64,117.92,134.63,118.35,134.63,118.77Zm56.19-6.23c-.1-.42,6.62-3.13,6.62-3.13.14.51.27,1,.39,1.55Zm-55.73,1.16L128,112.4q.15-.78.33-1.56l7,1.61C135.25,112.86,135.17,113.28,135.09,113.7Zm1.37-4.91-6.72-2.55c.19-.5.39-1,.6-1.48l6.6,2.85C136.77,108,136.61,108.39,136.46,108.79Zm50.38-5.58c-.23-.35-.47-.7-.72-1l5.81-4.23c.31.43.61.87.91,1.31Zm-48.15,1-6.16-3.7c.28-.46.56-.91.86-1.35l6,4C139.13,103.48,138.91,103.84,138.69,104.2Zm45-5c-.3-.31-.6-.61-.91-.91l5-5.19c.39.37.76.75,1.13,1.13Zm-42,.86-5.4-4.75q.52-.6,1.08-1.17l5.18,5C142.27,99.45,142,99.77,141.7,100.09Zm38.12-4.23c-.34-.25-.69-.49-1-.73l4-6c.45.29.89.6,1.32.91Zm-34.43.71L140.92,91c.41-.34.84-.66,1.27-1l4.21,5.82C146.06,96.05,145.72,96.3,145.39,96.57Zm30.06-3.33c-.38-.19-.76-.37-1.15-.53l2.83-6.61c.49.21,1,.44,1.46.67Zm-25.8.53-3.4-6.33c.46-.26.94-.5,1.42-.73l3.11,6.48C150.4,93.37,150,93.56,149.65,93.77Zm21-2.33c-.41-.12-.83-.22-1.24-.32l1.61-7c.52.12,1,.25,1.55.39Zm-16.37.34-2.19-6.84,1.53-.46,1.89,6.94Q154.93,91.59,154.32,91.78Zm11.36-1.26c-.42,0-.85-.07-1.27-.09l.31-7.17c.54,0,1.07.06,1.6.1Zm-6.38.14-.94-7.12c.52-.07,1-.13,1.58-.18l.63,7.16C160.15,90.56,159.72,90.6,159.3,90.66Z"/><polygon class="cls-18" points="70.66 118.56 74.77 107 87.02 107 84.25 116.82 70.66 118.56"/><circle class="cls-18" cx="79.02" cy="100.44" r="9.4" transform="translate(-36.89 154.27) rotate(-76.72)"/><path class="cls-18" d="M87.45,96.29c2.18,4.42,2.54,11.52.29,14.6s-5.21-.24-5.86-1.9c0,0-2-1.85-1.72-3.31.38-1.71,2.59-1.46,2.9.41"/><path class="cls-19" d="M82.08,104.68c1,.52,1.38,2,2.62,1.78.92-.17,1.18-1.28,1-2s-.39-1.87,0-2.39,1.83-1.52.94-2.8,1-2.53,1.24-4.06c.5-2.78-3-7.48-9.55-6.21-8.07,1.57-7.69,7.14-7.69,7.14a5,5,0,0,0-2.43,3.16c-.74,2.2.06,4.68,2.77,7.3s2.06,3.39,1.52,4-.18,1.43,1.85,1.55,6.54,0,6.76-3.94a5.44,5.44,0,0,1-1-1.88A1.38,1.38,0,0,1,82.08,104.68Z"/><path class="cls-9" d="M70.55,115.8c.15-.1,2.43-1.16,7.8-1.16a53.2,53.2,0,0,1,7,.5h.07l.8,1.8-17.25,2.13Z"/><path class="cls-18" d="M98.81,110.78a4.81,4.81,0,0,0-2.87-1H94.53l-3-.85a1.33,1.33,0,0,0-1.27.29c-.84.74-2.4,2.14-3.17,2.85-.18.17,0,.55.22.6a2.34,2.34,0,0,0,2-.4l.17-.13,1.26,1.48a9.66,9.66,0,0,1,1.81,3.18c1.65,4.83,4.77,4.2,6.53,5.48L103,114C101.22,112.61,99.77,111.5,98.81,110.78Zm-7.48.77,1.18.39.18.84Z"/><path class="cls-20" d="M99.09,117.76c-.43.54-2.86.11-5.53.8v.35c1.72,2.59,4.09,2.35,5.54,3.41L103,114A15.16,15.16,0,0,0,99.09,117.76Z"/><path class="cls-9" d="M66.4,179.36c-10.32-4.92-19.91-21-20.61-26-.64-4.62,8.8-30.66,20.78-33.83l.17,0-2.35,27c-4.8,4.89-5.46,7.84-5.47,7.87-.33,4.19,10.77,15.72,10.89,15.83l0,.06-3.34,9.25Z"/><path class="cls-20" d="M66.67,167.76a41.71,41.71,0,0,1-1.24,11c.34.18.68.36,1,.52l3.27-9.05s-1.4-1.44-3.19-3.5A9.27,9.27,0,0,1,66.67,167.76Z"/><path class="cls-20" d="M64.27,146.39l1.86-16.47c-6.74,1.28-8.45,6.47-7.12,10.77,1.45,4.71,1.7,5.21,2.81,8.42A33.84,33.84,0,0,1,64.27,146.39Z"/><path class="cls-9" d="M66.71,194.25c-2.23-5.33-1.46-9.39-.56-14.1,1.07-5.56,2.27-11.85-.93-22.16-3.37-10.84-5.48-19.75-6.65-25.31a11.37,11.37,0,0,1,8-13.19,68.27,68.27,0,0,1,18.33-2.8A40.64,40.64,0,0,1,95.36,118a11.2,11.2,0,0,1,8.12,8.56c.23,1.06.51,2.27.82,3.64,2.54,11,7.27,31.49,5.48,64v.12h-43Z"/><path class="cls-21" d="M66.82,194.2C62,182.7,71.29,177.11,65.34,158c-3.27-10.51-5.37-19.24-6.65-25.31"/><path class="cls-14" d="M99.42,142.69s6.84,25.91,1.77,51.51"/><path class="cls-20" d="M93.87,140c5,5.28,14.74,15.5,14.74,15.5a115.44,115.44,0,0,0-2.81-16.79Z"/><path class="cls-14" d="M78.52,194.21A21.15,21.15,0,0,1,78,180.39c4.1-12.95-16.42-58.11-5.71-62.18"/><path class="cls-9" d="M99,122.39v-.06a10.06,10.06,0,0,1,4-8.39l.07,0,.07,0c.86.64,20.86,15.64,18,26.1l-.06.19Z"/><path class="cls-20" d="M99.1,122.32l7,5.71,6.86-.27a102.9,102.9,0,0,0-12.87-10.25A9.66,9.66,0,0,0,99.1,122.32Z"/><path class="cls-9" d="M110.77,144.8c-6,0-12.94-1.93-16.89-4.69-4.95-3.47-6.75-12.66-5-18.26.86-2.74,2.49-4.25,4.58-4.25l.49,0c7.1.75,20.62,9.59,25.37,16.58,1.56,2.29,2.12,4.25,1.69,5.83-.84,3-4.58,4.76-10.26,4.76Z"/><path class="cls-14" d="M88.72,130.48c.71,3.86,2.46,7.58,5.24,9.53,7.4,5.18,25,7.18,27,0"/><path class="cls-14" d="M116,130.48c-6.15-6.13-16.42-12.13-22.05-12.72"/><path class="cls-14" d="M120.91,140c2.92-10.51-17.9-26-17.9-26a9.93,9.93,0,0,0-3.59,5.3"/><path class="cls-21" d="M66.6,119.61c6-1.74,14.16-3.3,22.14-2.64"/><path class="cls-9" d="M67.75,275a6.25,6.25,0,0,1-3.42-.82l0,0v-.06c-2.79-25.17-.1-35.29,1.5-41.33.35-1.33.65-2.48.84-3.55,1.11-6.39,1.68-31.54,1.69-31.8a21.93,21.93,0,0,1-1.6-3.12l-.07-.17H86.11v9.36l-10.92,70-.07,0A23.4,23.4,0,0,1,67.75,275Z"/><polygon class="cls-20" points="81.53 196.67 80.89 236.1 85.98 203.44 85.98 196.67 81.53 196.67"/><path class="cls-9" d="M90.09,276.39c-2.47,0-4.49-.82-5.55-2.24.08-11.21.92-31.47,5.28-42,3.39-8.24-4.79-31.16-5.25-32.42a14.52,14.52,0,0,1-6.15-5.4l-.13-.2h28.36v.13a646.67,646.67,0,0,1-10,80,10.24,10.24,0,0,1-6.57,2.2Z"/><path class="cls-20" d="M106.51,194.2H66.83c.19.48.42,1,.67,1.45h38.93C106.46,195.17,106.49,194.68,106.51,194.2Z"/><path class="cls-22" d="M104.65,279.24a5.1,5.1,0,0,0-1.82-1.66l-6.3-3.41c-3,2.54-9.54,3.07-11.89-.09,0,2,0,3.69,0,5a2.55,2.55,0,0,0,2.56,2.52h17.57a.77.77,0,0,0,.64-1.2Z"/><path class="cls-23" d="M64.4,274q.34,3.06.79,6.44a1.25,1.25,0,0,0,1.23,1.08H76.86a1.24,1.24,0,0,0,1.2-1.58,48,48,0,0,0-3-6.67C71.65,274.5,66.92,275.66,64.4,274Z"/><path class="cls-14" d="M80.23,196.67a11.34,11.34,0,0,0,4.44,2.91s8.79,24,5.26,32.56"/><path class="cls-17" d="M101.19,194.2c-.6,26.85-3,44.63-9.11,81.89"/><line class="cls-17" x1="100.83" y1="205.01" x2="103.06" y2="194.2"/><line class="cls-17" x1="83.43" y1="207.65" x2="74.11" y2="273.63"/><path class="cls-1" d="M160,28.83l1,2.79a9.16,9.16,0,0,0,5.43,5.43l2.79,1-2.79,1a9.21,9.21,0,0,0-5.43,5.44l-1,2.78-1-2.78a9.22,9.22,0,0,0-5.44-5.44l-2.78-1,2.78-1A9.18,9.18,0,0,0,159,31.62Z"/><path class="cls-1" d="M265.17,72.36l1,2.78a9.25,9.25,0,0,0,5.44,5.44l2.78,1-2.78,1a9.21,9.21,0,0,0-5.44,5.43l-1,2.79-1-2.79a9.16,9.16,0,0,0-5.43-5.43l-2.78-1,2.78-1a9.21,9.21,0,0,0,5.43-5.44Z"/><path class="cls-1" d="M47.26,176.42l1,2.78a9.16,9.16,0,0,0,5.43,5.43l2.79,1-2.79,1a9.21,9.21,0,0,0-5.43,5.44l-1,2.78-1-2.78a9.22,9.22,0,0,0-5.44-5.44l-2.78-1,2.78-1a9.18,9.18,0,0,0,5.44-5.43Z"/><path class="cls-1" d="M240.7,117.79l.67,1.81a5.94,5.94,0,0,0,3.52,3.52l1.81.67-1.81.67a6,6,0,0,0-3.52,3.53l-.67,1.81L240,128a6,6,0,0,0-3.53-3.53l-1.81-.67,1.81-.67A6,6,0,0,0,240,119.6Z"/><path class="cls-1" d="M232.08,134l.29.79a2.6,2.6,0,0,0,1.54,1.54l.78.29-.78.29a2.56,2.56,0,0,0-1.54,1.53l-.29.79-.29-.79a2.56,2.56,0,0,0-1.54-1.53l-.78-.29.78-.29a2.6,2.6,0,0,0,1.54-1.54Z"/><path class="cls-1" d="M118.7,179.28l.29.79a2.57,2.57,0,0,0,1.53,1.53l.79.29-.79.29a2.59,2.59,0,0,0-1.53,1.54l-.29.78-.29-.78a2.63,2.63,0,0,0-1.54-1.54l-.78-.29.78-.29a2.61,2.61,0,0,0,1.54-1.53Z"/><path class="cls-1" d="M255.93,144.43l.29.79a2.61,2.61,0,0,0,1.53,1.54l.79.29-.79.29a2.57,2.57,0,0,0-1.53,1.53l-.29.79-.3-.79a2.57,2.57,0,0,0-1.53-1.53l-.79-.29.79-.29a2.61,2.61,0,0,0,1.53-1.54Z"/><path class="cls-1" d="M38,165.83l.29.79a2.61,2.61,0,0,0,1.53,1.54l.79.29-.79.29a2.57,2.57,0,0,0-1.53,1.53l-.29.79-.29-.79a2.56,2.56,0,0,0-1.54-1.53l-.78-.29.78-.29a2.6,2.6,0,0,0,1.54-1.54Z"/><path class="cls-1" d="M183.4,45.6l.29.79a2.61,2.61,0,0,0,1.54,1.53l.78.29-.78.29A2.66,2.66,0,0,0,183.69,50l-.29.78-.29-.78a2.61,2.61,0,0,0-1.53-1.54l-.79-.29.79-.29a2.57,2.57,0,0,0,1.53-1.53Z"/><path class="cls-1" d="M175.23,240.2a38.49,38.49,0,0,1,.08,14.66,45.54,45.54,0,0,1-1.76,6.49c-.37,1-.74,2-1.13,2.91s-.84,1.81-1.27,2.65a41.32,41.32,0,0,1-2.6,4.45,37.41,37.41,0,0,1-2.37,3.26c-1.42,1.75-2.35,2.68-2.35,2.68s-.84-1.06-2.1-2.86c-.62-.92-1.36-2-2.19-3.21s-1.67-2.59-2.62-4.05c-.46-.73-.92-1.49-1.37-2.27s-1-1.58-1.42-2.4c-.9-1.64-1.88-3.34-2.7-5.11a44.71,44.71,0,0,1-4.94-23.22c0-2,.23-3.91.38-5.77.09-.94.21-1.86.33-2.77s.21-1.77.33-2.63c.27-1.72.49-3.31.75-4.77s.49-2.73.69-3.82c.41-2.15.75-3.47.75-3.47s1.23.47,3.23,1.5a34.19,34.19,0,0,1,3.49,2,42.31,42.31,0,0,1,4.2,3c.73.59,1.47,1.22,2.23,1.9s1.47,1.42,2.22,2.2a45.07,45.07,0,0,1,4.25,5.21A38.67,38.67,0,0,1,175.23,240.2Z"/><path class="cls-24" d="M170.69,228.93l-.4-.67c-.55,1-1.24,2.27-2,3.78s-1.56,3.26-2.28,5.14a44.26,44.26,0,0,0-3.2,12.69,119,119,0,0,0-2.66-12.71,18,18,0,0,1-.48-2.56,19.77,19.77,0,0,1-.21-2.53,31.61,31.61,0,0,1,.36-4.91,44.65,44.65,0,0,1,1-4.54c.39-1.42.86-2.75,1.26-3.9l-.53-.46c-1.32,3.68-2.9,8.92-2.71,14.28a125.37,125.37,0,0,0-8.71-21.4l-.45-.19h0l-.12.49a125.73,125.73,0,0,1,8.67,21.29,22.23,22.23,0,0,0-10.89-8.6l-.08.63a23.39,23.39,0,0,1,3.46,1.7,20.44,20.44,0,0,1,3.59,2.61,17.48,17.48,0,0,1,3.14,3.62,19.33,19.33,0,0,1,1.23,2.19,17.11,17.11,0,0,1,.85,2.44A118.89,118.89,0,0,1,162.22,250a24.26,24.26,0,0,0-7.76-9.88,33.76,33.76,0,0,0-4.42-2.82,35.37,35.37,0,0,0-3.59-1.61v.65a30.17,30.17,0,0,1,9.46,5.83,21.2,21.2,0,0,1,7,13.1c.2,1.72.34,3.45.49,5.18s.24,3.45.25,5.19A25.33,25.33,0,0,0,155.19,253a31.08,31.08,0,0,0-7.2-4.44l.22.74a28.5,28.5,0,0,1,3.65,2,29.42,29.42,0,0,1,5.23,4.25c3.52,3.59,6.72,9,6.64,15.31,0,2-.12,4-.21,6l.31.39.33-.35c.09-2,.22-4,.21-6,.08-6.29,2.42-12,5-16.75,1.27-2.37,2.64-4.49,3.77-6.2s2.17-3,2.7-3.69l-.11-1a68.62,68.62,0,0,0-5.21,7.54,47.73,47.73,0,0,0-6.18,14.71c0-1.74-.18-3.48-.26-5.22s-.29-3.47-.49-5.2a35,35,0,0,1,2.14-15.29A73.11,73.11,0,0,1,170.69,228.93Z"/><path class="cls-25" d="M210.64,240.52c.55.88,2.18,1.78,4,3.32a15.56,15.56,0,0,1,4.78,6.7,21.15,21.15,0,0,1,.62,10.28c-.49,2.93-1.31,5.13-1.28,6.49,0-1.37-1-3.53-2.2-6a70.17,70.17,0,0,1-3.8-8.49,28.55,28.55,0,0,1-1.24-7.34C211.34,243.25,211.19,241.41,210.64,240.52Z"/><path class="cls-25" d="M286.56,228.69c-1.08,1.15-2.16,3.51-3.35,6.5a100.73,100.73,0,0,1-4.58,10.21c-1.2,2.28-2.42,4.43-3.58,6.48s-2.27,4-3.21,5.81c-1.92,3.62-3.28,6.75-3.56,8.79.28-2-.11-5.41.18-9.73a39.82,39.82,0,0,1,1.07-7,35,35,0,0,1,2.9-7.63,27.87,27.87,0,0,1,8-9.07C283.13,231,285.49,229.83,286.56,228.69Z"/><path class="cls-25" d="M206,247.82c-.3.6,0,1.94.32,3.47a10.92,10.92,0,0,1,.25,4.87,20.37,20.37,0,0,1-2.6,5.41c-1,1.62-1.81,3.06-1.76,3.95,0-.88-1-2.24-1.75-4.16a11.33,11.33,0,0,1-.71-6.9,8.18,8.18,0,0,1,3.33-4.51C204.43,249,205.7,248.42,206,247.82Z"/><path class="cls-25" d="M151.58,227.24c-.67,1.34-1,3.8-1.2,6.85a84.36,84.36,0,0,1-1.31,10.51c-1,4.77-2.18,9.13-3,13s-1.31,7-1,8.94c-.27-1.93-1.56-4.89-2.49-8.9a37.28,37.28,0,0,1-.95-6.69,31.8,31.8,0,0,1,.58-7.72,25.82,25.82,0,0,1,4.92-10.38C149.05,230.23,150.91,228.57,151.58,227.24Z"/><path class="cls-25" d="M132.17,241.59c.37.84,1.78,1.79,3.29,3.28a13.64,13.64,0,0,1,3.84,6.21,19.37,19.37,0,0,1-.05,9.11c-.58,2.59-1.37,4.56-1.33,5.77,0-1.22-1-3.11-2.16-5.35a38.1,38.1,0,0,1-3.25-7.75,19.49,19.49,0,0,1-.33-6.73C132.36,244.11,132.55,242.43,132.17,241.59Z"/><path class="cls-25" d="M61.79,229.89c-.59,1.16-.76,3.35-.87,6a52.85,52.85,0,0,1-1,9.16c-.88,4.11-2.1,7.85-3,11.15s-1.48,6.08-1.27,7.76c-.21-1.67-1.39-4.26-2.25-7.78a27.91,27.91,0,0,1-.36-12.63,21.08,21.08,0,0,1,4.59-9C59.47,232.43,61.2,231,61.79,229.89Z"/><path class="cls-1" d="M83,20.92l1,2.79a9.21,9.21,0,0,0,5.44,5.43l2.78,1-2.78,1A9.22,9.22,0,0,0,84,36.64l-1,2.78-1-2.78a9.18,9.18,0,0,0-5.43-5.44l-2.78-1,2.78-1A9.16,9.16,0,0,0,82,23.71Z"/><path class="cls-1" d="M56.51,18.69l.67,1.81A5.94,5.94,0,0,0,60.7,24l1.81.67-1.81.67a6,6,0,0,0-3.52,3.53l-.67,1.81-.67-1.81a6,6,0,0,0-3.53-3.53l-1.81-.67L52.31,24a6,6,0,0,0,3.53-3.52Z"/><path class="cls-1" d="M99.42,18.31l.29.79a2.61,2.61,0,0,0,1.54,1.53l.78.29-.78.3a2.61,2.61,0,0,0-1.54,1.53l-.29.79-.29-.79a2.57,2.57,0,0,0-1.53-1.53l-.79-.3.79-.29a2.57,2.57,0,0,0,1.53-1.53Z"/><path class="cls-1" d="M114.7,30.17,115,31a2.57,2.57,0,0,0,1.53,1.53l.79.29-.79.3A2.57,2.57,0,0,0,115,34.61l-.29.79-.29-.79a2.61,2.61,0,0,0-1.54-1.53l-.78-.3.78-.29A2.61,2.61,0,0,0,114.41,31Z"/></g></svg>