<svg xmlns="http://www.w3.org/2000/svg" width="50" height="50.01" viewBox="0 0 50 50.01">
  <g id="Group_309" data-name="Group 309" transform="translate(-281.303 -77.05)">
    <path id="Path_382" data-name="Path 382" d="M331.3,101.918q0,8.545.006,17.091a2.4,2.4,0,0,1-.388,1.342c-1.216,1.923-2.416,3.856-3.625,5.783a1.491,1.491,0,0,1-2.756.009c-1.2-1.913-2.389-3.838-3.6-5.746a2.631,2.631,0,0,1-.414-1.472q.012-14.234.006-28.468c0-1.845-.014-3.689,0-5.534a4.526,4.526,0,0,1,3.5-4.584,8.489,8.489,0,0,1,3.763,0,4.538,4.538,0,0,1,3.5,4.538Q331.3,93.4,331.3,101.918Zm-5.389,20.9c.78-1.247,1.522-2.41,2.236-3.59a1.5,1.5,0,0,0,.208-.746q.017-13.5.008-26.991c0-.158-.013-.316-.02-.48a1.46,1.46,0,0,0-.211-.035c-1.442,0-2.884,0-4.327-.01-.329,0-.352.171-.35.423.008,1.041.006,2.082.006,3.123q0,12,0,24a.973.973,0,0,0,.074.474C324.3,120.238,325.079,121.483,325.908,122.813Zm2.441-34.78c0-1.2.037-2.328-.013-3.453a1.584,1.584,0,0,0-1.554-1.449c-.578-.027-1.16-.026-1.738,0a1.609,1.609,0,0,0-1.572,1.578c-.032,1-.009,1.991-.019,2.987,0,.251.1.343.343.336.431-.011.862,0,1.293,0Z" fill="#2811ca"/>
    <path id="Path_383" data-name="Path 383" d="M312.631,124.093H284.278V83.121h3.292c0,.572-.012,1.115,0,1.658a1.467,1.467,0,0,0,1.038,1.41,1.378,1.378,0,0,0,1.581-.521,2.052,2.052,0,0,0,.3-.908c.048-.514.013-1.036.013-1.6h3.353c0,.526-.015,1.068,0,1.61a1.463,1.463,0,1,0,2.925,0c.02-.531,0-1.064,0-1.621h3.344c0,.518,0,1.019,0,1.519a1.467,1.467,0,0,0,1.447,1.585,1.486,1.486,0,0,0,1.486-1.6c.005-.489,0-.977,0-1.5H306.4c0,.49,0,.975,0,1.46a1.477,1.477,0,1,0,2.937,0c0-.474,0-.949,0-1.458h3.3ZM298.439,91.168v0q-4.638,0-9.277,0a1.468,1.468,0,1,0-.012,2.927q9.3.006,18.6,0a1.94,1.94,0,0,0,.694-.132,1.436,1.436,0,0,0,.868-1.593,1.483,1.483,0,0,0-1.55-1.2Q303.1,91.164,298.439,91.168Zm-.041,21.76v0h6.29c1.07,0,2.141.014,3.211-.016a1.438,1.438,0,0,0,1.431-1.421,1.475,1.475,0,0,0-1.408-1.5c-.177-.014-.356-.007-.535-.007L291.152,110c-.7,0-1.4-.019-2.1,0a1.432,1.432,0,0,0-1.344.873,1.362,1.362,0,0,0,.193,1.5,1.6,1.6,0,0,0,1.351.556Q293.827,112.922,298.4,112.928Zm.068-15.477v0h-4.46c-1.636,0-3.271-.006-4.907.01a1.452,1.452,0,0,0-1.432,1.95,1.51,1.51,0,0,0,1.549.97q8.676,0,17.352,0c.46,0,.923.021,1.382-.006a1.455,1.455,0,0,0,.28-2.866,2.879,2.879,0,0,0-.664-.052Q303.016,97.448,298.466,97.451Zm-.073,9.2v0h2.453c2.319,0,4.638,0,6.957-.008a1.45,1.45,0,0,0,1.528-1.461,1.47,1.47,0,0,0-1.536-1.459c-.089,0-.178,0-.267,0H289.377c-.149,0-.3,0-.446.009a1.45,1.45,0,0,0-1.23,2.019,1.48,1.48,0,0,0,1.505.9Q293.8,106.642,298.393,106.648Z" fill="#fff"/>
    <rect id="Rectangle_1513" data-name="Rectangle 1513" width="28.352" height="4.646" transform="translate(284.279 83.121)" fill="#f8cd16"/>
    <path id="Path_384" data-name="Path 384" d="M287.57,80.185c0-.559-.006-1.048,0-1.538a1.472,1.472,0,1,1,2.934.01c0,.488,0,.976,0,1.5h3.345c0-.427-.011-.853,0-1.279a3.23,3.23,0,0,1,.093-.836,1.448,1.448,0,0,1,1.53-.978,1.423,1.423,0,0,1,1.28,1.284c.044.589.009,1.184.009,1.841h3.367c0-.509,0-.993,0-1.478a1.483,1.483,0,0,1,1.472-1.653,1.515,1.515,0,0,1,1.464,1.676c0,.46,0,.921,0,1.418H306.4c0-.538-.017-1.1,0-1.654a1.46,1.46,0,0,1,2.028-1.323,1.4,1.4,0,0,1,.9,1.326c.015.546,0,1.092,0,1.686h.481q2.031,0,4.061,0A1.507,1.507,0,0,1,315.6,81.9q0,9.507,0,19.012,0,12.206,0,24.411a1.491,1.491,0,0,1-1.1,1.669,2.241,2.241,0,0,1-.574.053q-15.486,0-30.971,0a1.487,1.487,0,0,1-1.656-1.652q0-21.778,0-43.556a1.494,1.494,0,0,1,1.661-1.652c1.354,0,2.708,0,4.061,0Zm25.061,43.908V83.157h-3.3c0,.509,0,.984,0,1.458a1.477,1.477,0,1,1-2.937,0c0-.485,0-.97,0-1.46h-3.328c0,.519,0,1.007,0,1.5a1.486,1.486,0,0,1-1.486,1.6,1.467,1.467,0,0,1-1.447-1.585c0-.5,0-1,0-1.519H296.79c0,.557.016,1.09,0,1.621a1.463,1.463,0,1,1-2.925,0c-.019-.542,0-1.084,0-1.61H290.5c0,.561.035,1.083-.013,1.6a2.052,2.052,0,0,1-.3.908,1.378,1.378,0,0,1-1.581.521,1.467,1.467,0,0,1-1.038-1.41c-.015-.543,0-1.086,0-1.658h-3.292v40.972Z" fill="#2811ca"/>
    <path id="Path_385" data-name="Path 385" d="M325.908,122.813c-.829-1.33-1.612-2.575-2.377-3.83a.973.973,0,0,1-.074-.474q0-12,0-24c0-1.041,0-2.082-.006-3.123,0-.252.021-.426.35-.423,1.443.013,2.885.007,4.327.01a1.46,1.46,0,0,1,.211.035c.007.164.02.322.02.48q0,13.5-.008,26.991a1.5,1.5,0,0,1-.208.746C327.43,120.4,326.688,121.566,325.908,122.813Z" fill="#f8cd16"/>
    <path id="Path_386" data-name="Path 386" d="M328.349,88.033h-3.26c-.431,0-.862-.009-1.293,0-.247.007-.346-.085-.343-.336.01-1-.013-1.992.019-2.987a1.609,1.609,0,0,1,1.572-1.578c.578-.029,1.16-.03,1.738,0a1.584,1.584,0,0,1,1.554,1.449C328.386,85.705,328.349,86.833,328.349,88.033Z" fill="#fff"/>
    <path id="Path_387" data-name="Path 387" d="M298.439,91.168q4.662,0,9.323,0a1.483,1.483,0,0,1,1.55,1.2,1.436,1.436,0,0,1-.868,1.593,1.94,1.94,0,0,1-.694.132q-9.3.011-18.6,0a1.468,1.468,0,1,1,.012-2.927q4.638-.011,9.277,0Z" fill="#2811ca"/>
    <path id="Path_388" data-name="Path 388" d="M298.4,112.928q-4.572,0-9.143,0a1.6,1.6,0,0,1-1.351-.556,1.362,1.362,0,0,1-.193-1.5,1.432,1.432,0,0,1,1.344-.873c.7-.021,1.4,0,2.1,0l16.235-.005c.179,0,.358-.007.535.007a1.475,1.475,0,0,1,1.408,1.5,1.438,1.438,0,0,1-1.431,1.421c-1.07.03-2.141.015-3.211.016H298.4Z" fill="#2811ca"/>
    <path id="Path_389" data-name="Path 389" d="M298.466,97.451q4.551,0,9.1,0a2.879,2.879,0,0,1,.664.052,1.455,1.455,0,0,1-.28,2.866c-.459.027-.922.006-1.382.006q-8.676,0-17.352,0a1.51,1.51,0,0,1-1.549-.97,1.452,1.452,0,0,1,1.432-1.95c1.636-.016,3.271-.009,4.907-.01h4.46Z" fill="#2811ca"/>
    <path id="Path_390" data-name="Path 390" d="M298.393,106.648q-4.593,0-9.187,0a1.48,1.48,0,0,1-1.505-.9,1.45,1.45,0,0,1,1.23-2.019c.147-.014.3-.009.446-.009h18.151c.089,0,.178,0,.267,0a1.47,1.47,0,0,1,1.536,1.459,1.45,1.45,0,0,1-1.528,1.461c-2.319.011-4.638.006-6.957.008h-2.453Z" fill="#2811ca"/>
  </g>
</svg>
