<?xml version="1.0" encoding="UTF-8" standalone="no"?>
<svg
   xmlns:dc="http://purl.org/dc/elements/1.1/"
   xmlns:cc="http://creativecommons.org/ns#"
   xmlns:rdf="http://www.w3.org/1999/02/22-rdf-syntax-ns#"
   xmlns:svg="http://www.w3.org/2000/svg"
   xmlns="http://www.w3.org/2000/svg"
   width="16"
   height="16"
   viewBox="0 0 16 16"
   id="svg2"
   version="1.1">
  <defs
     id="defs4" />
  <metadata
     id="metadata7">
    <rdf:RDF>
      <cc:Work
         rdf:about="">
        <dc:format>image/svg+xml</dc:format>
        <dc:type
           rdf:resource="http://purl.org/dc/dcmitype/StillImage" />
        <dc:title></dc:title>
      </cc:Work>
    </rdf:RDF>
  </metadata>
  <g
     style="fill:#ffffff"
     id="layer1"
     transform="matrix(1.1429152,0,0,1.1429152,-1.1414135,-1185.6178)">
    <path
       style="fill:#ffffff"
       d="m 6.9421243,1051.352 c -0.039569,-0.011 -0.054329,-0.049 -0.054329,-0.1354 0,-0.091 0.034493,-0.1706 0.1432247,-0.3315 0.3121027,-0.462 0.3579977,-0.8181 0.2793885,-2.1686 -0.032245,-0.5538 -0.045257,-1.0313 -0.032154,-1.179 l 0.022027,-0.2484 -0.064695,0.058 c -0.179084,0.1592 -0.2188048,0.5682 -0.1466866,1.5104 0.05828,0.7615 0.047426,1.0721 -0.0483,1.382 -0.1341904,0.4346 -0.5930137,0.7277 -1.1402992,0.7287 -0.2287327,5e-4 -0.4704816,-0.053 -0.4920905,-0.1101 -0.032223,-0.084 0.090434,-0.2348 0.3076655,-0.3782 0.1492367,-0.099 0.2470944,-0.1893 0.2928021,-0.2715 0.1037753,-0.1864 0.1444316,-0.4963 0.1188511,-0.9057 -0.01216,-0.1946 -0.022106,-0.5067 -0.022106,-0.6936 l 0,-0.3398 -0.1443635,0.023 c -0.079398,0.012 -0.388851,0.022 -0.6876695,0.02 -0.5116352,0 -0.5577664,-0.011 -0.7913756,-0.087 -0.3269946,-0.1136 -0.5556239,-0.2561 -0.7638729,-0.4761 -0.2193486,-0.2316 -0.2739124,-0.3237 -0.4445093,-0.7509 -0.1893026,-0.4739 -0.293204,-0.6276 -0.5423682,-0.8016 -0.3575613,-0.2498 -0.5918084,-0.5178 -0.5174999,-0.5921 0.012259,-0.012 0.17131,-0.023 0.3534467,-0.023 0.2988147,0 0.3482102,0.011 0.5057603,0.086 0.2307026,0.1135 0.4050361,0.2708 0.7603417,0.687 0.360172,0.4219 0.5860617,0.62 0.8502029,0.7456 0.1878572,0.09 0.2243205,0.095 0.5277817,0.093 0.2667401,0 0.3813108,-0.02 0.6304159,-0.095 l 0.3044331,-0.092 0.085756,-0.2477 c 0.096157,-0.2777 0.2489962,-0.5257 0.4365957,-0.7083 l 0.1259587,-0.1227 -0.303728,-0.068 c -0.9415989,-0.2112 -1.7184369,-0.6075 -2.2733534,-1.1599 -0.5649206,-0.5625 -0.8804385,-1.208 -1.0069899,-2.0602 -0.1525907,-1.0276 0.082078,-2.0472 0.6499732,-2.8238 l 0.1764249,-0.2413 -0.05241,-0.1934 c -0.032336,-0.1193 -0.058541,-0.3669 -0.068419,-0.6468 -0.016963,-0.4804 0.01476,-0.7267 0.1500326,-1.1646 l 0.063843,-0.2066 0.3311774,0.016 c 0.5260842,0.025 1.0565648,0.2218 1.6749137,0.6214 l 0.2881707,0.1862 0.3172268,-0.065 c 0.6279305,-0.1287 0.8221074,-0.1446 1.7608667,-0.1442 0.9465493,3e-4 1.241663,0.027 1.8302016,0.1638 l 0.231331,0.053 0.246353,-0.1649 c 0.55614,-0.3723 1.15224,-0.5932 1.67107,-0.6195 l 0.331046,-0.017 0.07779,0.2463 c 0.122065,0.3864 0.155398,0.6162 0.152385,1.0507 -0.0019,0.2853 -0.02011,0.4728 -0.06187,0.6397 l -0.05907,0.2361 0.146999,0.1954 c 0.322743,0.429 0.5522,0.9404 0.67074,1.4947 0.08375,0.3916 0.075,1.2062 -0.0176,1.6408 -0.24829,1.1652 -0.949326,2.0352 -2.06621,2.5643 -0.341518,0.1618 -0.831747,0.3266 -1.197252,0.4025 -0.14514,0.031 -0.274636,0.064 -0.287771,0.075 -0.01314,0.011 0.06149,0.1381 0.165831,0.2821 0.375995,0.5188 0.415713,0.6593 0.41579,1.4725 3.2e-5,0.3244 -0.0067,0.9112 -0.01495,1.3039 -0.01638,0.7798 0.0022,0.9285 0.150653,1.2062 0.05479,0.1022 0.140774,0.1937 0.269034,0.2853 0.256123,0.1826 0.316299,0.2522 0.276093,0.3188 -0.05093,0.084 -0.293465,0.1923 -0.430189,0.1914 -0.433036,0 -0.963181,-0.3168 -1.1398641,-0.6754 -0.067863,-0.1379 -0.071996,-0.1805 -0.070077,-0.7209 0.00112,-0.3159 0.00806,-0.8537 0.015521,-1.1952 0.01172,-0.5395 0.0061,-0.6434 -0.04268,-0.7918 -0.030894,-0.094 -0.081056,-0.2039 -0.1114733,-0.2442 -0.053943,-0.072 -0.055805,-0.06 -0.075243,0.4658 -0.011013,0.2965 -0.034596,0.7766 -0.052501,1.0669 -0.03564,0.5776 -0.018711,1.0229 0.052467,1.3797 0.04612,0.2312 0.1068182,0.3664 0.3068196,0.6834 0.06586,0.1045 0.106852,0.2087 0.106852,0.2717 0,0.094 -0.0085,0.1034 -0.100903,0.1079 -0.4014681,0.02 -0.6443933,-0.049 -0.8623204,-0.2446 -0.3909231,-0.3515 -0.4958566,-0.8949 -0.4960314,-2.5687 -6.13e-5,-0.6876 -0.036742,-1.3653 -0.076151,-1.4071 -0.024082,-0.025 -0.118439,0.042 -0.1407791,0.1011 -0.014295,0.037 -0.013341,0.5002 0.00216,1.0281 0.031575,1.0784 0.00295,1.7112 -0.095941,2.1207 -0.1166542,0.483 -0.3476644,0.7968 -0.6704841,0.9105 -0.1571822,0.056 -0.5145589,0.094 -0.6097881,0.067 z"
       id="path4164" />
  </g>
</svg>
