<?xml version="1.0" encoding="UTF-8" standalone="no"?>
<svg
   xmlns:dc="http://purl.org/dc/elements/1.1/"
   xmlns:cc="http://creativecommons.org/ns#"
   xmlns:rdf="http://www.w3.org/1999/02/22-rdf-syntax-ns#"
   xmlns:svg="http://www.w3.org/2000/svg"
   xmlns="http://www.w3.org/2000/svg"
   width="16"
   height="16"
   viewBox="0 0 16 16"
   id="svg2"
   version="1.1">
  <defs
     id="defs4" />
  <metadata
     id="metadata7">
    <rdf:RDF>
      <cc:Work
         rdf:about="">
        <dc:format>image/svg+xml</dc:format>
        <dc:type
           rdf:resource="http://purl.org/dc/dcmitype/StillImage" />
        <dc:title></dc:title>
      </cc:Work>
    </rdf:RDF>
  </metadata>
  <g
     style="fill:#ffffff"
     id="layer1"
     transform="translate(0,-1036.3622)">
    <path
       style="fill:#ffffff"
       d="m 0.19988688,1046.8522 0,-5.16 1.71665922,0 1.7166605,0 0,5.16 0,5.16 -1.7166605,0 -1.71665922,0 0,-5.16 z m 5.32905022,4.5516 c 0.01608,-2.1987 0.0204,-3.4616 0.020651,-6.0316 2.72e-4,-2.8165 -0.00229,-3.2642 -0.020766,-3.6016 l -0.00434,-0.079 1.7176307,0 1.7176308,0 0.00171,0.7275 0.00171,0.7273 0.046628,-0.069 c 0.025646,-0.038 0.08608,-0.1215 0.1343069,-0.1857 0.5851107,-0.7785 1.3399285,-1.2458 2.2490605,-1.3926 0.501123,-0.081 1.091911,-0.066 1.603455,0.04 0.533426,0.1109 1.001204,0.3182 1.419865,0.6308 0.255436,0.1907 0.52553,0.4599 0.714726,0.7122 0.297743,0.397 0.523245,0.8828 0.665393,1.4334 0.09963,0.3858 0.146891,0.689 0.191166,1.2266 0.0056,0.069 0.0083,0.9506 0.0099,3.2816 l 0.0023,3.1883 -1.716663,0 -1.716662,0 -0.0022,-2.9216 c -0.0016,-2.1884 -0.0042,-2.9418 -0.01006,-3.0017 -0.03917,-0.3964 -0.08922,-0.6408 -0.182099,-0.8888 -0.133765,-0.3571 -0.34198,-0.627 -0.614402,-0.7961 -0.263855,-0.1639 -0.592546,-0.2408 -0.981464,-0.2296 -0.42629,0.013 -0.758415,0.1305 -1.0543047,0.3757 -0.086137,0.071 -0.2457122,0.2341 -0.3157256,0.3221 -0.1654759,0.2081 -0.3185918,0.4964 -0.3733345,0.703 -0.0356,0.1344 -0.055211,0.2709 -0.066651,0.4638 -0.00411,0.069 -0.00651,1.2098 -0.00663,3.0416 l -5.94e-5,2.9316 -1.717681,0 -1.717681,0 0.00446,-0.6083 z m -3.7490567,-11.1125 c -0.5243453,-0.019 -0.95880977,-0.2012 -1.2908587,-0.5401 -0.27537831,-0.2812 -0.43251595,-0.6134 -0.47869748,-1.0122 -0.01362292,-0.1178 -0.01379434,-0.3548 -3.3486e-4,-0.4699 0.04745124,-0.4056 0.21185628,-0.7378 0.50548709,-1.0215 0.31170387,-0.3011 0.70497425,-0.4708 1.19440425,-0.5153 0.1115081,-0.011 0.3885938,-0.011 0.501854,0 0.4788334,0.049 0.8518959,0.2197 1.1562912,0.5275 0.1844039,0.1865 0.3081725,0.3844 0.3921699,0.6272 0.1166944,0.3372 0.1359914,0.768 0.049657,1.1085 -0.054686,0.2158 -0.1656942,0.4351 -0.3121941,0.6169 -0.1505411,0.1869 -0.3685231,0.3592 -0.5944536,0.47 -0.3226261,0.158 -0.6727241,0.2221 -1.123328,0.2055 z"
       id="path4264" />
  </g>
</svg>
