<?xml version="1.0" encoding="UTF-8" standalone="no"?>
<svg
   xmlns:dc="http://purl.org/dc/elements/1.1/"
   xmlns:cc="http://creativecommons.org/ns#"
   xmlns:rdf="http://www.w3.org/1999/02/22-rdf-syntax-ns#"
   xmlns:svg="http://www.w3.org/2000/svg"
   xmlns="http://www.w3.org/2000/svg"
   version="1.1"
   id="svg2"
   viewBox="0 0 16 16"
   height="16"
   width="16">
  <metadata
     id="metadata10">
    <rdf:RDF>
      <cc:Work
         rdf:about="">
        <dc:format>image/svg+xml</dc:format>
        <dc:type
           rdf:resource="http://purl.org/dc/dcmitype/StillImage" />
        <dc:title></dc:title>
      </cc:Work>
    </rdf:RDF>
  </metadata>
  <defs
     id="defs8" />
  <path
     id="path3611"
     d="M 7.3468813,15.98494 C 5.6711409,15.840205 4.1536076,15.217874 2.8565992,14.143507 2.6087704,13.93822 2.0539133,13.382855 1.8508714,13.136859 0.78826033,11.84945 0.16793818,10.345442 0.02331252,8.7058386 c -0.03108336,-0.3523997 -0.03108336,-1.0573291 0,-1.4097279 C 0.14053921,5.9671246 0.57017772,4.726627 1.2993727,3.6117335 1.6152048,3.1288466 1.8967343,2.7854159 2.3409164,2.3411779 3.0146183,1.6673927 3.6592761,1.2058737 4.4975929,0.79718599 5.4013147,0.35661284 6.3305653,0.10401928 7.371373,0.01602188 c 0.2526453,-0.02136495 1.0046347,-0.02136495 1.2572791,0 1.5314219,0.12947702 2.9156589,0.64542664 4.1278519,1.53858272 0.322909,0.2379211 0.567005,0.4505394 0.902802,0.7863773 0.671226,0.6713107 1.135968,1.3207712 1.543605,2.1571391 0.440519,0.9038336 0.693081,1.8332 0.781067,2.8741364 0.02136,0.2526755 0.02136,1.0047579 0,1.2574345 -0.14361,1.6990111 -0.758981,3.2073241 -1.842192,4.5153321 -0.200154,0.241692 -0.756697,0.798304 -0.998359,0.998483 -1.308207,1.083643 -2.816559,1.699195 -4.5147749,1.842455 -0.2276507,0.0192 -1.0552253,0.01854 -1.2817708,-0.001 z m 0.8256974,-1.018551 c 0.3178884,-0.09459 0.6711776,-0.535754 0.9315678,-1.163277 0.1928269,-0.464696 0.351132,-0.992508 0.4851315,-1.617495 l 0.039384,-0.183715 -1.6286293,0 -1.6286293,0 0.030833,0.151055 c 0.1188309,0.582121 0.3204417,1.251114 0.508131,1.686106 0.2641006,0.612081 0.6026293,1.031047 0.9100266,1.126254 0.0975,0.03019 0.2527033,0.03066 0.3521761,0.0011 z M 6.3998398,14.787683 c 0,-0.0037 -0.030683,-0.06064 -0.068187,-0.126559 -0.3423855,-0.60181 -0.7092772,-1.618166 -0.8985257,-2.489077 l -0.036974,-0.170145 -1.5480005,0 -1.5480006,0 0.09307,0.12656 c 0.3089714,0.420168 0.7595742,0.898033 1.1666383,1.237221 0.775945,0.646559 1.6367191,1.097407 2.6195525,1.372044 0.2054703,0.05742 0.2204319,0.06081 0.2204319,0.04996 z m 3.3962856,-0.04265 c 0.076338,-0.01904 0.2563546,-0.07378 0.4000436,-0.121626 0.843774,-0.280983 1.644328,-0.738979 2.334946,-1.335817 0.350353,-0.302777 0.813167,-0.801425 1.075827,-1.159128 l 0.09293,-0.12656 -1.551832,0 c -1.46697,0 -1.551842,0.0016 -1.552036,0.02857 -7.11e-4,0.09862 -0.237211,0.962672 -0.367641,1.34317 -0.158723,0.463037 -0.4001411,1.017019 -0.5681183,1.303665 -0.068837,0.117468 -0.070208,0.122277 -0.031483,0.11081 0.015712,-0.0047 0.09103,-0.02404 0.1673651,-0.04309 z M 5.2078738,10.982566 c 0,-0.0038 -0.014582,-0.10849 -0.032394,-0.232707 C 5.071762,10.026716 4.9956888,8.9935052 4.9956308,8.3071682 l -2.5e-5,-0.2898633 -1.9920527,0 -1.9920516,0 0,0.1606803 c 0,0.2153859 0.038944,0.6095503 0.09027,0.9135798 0.098241,0.5819759 0.2639995,1.127443 0.5184191,1.705976 l 0.084379,0.191882 1.7516506,0 c 0.9634083,0 1.7516517,-0.0031 1.7516517,-0.0069 z m 4.5937492,-0.05438 c 0.021182,-0.13414 0.09263,-0.813923 0.1162756,-1.1063797 0.036654,-0.4532671 0.055396,-0.8230758 0.068077,-1.3431684 l 0.011241,-0.461331 -1.9972252,0 -1.9972262,0 0.010991,0.4531661 c 0.020692,0.8532138 0.08934,1.765295 0.1837509,2.441382 l 0.010831,0.07757 1.7918059,0 1.791807,0 0.0097,-0.06124 z m 4.532196,-0.02449 C 14.607254,10.279621 14.7417,9.8719049 14.857107,9.3167792 14.926457,8.9832328 14.971599,8.616981 14.983576,8.2908394 l 0.01004,-0.2735325 -1.992,0 -1.991998,0 -0.01057,0.5021564 c -0.01628,0.7732393 -0.07375,1.5061317 -0.175077,2.2327247 -0.0175,0.125499 -0.03182,0.230217 -0.03182,0.232707 0,0.0025 0.788424,0.0045 1.752051,0.0045 l 1.752052,0 0.03756,-0.08573 z M 5.0179712,6.9517518 c 0.0054,-0.020205 0.0099,-0.078418 0.010071,-0.129359 5.47e-4,-0.2275097 0.085259,-1.1099923 0.148351,-1.5453942 0.017312,-0.1195008 0.031484,-0.2278929 0.031484,-0.2408729 0,-0.020435 -0.2355055,-0.023595 -1.755129,-0.023595 l -1.75513,0 -0.050685,0.1102296 C 1.515094,5.4094823 1.3418183,5.8961612 1.2501133,6.2373042 1.2154496,6.3662522 1.1425027,6.7131735 1.1033184,6.9354251 l -0.0094,0.053073 1.9570829,0 1.9570828,0 0.0098,-0.036749 z M 9.9525754,6.788448 C 9.9244823,6.2789489 9.8157816,5.1355998 9.7864404,5.0410318 9.7780395,5.0139156 9.6821811,5.0126053 7.9948074,5.0165362 l -1.7827429,0.0041 -0.035604,0.2939452 C 6.1183643,5.7942616 6.04117,6.7069341 6.0407499,6.9190393 l -1.37e-4,0.069406 1.9614943,0 1.9614934,0 -0.011031,-0.2000464 z M 14.89671,6.9354211 C 14.774284,6.2410271 14.595529,5.649665 14.343846,5.106426 l -0.0435,-0.093902 -1.754095,0 c -1.243734,0 -1.754095,0.0051 -1.754095,0.017614 0,0.0097 0.01836,0.1530304 0.04079,0.3185408 0.0511,0.3770064 0.09916,0.8487758 0.122123,1.198894 0.0097,0.1481983 0.02165,0.3080313 0.02652,0.3551843 l 0.0089,0.08573 1.957812,0 1.957813,0 -0.0094,-0.053073 z M 5.4280576,3.8734872 c 0.2004387,-0.9217227 0.591348,-2.0105671 0.9211677,-2.5658389 0.028653,-0.048241 0.049515,-0.090291 0.046365,-0.093442 -0.0081,-0.0081 -0.3318329,0.078428 -0.526423,0.1406697 C 5.3874582,1.5089509 4.7521444,1.8054997 4.3132409,2.0811447 3.8513879,2.3712029 3.3944935,2.7415818 3.011459,3.1364283 2.7668115,3.3886208 2.4411153,3.778025 2.3266909,3.9551421 l -0.029013,0.044911 1.551427,0 1.5514279,0 0.027523,-0.1265594 z m 4.1809156,0.089821 C 9.6044727,3.9430933 9.5783699,3.8236837 9.5509469,3.6979395 9.394516,2.9807292 9.1839142,2.3472484 8.9428941,1.8689444 8.7548527,1.4957769 8.489181,1.1830395 8.2686501,1.0752514 8.1638357,1.0240196 8.1432425,1.0197686 8.000015,1.0197686 c -0.1432285,0 -0.1638207,0.0042 -0.2686351,0.055483 C 7.5079947,1.1844347 7.2447112,1.4962311 7.0515063,1.8803991 6.8092151,2.3621698 6.586681,3.044563 6.4321623,3.7795924 c -0.018882,0.089821 -0.038044,0.1761629 -0.042585,0.1918815 -0.0078,0.027076 0.076518,0.028577 1.6096532,0.028577 l 1.6179122,0 -0.0082,-0.036749 z m 4.0643588,-0.0082 C 13.452437,3.6131839 12.853992,2.9689115 12.439083,2.6263411 11.658616,1.9819466 10.737447,1.5054762 9.7888686,1.2555262 9.690578,1.2296302 9.607585,1.2110159 9.6044327,1.2141666 c -0.0031,0.0032 0.017712,0.045201 0.046365,0.093442 0.3298197,0.5552717 0.7207293,1.6441162 0.9211673,2.5658379 l 0.02752,0.1265604 1.551427,0 1.551428,0 -0.02901,-0.044911 z"
     style="fill:#ffffff" />
</svg>
