<svg xmlns="http://www.w3.org/2000/svg" xmlns:xlink="http://www.w3.org/1999/xlink" viewBox="0 0 303.08 139.76"><defs><style>.cls-1{fill:none;}.cls-2{fill:#ce1126;}.cls-3{fill:#2811ce;}.cls-4{clip-path:url(#clip-path);}.cls-5{fill:#308bd3;}.cls-6{fill:#fcd116;}</style><clipPath id="clip-path"><circle class="cls-1" cx="63.71" cy="67.91" r="32.54"/></clipPath></defs><title>1Asset 1</title><g id="Layer_2" data-name="Layer 2"><g id="Layer_1-2" data-name="Layer 1"><path class="cls-2" d="M288.4,109H91.71V76.63h163L253,80.92H96v23.77H288.4a10.41,10.41,0,0,0,10.4-10.4V80.92H273.3l1.78-4.29h28V94.29A14.7,14.7,0,0,1,288.4,109Z"/><path d="M137.69,97.63v1.64c0,.36-.12.58-.58.58h-8.32c-.46,0-.58-.22-.58-.58v-12c0-.46.22-.58.58-.58h2c.36,0,.58.12.58.58v9.78h5.76C137.57,97.05,137.69,97.27,137.69,97.63Z"/><path d="M154.83,99.85h-2.1c-.44,0-.6-.12-.76-.6l-.56-1.58h-4.9L146,99.25c-.16.48-.32.6-.76.6h-2.1c-.44,0-.44-.32-.34-.56l4.44-12a.79.79,0,0,1,.82-.62h1.92c.44,0,.64.2.82.62l4.42,12C155.27,99.53,155.27,99.85,154.83,99.85ZM149,90.45l-1.5,4.42h3Z"/><path d="M169.52,87.27v1.66c0,.36-.12.58-.58.58h-3.06v9.76c0,.46-.22.58-.58.58h-2c-.36,0-.58-.12-.58-.58V89.51h-3.07c-.46,0-.58-.22-.58-.58V87.27c0-.36.12-.58.58-.58h9.27C169.4,86.69,169.52,86.91,169.52,87.27Z"/><path d="M185.38,99.85h-2.1c-.44,0-.6-.12-.76-.6L182,97.67h-4.9l-.56,1.58c-.16.48-.32.6-.76.6h-2.1c-.44,0-.44-.32-.34-.56l4.44-12a.79.79,0,0,1,.82-.62h1.92c.44,0,.64.2.82.62l4.42,12C185.82,99.53,185.82,99.85,185.38,99.85Zm-5.86-9.4L178,94.87h3Z"/><path d="M203.88,87.25v12c0,.46-.22.58-.58.58h-1.92c-.36,0-.58-.12-.58-.58V92.49l-2,3.5a.74.74,0,0,1-.58.42h-1c-.3,0-.46-.26-.56-.42l-2-3.5v6.78c0,.46-.22.58-.58.58h-2c-.36,0-.58-.12-.58-.58v-12c0-.36.12-.58.58-.58h2c.68,0,.76.44.92.68l2.74,4.92,2.76-4.92c.14-.24.24-.68.9-.68h1.92C203.76,86.67,203.88,86.89,203.88,87.25Z"/><path d="M213.39,90.11a2.61,2.61,0,1,1-2.6,2.6A2.59,2.59,0,0,1,213.39,90.11Z"/><path d="M233,97.63v1.64c0,.36-.12.58-.58.58h-8.28c-.46,0-.54-.12-.54-.58V97.79A1,1,0,0,1,224,97s1.7-1.5,3.64-3.14c1.28-1.1,2.54-2.18,2.54-3.22s-.74-1.48-1.7-1.48a2,2,0,0,0-2,2c0,.34-.1.56-.52.56h-1.76c-.4,0-.54-.16-.54-.6,0-3.32,2.26-4.7,4.82-4.7,2.4,0,4.76,1.7,4.76,4.16,0,2-1.22,3.14-2.34,4.16s-2.64,2.32-2.64,2.32h4.22C232.89,97.05,233,97.27,233,97.63Z"/><path d="M248.9,90.93v4.68c0,3.16-2.78,4.54-5,4.54s-5-1.38-5-4.54V90.93c0-3.16,2.77-4.54,5-4.54S248.9,87.77,248.9,90.93Zm-5-1.74a2,2,0,0,0-2.06,2.18v3.8a2.07,2.07,0,1,0,4.14,0v-3.8A2,2,0,0,0,243.9,89.19Z"/><path d="M262.58,97.63v1.64c0,.36-.12.58-.58.58h-6.2c-.46,0-.58-.22-.58-.58V97.63c0-.36.12-.58.58-.58h1.7V91.69h-1.7c-.46,0-.58-.2-.58-.58V89.49c0-.38.12-.58.58-.58h.44c.38,0,1.26-.18,1.26-1.68,0-.42.24-.52.58-.52H260c.34,0,.56.1.58.52v9.82H262C262.46,97.05,262.58,97.27,262.58,97.63Z"/><path d="M277.62,92.91a11.53,11.53,0,0,1-1.32,2.5l-2.48,3.88a1,1,0,0,1-1,.56h-2.54c-.36,0-.46-.36-.26-.62l2.68-3.76a4.41,4.41,0,0,1-.72.08,4.31,4.31,0,0,1-4.34-4.24,5,5,0,0,1,5.1-4.9c2.48,0,5.16,1.74,5.16,4.62A5.7,5.7,0,0,1,277.62,92.91Zm-4.78-3.76a2,2,0,1,0,0,4,2,2,0,1,0,0-4Z"/><path d="M146.63,32.83c-5.93,0-8.78,2.48-8.78,5.63,0,3.69,4.36,4.72,9.45,5.33,8.83,1.09,17.07,3.39,17.07,13.5,0,9.44-8.36,13.5-17.8,13.5-8.66,0-15.32-2.67-18.46-10.42l6.66-3.45c1.87,4.67,6.77,6.72,11.92,6.72s9.75-1.75,9.75-6.35c0-4-4.18-5.63-9.81-6.24C138,50,130,47.72,130,38.22c0-8.72,8.6-12.29,16.41-12.35,6.6,0,13.44,1.88,16.65,8.41l-6.36,3.27C155.23,35.13,151.23,32.83,146.63,32.83Z"/><path d="M184.1,70.6c-8.65,0-15.86-5.2-15.86-15.79S175.45,39,184.1,39a14.2,14.2,0,0,1,10.78,4.41l-4.66,4.91a9.06,9.06,0,0,0-6-2.36c-5,0-8.59,3.63-8.59,8.84,0,5.69,3.87,8.71,8.47,8.71A9,9,0,0,0,190.64,61l5,4.84A15.35,15.35,0,0,1,184.1,70.6Z"/><path d="M206.92,31.44c0,5.75-8.71,5.75-8.71,0S206.92,25.69,206.92,31.44Zm-8,38.26h7.39v-30h-7.39Z"/><path d="M233.44,57.23h-12V69.7h-8V27.32c6.66,0,13.32-.06,20-.06C254.14,27.26,254.2,57.23,233.44,57.23Zm0-7.33c10.23,0,10.17-15,0-15h-12v15Z"/><path d="M267,82.17h-8.11l5.57-13L252.51,39.85h8.59l4.54,12.9,2.85,8.41,3.09-8.23L277,39.85h8.18Z"/><circle class="cls-3" cx="62.99" cy="67.42" r="53.67"/><g class="cls-4"><rect class="cls-5" x="89.54" y="57.84" width="2.85" height="74.17" transform="translate(-25.93 155.09) rotate(-73.46)"/><rect class="cls-5" x="87.51" y="64.75" width="2.85" height="74.17" transform="translate(-34.01 158.08) rotate(-73.45)"/><rect class="cls-5" x="85.48" y="71.65" width="2.85" height="74.17" transform="matrix(0.28, -0.96, 0.96, 0.28, -42.08, 161.07)"/><rect class="cls-5" x="83.45" y="78.56" width="2.85" height="74.17" transform="translate(-50.15 164.07) rotate(-73.45)"/><rect class="cls-5" x="81.41" y="85.47" width="2.85" height="74.17" transform="translate(-58.23 167.06) rotate(-73.45)"/><polygon class="cls-5" points="77.84 83.43 57.33 77.52 60.33 67.29 63.07 68.1 60.87 75.57 75.9 79.91 82.14 58.69 0.78 34.77 1.58 32.03 85.68 56.76 77.84 83.43"/><polygon class="cls-5" points="34.07 139.76 31.34 138.95 56.06 54.86 74.11 60.16 71.24 70.29 68.5 69.51 70.6 62.1 57.99 58.4 34.07 139.76"/><rect class="cls-5" x="58.94" y="-25.16" width="2.85" height="74.17" transform="translate(31.74 66.4) rotate(-73.45)"/><rect class="cls-5" x="56.91" y="-18.25" width="2.85" height="74.17" transform="translate(23.67 69.39) rotate(-73.45)"/><rect class="cls-5" x="54.88" y="-11.34" width="2.85" height="74.17" transform="translate(15.6 72.38) rotate(-73.45)"/><rect class="cls-5" x="52.85" y="-4.44" width="2.85" height="74.17" transform="translate(7.53 75.38) rotate(-73.46)"/><rect class="cls-5" x="50.82" y="2.47" width="2.85" height="74.17" transform="translate(-0.55 78.37) rotate(-73.46)"/><rect class="cls-5" x="84.17" y="56.25" width="74.17" height="2.85" transform="translate(31.42 157.47) rotate(-73.45)"/><rect class="cls-5" x="77.26" y="54.22" width="74.17" height="2.85" transform="translate(28.43 149.4) rotate(-73.45)"/><rect class="cls-5" x="70.36" y="52.19" width="74.17" height="2.85" transform="translate(25.44 141.33) rotate(-73.45)"/><rect class="cls-5" x="63.45" y="50.16" width="74.17" height="2.85" transform="translate(22.44 133.26) rotate(-73.45)"/><rect class="cls-5" x="56.54" y="48.13" width="74.17" height="2.85" transform="translate(19.45 125.18) rotate(-73.45)"/><rect class="cls-5" x="2.47" y="87.32" width="74.17" height="2.85" transform="translate(-56.78 101.38) rotate(-73.45)"/><rect class="cls-5" x="-4.44" y="85.29" width="74.17" height="2.85" transform="translate(-59.78 93.3) rotate(-73.45)"/><polygon class="cls-5" points="16.55 120.64 13.81 119.83 36.4 43.81 39.14 44.57 16.55 120.64"/><rect class="cls-5" x="-18.25" y="81.23" width="74.17" height="2.85" transform="translate(-65.76 77.16) rotate(-73.45)"/><rect class="cls-5" x="-25.16" y="79.2" width="74.17" height="2.85" transform="translate(-68.75 69.09) rotate(-73.45)"/></g><g id="path17"><path class="cls-3" d="M63.69,100.25a23.91,23.91,0,0,1-5.26-.62l-.31-.08C50,97.17,45.42,92,42.11,88.27c-1-1.15-3.13-3.55-3.73-3.55-.27,0-2.88.27-10.63,9.18l-2.19,2.51-7.88-6.86L19.86,87C27.74,78,33.1,74.29,38.34,74.27S47,78,49.94,81.36s5.79,6.56,11,8.12c2,.42,6.51,1,8.17-2.52,1.31-2.76.4-7.5-3.88-10.86L65.05,76c-2.68-2.34-5.92-3.14-9.67-4.06a36.6,36.6,0,0,1-9.78-3.46,16,16,0,0,1-8.46-15.9A16.3,16.3,0,0,1,48.27,38.15c15.85-5.55,22,4.16,25.61,10,4,6.37,5.53,8.76,16.62,2.24l2.87-1.69,5.29,9L95.8,59.36c-6.45,3.79-11.5,5.24-15.52,5.24C71.93,64.6,68,58.34,65,53.68,61.49,48,59.7,45.2,51.61,48.05l-.13.05a6,6,0,0,0-3.93,5.37,5.56,5.56,0,0,0,2.93,5.75l.19.1a27.15,27.15,0,0,0,7.2,2.45c4.4,1.08,9.39,2.31,13.89,6.2,7.66,6.08,10.43,15.73,6.74,23.48C75.88,97,70.34,100.25,63.69,100.25Z"/></g><polygon class="cls-3" points="96.86 49.61 80.07 50.64 88.39 67.61 99.58 55.04 96.86 49.61"/><g id="path13"><polygon class="cls-2" points="96.15 53.92 95.67 53.1 98.36 51.55 98.36 48.98 99.31 48.98 99.31 51.35 101.21 51.35 101.21 52.3 98.96 52.3 96.15 53.92"/></g><g id="path17-2" data-name="path17"><path class="cls-6" d="M63.45,97a20.33,20.33,0,0,1-4.52-.54l-.11,0c-7.25-2.11-11.25-6.64-14.46-10.29-2.63-3-4.21-4.67-6.22-4.67h0c-2.8,0-7.09,3.39-13.13,10.32L22.14,89.3c7.08-8.14,11.86-11.61,16-11.63h0c3.82,0,6.37,2.9,9.07,6,3,3.44,6.46,7.33,12.62,9.14,5.63,1.26,10.12-.35,12-4.3S72.71,78,67,73.56l-.08-.07c-3.22-2.82-7-3.74-11-4.72a33.07,33.07,0,0,1-9-3.16,12.68,12.68,0,0,1-6.74-12.69,13,13,0,0,1,8.86-11.53C62.46,36.67,67.1,44,70.83,50,75,56.62,78.08,61.45,92,53.29l1.93,3.27c-17,10-21.94,2.27-26.26-4.58C64,46.23,60.86,41.26,50.27,45A9.22,9.22,0,0,0,44,53.25a8.83,8.83,0,0,0,4.73,9l.09,0a30,30,0,0,0,8,2.78c4.25,1,8.64,2.12,12.55,5.52,6.48,5.12,8.9,13.13,5.86,19.5C73.55,93.69,69.65,97,63.45,97Z"/></g><g id="path19"><path class="cls-6" d="M83.35,52.61,88.9,63.88l8.17-9.13-1.47-2.9Z"/></g><g id="circle15"><path class="cls-2" d="M63,114a46.55,46.55,0,1,1,46.54-46.55A46.6,46.6,0,0,1,63,114Zm0-90.24a43.7,43.7,0,1,0,43.69,43.69A43.74,43.74,0,0,0,63,23.73Z"/></g><g id="circle15-2" data-name="circle15"><path class="cls-6" d="M63.87,107.31h-1l0-4.75h.81Zm3-.18-.46-4.73c.3,0,.59-.06.89-.09l.57,4.71Zm-7,.07-1-.09.49-4.73.88.08Zm11-.66L70,101.88l.86-.19,1.06,4.64Zm-15,.14-1-.19,1-4.65.88.17Zm19-1.14L73.4,101l.85-.27,1.51,4.5Zm-22.9.22c-.33-.1-.65-.19-1-.3l1.43-4.52.85.26Zm26.7-1.61-1.86-4.37q.41-.16.81-.36l2,4.33Zm-30.53.29-.94-.39L49,99.69l.83.34Zm34.15-2-2.29-4.16.77-.44,2.4,4.1Zm-37.82.34c-.3-.15-.59-.31-.89-.48l2.32-4.14.79.42Zm41.25-2.47L83,96.35c.24-.16.48-.34.72-.51l2.8,3.84C86.21,99.88,85.93,100.07,85.65,100.26Zm-44.73.41-.83-.57,2.73-3.89.73.5ZM88.85,97.8l-3.07-3.62.66-.58,3.18,3.53C89.37,97.36,89.11,97.58,88.85,97.8Zm-51.17.47-.78-.66L40,94c.23.19.45.39.68.57ZM91.79,95l-3.43-3.29c.21-.21.41-.43.61-.65l3.51,3.2C92.25,94.54,92,94.79,91.79,95Zm-57.1.52c-.24-.24-.47-.48-.7-.73l3.45-3.26c.2.22.41.43.62.64ZM94.44,92,90.7,89.05c.18-.23.36-.47.53-.71l3.82,2.83ZM32,92.54c-.21-.26-.42-.52-.62-.79l3.76-2.9c.18.24.36.47.55.7Zm64.77-3.86-4-2.55.46-.75,4.08,2.43C97.12,88.1,96.94,88.39,96.76,88.68ZM30.81,88.5c.45-.48,2.3-2.56,2.3-2.56.15.25.31.49.47.74Zm67.93-3.35L94.49,83c.13-.27.26-.54.38-.81l4.31,2C99,84.54,98.89,84.85,98.74,85.15Zm-71.17.65c-.16-.29-.31-.59-.46-.9l4.27-2.08c.13.27.27.53.4.79Zm72.78-4.37-4.44-1.66.3-.84,4.49,1.56C100.59,80.8,100.47,81.12,100.35,81.43Zm-74.46.7-.36-.94,3.64-1.34Zm75.69-4.55L97,76.38l.21-.87,4.62,1.09C101.75,76.93,101.67,77.26,101.58,77.58Zm-77,.72c-.09-.32-.17-.64-.26-1l4.6-1.18.24.86Zm77.82-4.67-4.7-.74c.05-.29.09-.58.13-.88l4.71.62C102.51,73,102.46,73.3,102.41,73.63Zm-78.71.74c-.06-.33-.12-.67-.17-1l4.7-.7c.05.29.09.58.14.88Zm79.13-4.76-4.75-.25c0-.3,0-.6,0-.9l4.75.14C102.86,68.94,102.84,69.28,102.83,69.61Zm-79.63.75c0-.34-.05-.67-.06-1l4.74-.22.06.88ZM98.1,65.8c0-.3,0-.6,0-.9l4.73-.33c0,.33,0,.67.06,1Zm-70.25.65-4.74-.12c0-.34,0-.68,0-1l4.74.26C27.87,65.86,27.86,66.16,27.85,66.45Zm69.91-4.19c-.05-.3-.09-.6-.15-.89l4.69-.81.15,1Zm-69.63.64-4.71-.6c0-.33.09-.67.14-1l4.69.72Zm68.93-4.13c-.07-.29-.15-.58-.23-.87l4.57-1.28c.09.32.18.65.26,1Zm-68.3.63-4.63-1.07c.08-.33.16-.66.25-1L29,58.54Zm1-3.41-4.49-1.55c.11-.32.23-.64.35-.95l4.45,1.66C29.94,55.42,29.84,55.7,29.74,56Zm1.33-3.31-4.31-2c.14-.31.29-.61.44-.91l4.26,2.09ZM92.91,49c-.15-.25-.31-.49-.47-.74l4-2.6c.19.28.37.57.54.85Zm-60.18.56-4.08-2.42c.17-.29.34-.58.53-.87l4,2.53C33,49,32.88,49.27,32.73,49.53Zm58.16-3.48c-.18-.24-.36-.47-.55-.7l3.7-3c.21.26.42.52.62.79Zm-56.19.51-3.82-2.82.61-.8,3.75,2.91Zm53.89-3.22L88,42.7l3.38-3.34.69.72ZM37,43.81l-3.52-3.19c.23-.25.45-.5.68-.74l3.45,3.27ZM86,40.87l-.68-.57,3-3.67.77.66Zm-46.54.43L36.3,37.77l.76-.67,3.09,3.61C39.92,40.9,39.7,41.1,39.48,41.3Zm43.73-2.62-.73-.51,2.64-4c.28.19.56.38.83.58Zm-41,.37-2.81-3.83.83-.59L43,38.54Zm38-2.27-.79-.43,2.23-4.2.89.49Zm-35,.32L42.81,33l.87-.5L46,36.66ZM77,35.19l-.82-.35L78,30.44l.94.39Zm-28.66.26-2-4.31.92-.41,1.87,4.37Zm25.33-1.52-.86-.26,1.33-4.56,1,.3Zm-22,.21-1.52-4.5,1-.31,1.42,4.53ZM70.24,33l-.87-.18.86-4.67,1,.2Zm-15.15.14L54,28.54c.33-.08.66-.15,1-.21L56,33Zm11.64-.7-.89-.08.38-4.73c.34,0,.67.05,1,.09Zm-8.14.08L58,27.84l1-.12.47,4.73Zm4.58-.27h-1L62,27.54H63.2Z"/></g></g></g></svg>