<svg id="Layer_1" data-name="Layer 1" xmlns="http://www.w3.org/2000/svg" xmlns:xlink="http://www.w3.org/1999/xlink" viewBox="0 0 1920 1080"><defs><style>.cls-1{fill:none;}.cls-2{fill:#ce1126;}.cls-3{fill:#2811ce;}.cls-4{clip-path:url(#clip-path);}.cls-5{fill:#308bd3;}.cls-6{fill:#fcd116;}</style><clipPath id="clip-path"><circle class="cls-1" cx="475.03" cy="545.14" r="249.11"/></clipPath></defs><title>SciPy Logo</title><path class="cls-2" d="M1783.84,702.39H782.4V537.7h830l-8.64,21.82H804.21V680.58h979.63a53,53,0,0,0,53-53V559.52H1707l9.09-21.82h142.56v89.91A74.86,74.86,0,0,1,1783.84,702.39Z"/><path d="M1016.53,644.62V653c0,1.83-.61,2.95-3,2.95H971.22c-2.34,0-3-1.12-3-2.95V591.88c0-2.34,1.12-3,3-3H981.3c1.83,0,3,.61,3,3v49.79h29.32C1015.92,641.67,1016.53,642.79,1016.53,644.62Z"/><path d="M1103.77,655.92h-10.69c-2.24,0-3-.61-3.86-3l-2.86-8h-24.94l-2.85,8c-.82,2.44-1.63,3-3.87,3H1044c-2.24,0-2.24-1.62-1.73-2.85l22.6-61c.82-2.14,1.93-3.16,4.17-3.16h9.78c2.24,0,3.26,1,4.17,3.16l22.51,61C1106,654.3,1106,655.92,1103.77,655.92Zm-29.83-47.85-7.63,22.5h15.27Z"/><path d="M1178.6,591.88v8.45c0,1.84-.61,3-2.95,3h-15.58V653c0,2.34-1.12,2.95-3,2.95H1147c-1.84,0-3-.61-3-2.95V603.29H1128.4c-2.34,0-3-1.12-3-3v-8.45c0-1.83.61-3,3-3h47.25C1178,588.93,1178.6,590.05,1178.6,591.88Z"/><path d="M1259.33,655.92h-10.69c-2.24,0-3.05-.61-3.87-3l-2.85-8H1217l-2.86,8c-.81,2.44-1.62,3-3.86,3h-10.7c-2.24,0-2.24-1.62-1.73-2.85l22.61-61c.81-2.14,1.93-3.16,4.17-3.16h9.78c2.24,0,3.25,1,4.17,3.16l22.5,61C1261.57,654.3,1261.57,655.92,1259.33,655.92Zm-29.83-47.85-7.64,22.5h15.27Z"/><path d="M1353.5,591.78V653c0,2.34-1.12,2.95-3,2.95h-9.77c-1.84,0-3-.61-3-2.95V618.46l-10.18,17.81c-.51.82-1.43,2.14-3,2.14h-5.09c-1.53,0-2.34-1.32-2.85-2.14l-10.29-17.81V653c0,2.34-1.12,2.95-3,2.95h-10.08c-1.83,0-3-.61-3-2.95V591.78c0-1.83.61-2.95,3-2.95h10.08c3.46,0,3.87,2.24,4.68,3.46l14,25.05,14-25.05c.72-1.22,1.22-3.46,4.59-3.46h9.77C1352.89,588.83,1353.5,590,1353.5,591.78Z"/><path d="M1402,606.34a13.29,13.29,0,1,1-13.23,13.24A13.16,13.16,0,0,1,1402,606.34Z"/><path d="M1501.83,644.62V653c0,1.83-.61,2.95-2.95,2.95h-42.16c-2.34,0-2.75-.61-2.75-2.95v-7.53a5.14,5.14,0,0,1,1.84-4.28s8.65-7.63,18.53-16c6.51-5.6,12.93-11.1,12.93-16.4s-3.77-7.53-8.66-7.53a10.34,10.34,0,0,0-10.28,10.39c0,1.72-.51,2.85-2.65,2.85h-9c-2,0-2.75-.82-2.75-3.06,0-16.9,11.51-23.93,24.54-23.93,12.22,0,24.23,8.66,24.23,21.18,0,10.39-6.21,16-11.91,21.18-6,5.4-13.44,11.81-13.44,11.81h21.49C1501.22,641.67,1501.83,642.79,1501.83,644.62Z"/><path d="M1582.76,610.51v23.83c0,16.09-14.15,23.11-25.45,23.11s-25.35-7-25.35-23.11V610.51c0-16.08,14.15-23.11,25.35-23.11S1582.76,594.43,1582.76,610.51Zm-25.45-8.85c-6.21,0-10.49,4.58-10.49,11.09V632.1c0,6.52,4.28,11.1,10.49,11.1s10.59-4.58,10.59-11.1V612.75C1567.9,606.24,1563.52,601.66,1557.31,601.66Z"/><path d="M1652.39,644.62V653c0,1.83-.61,2.95-3,2.95h-31.56c-2.34,0-3-1.12-3-2.95v-8.35c0-1.83.61-3,3-3h8.65V614.38h-8.65c-2.34,0-3-1-3-3v-8.25c0-1.93.61-2.95,3-2.95h2.24c1.93,0,6.41-.92,6.41-8.55.11-2.14,1.23-2.65,3-2.65h9.87c1.73,0,2.85.51,3,2.65v50h7.12C1651.78,641.67,1652.39,642.79,1652.39,644.62Z"/><path d="M1729,620.59a58.23,58.23,0,0,1-6.72,12.73l-12.62,19.75a5.12,5.12,0,0,1-4.89,2.85h-12.93c-1.83,0-2.34-1.83-1.32-3.15l13.64-19.14a22.76,22.76,0,0,1-3.66.4c-11.71,0-22.1-9.36-22.1-21.58,0-13.75,11.61-25,26-25,12.63,0,26.27,8.86,26.27,23.52A28.76,28.76,0,0,1,1729,620.59Zm-24.33-19.14a10.24,10.24,0,1,0,0,20.47,10.24,10.24,0,1,0,0-20.47Z"/><path d="M1062,314.68c-30.2,0-44.69,12.64-44.69,28.67,0,18.8,22.19,24,48.08,27.12,45,5.55,86.92,17.26,86.92,68.73,0,48.09-42.53,68.74-90.61,68.74-44.08,0-78-13.57-94-53l33.9-17.57c9.56,23.74,34.52,34.22,60.72,34.22,25.58,0,49.62-8.94,49.62-32.37,0-20.34-21.26-28.66-49.93-31.74-44.07-5.24-84.76-16.95-84.76-65.34,0-44.39,43.77-62.57,83.53-62.88,33.6,0,68.43,9.55,84.76,42.84l-32.36,16.65C1105.8,326.4,1085.46,314.68,1062,314.68Z"/><path d="M1252.82,507c-44.07,0-80.75-26.51-80.75-80.44s36.68-80.45,80.75-80.45c21.58,0,38.22,6.17,54.86,22.5l-23.73,25a46.11,46.11,0,0,0-30.51-12c-25.28,0-43.77,18.49-43.77,45,0,29,19.73,44.38,43.15,44.38,12,0,24-3.39,33.29-12.64L1311.38,483C1293.82,500.23,1275.32,507,1252.82,507Z"/><path d="M1369,307.6c0,29.28-44.38,29.28-44.38,0S1369,278.32,1369,307.6Zm-41,194.79h37.6V349.82H1328Z"/><path d="M1504,438.9h-61v63.49h-40.68V286.64c33.9,0,67.8-.31,101.71-.31C1609.43,286.33,1609.73,438.9,1504,438.9Zm0-37.3c52.09,0,51.78-76.44,0-76.44h-61V401.6Z"/><path d="M1674.77,565.88h-41.3l28.35-66-60.71-149.48h43.76L1668,416.09l14.48,42.84L1698.19,417l27.74-66.57h41.61Z"/><circle class="cls-3" cx="469.48" cy="541.4" r="410.86"/><g class="cls-4"><rect class="cls-5" x="672.71" y="468.02" width="21.82" height="567.76" transform="translate(-231.83 1193.1) rotate(-73.46)"/><rect class="cls-5" x="657.16" y="520.89" width="21.82" height="567.76" transform="matrix(0.28, -0.96, 0.96, 0.28, -293.63, 1216.01)"/><rect class="cls-5" x="641.62" y="573.77" width="21.82" height="567.76" transform="translate(-355.43 1238.92) rotate(-73.45)"/><rect class="cls-5" x="626.08" y="626.64" width="21.82" height="567.76" transform="translate(-417.23 1261.84) rotate(-73.45)"/><rect class="cls-5" x="610.53" y="679.51" width="21.82" height="567.76" transform="translate(-479.03 1284.75) rotate(-73.45)"/><polygon class="cls-5" points="583.15 663.95 426.14 618.65 449.15 540.39 470.08 546.54 453.25 603.77 568.34 636.97 616.09 474.52 -6.72 291.42 -0.58 270.49 643.18 459.74 583.15 663.95"/><polygon class="cls-5" points="248.13 1095.12 227.19 1088.97 416.46 445.22 554.59 485.82 532.66 563.32 511.67 557.38 527.72 500.67 431.23 472.3 248.13 1095.12"/><rect class="cls-5" x="438.5" y="-167.32" width="21.82" height="567.76" transform="translate(209.7 514.16) rotate(-73.45)"/><rect class="cls-5" x="422.96" y="-114.45" width="21.82" height="567.76" transform="translate(147.9 537.08) rotate(-73.45)"/><rect class="cls-5" x="407.41" y="-61.58" width="21.82" height="567.76" transform="translate(86.1 559.99) rotate(-73.45)"/><rect class="cls-5" x="391.87" y="-8.71" width="21.82" height="567.76" transform="translate(24.3 582.91) rotate(-73.46)"/><rect class="cls-5" x="376.33" y="44.16" width="21.82" height="567.76" transform="translate(-37.49 605.82) rotate(-73.46)"/><rect class="cls-5" x="631.62" y="455.88" width="567.76" height="21.81" transform="translate(207.23 1211.36) rotate(-73.45)"/><rect class="cls-5" x="578.75" y="440.34" width="567.76" height="21.81" transform="matrix(0.28, -0.96, 0.96, 0.28, 184.32, 1149.57)"/><rect class="cls-5" x="525.88" y="424.8" width="567.76" height="21.81" transform="translate(161.41 1087.77) rotate(-73.45)"/><rect class="cls-5" x="473" y="409.25" width="567.76" height="21.81" transform="translate(138.5 1025.97) rotate(-73.45)"/><rect class="cls-5" x="420.13" y="393.71" width="567.76" height="21.81" transform="translate(115.59 964.18) rotate(-73.45)"/><rect class="cls-5" x="6.19" y="693.72" width="567.76" height="21.81" transform="matrix(0.28, -0.96, 0.96, 0.28, -467.99, 781.92)"/><rect class="cls-5" x="-46.68" y="678.18" width="567.76" height="21.81" transform="translate(-490.91 720.13) rotate(-73.45)"/><polygon class="cls-5" points="113.94 948.77 93.03 942.55 265.91 360.6 286.92 366.46 113.94 948.77"/><rect class="cls-5" x="-152.43" y="647.09" width="567.76" height="21.81" transform="translate(-536.72 596.54) rotate(-73.45)"/><rect class="cls-5" x="-205.3" y="631.55" width="567.76" height="21.81" transform="translate(-559.63 534.74) rotate(-73.45)"/></g><g id="path17"><path class="cls-3" d="M474.82,792.68A182.22,182.22,0,0,1,434.6,788l-2.36-.61C369.68,769.09,335,729.72,309.62,701c-7.77-8.82-23.94-27.15-28.54-27.15-2.08,0-22,2-81.39,70.24L183,763.26l-60.34-52.51,16.71-19.2c60.3-69.29,101.29-97.6,141.48-97.72,41,0,66.38,28.81,88.79,54.24,21.77,24.69,44.27,50.22,83.85,62.14,15.19,3.27,49.85,7.38,62.54-19.26,10-21.11,3.08-57.44-29.66-83.16l-1.1-.9c-20.51-17.94-45.29-24-74-31.07-23.53-5.77-50.17-12.31-74.93-26.53-44.48-23.22-69.26-69.79-64.71-121.7,4.58-52.34,38-95.57,85.2-110.27,121.27-42.49,168.06,31.8,196,76.19,30.77,48.82,42.28,67.1,127.22,17.17L702,397.78l40.54,69-21.94,12.9c-49.35,29-88,40.16-118.8,40.16-63.93,0-94.15-48-116.63-83.62C458,393,444.31,371.3,382.35,393.12l-1,.32c-16.51,5.07-28.32,21.22-30.06,41.13s6.44,35.84,22.44,44l1.4.75c15.58,9.09,33.93,13.59,55.18,18.81,33.68,8.26,71.82,17.63,106.26,47.4,58.67,46.62,79.9,120.47,51.63,179.82C568.14,767.51,525.75,792.68,474.82,792.68Z"/></g><polygon class="cls-3" points="728.74 405.05 600.25 412.93 663.94 542.83 749.63 446.61 728.74 405.05"/><g id="path13"><polygon class="cls-2" points="723.32 438.01 719.7 431.71 740.24 419.88 740.24 400.17 747.51 400.17 747.51 418.35 762.05 418.35 762.05 425.62 744.85 425.62 723.32 438.01"/></g><g id="path17-2" data-name="path17"><path class="cls-6" d="M473,767.8a156.2,156.2,0,0,1-34.59-4.1l-.86-.22c-55.49-16.19-86.09-50.89-110.66-78.77-20.14-22.84-32.29-35.77-47.63-35.77h-.09c-21.42.07-54.3,25.91-100.5,79l-21.95-19.1c54.2-62.27,90.79-88.88,122.36-89h.18c29.23,0,48.76,22.16,69.44,45.62,23.18,26.29,49.44,56.08,96.57,70,43.11,9.65,77.46-2.65,91.89-33,14.66-30.78,6.69-79.87-36.91-114.12l-.6-.5c-24.64-21.57-53.54-28.66-84.14-36.17-23.11-5.67-47-11.54-68.75-24.14-35.49-18.31-55.25-55.49-51.6-97.16,3.7-42.16,30.32-76.82,67.84-88.31C465.45,306,501,362.36,529.54,407.66c32.2,51.07,55.44,88,161.64,25.53l14.75,25.08C575.42,535,538,475.59,504.93,423.17c-27.75-44-51.71-82-132.82-53.48-26.7,8.19-45.3,32.94-47.95,63.23s10.88,56,36.21,68.9l.71.39c18.2,10.62,39.18,15.77,61.38,21.22,32.53,8,66.17,16.24,96.08,42.28,49.66,39.2,68.12,100.53,44.9,149.27C550.36,742.45,520.44,767.79,473,767.8Z"/></g><g id="path19"><path class="cls-6" d="M625.35,428l42.49,86.3,62.53-69.86-11.21-22.2Z"/></g><g id="circle15"><path class="cls-2" d="M469.48,897.72C273,897.72,113.16,737.87,113.16,541.4S273,185.08,469.48,185.08,825.8,344.93,825.8,541.4,666,897.72,469.48,897.72Zm0-690.82C285,206.9,135,357,135,541.4S285,875.9,469.48,875.9,804,725.84,804,541.4,653.92,206.9,469.48,206.9Z"/></g><g id="circle15-2" data-name="circle15"><path class="cls-6" d="M476.19,846.74h-.58c-2.39,0-4.76.07-7.13.07l.14-36.37q3.12,0,6.26-.05Zm23.18-1.37-3.54-36.19q3.41-.33,6.8-.75l4.4,36.1C504.49,844.84,501.94,845.11,499.37,845.37Zm-54,.51q-3.87-.3-7.71-.7L441.39,809c2.25.23,4.51.44,6.78.61Zm84.57-5-7.1-35.67c2.23-.43,4.43-.91,6.63-1.41l8.07,35.45C535,839.78,532.45,840.32,529.91,840.83Zm-115.24,1.08c-2.54-.46-5.07-1-7.58-1.48l7.39-35.6c2.23.47,4.46.9,6.7,1.31Zm145.26-8.72-10.76-34.73q3.26-1,6.48-2.09l11.63,34.45C564.85,831.64,562.39,832.43,559.93,833.19Zm-175.37,1.66q-3.74-1.08-7.42-2.24l10.95-34.67c2.18.68,4.36,1.35,6.56,2ZM589,822.56,574.73,789.1c2.09-.89,4.16-1.8,6.23-2.74l15,33.1Q592.51,821.05,589,822.56Zm-233.7,2.18c-2.41-1-4.79-2-7.16-3l14.47-33.35c2.08.91,4.18,1.78,6.29,2.63ZM616.73,809l-17.54-31.85q3-1.63,5.9-3.34l18.37,31.37C621.24,806.52,619,807.8,616.73,809ZM327.18,811.7c-2.28-1.2-4.55-2.44-6.8-3.69l17.76-31.73q3,1.66,6,3.26ZM643,792.79l-20.63-29.94c1.86-1.28,3.7-2.59,5.51-3.91l21.46,29.35Q646.18,790.59,643,792.79Zm-342.4,3.1q-3.21-2.14-6.38-4.36l20.88-29.77q2.79,2,5.64,3.85ZM667.49,774l-23.57-27.69q2.6-2.21,5.11-4.47l24.29,27.05C671.41,770.56,669.46,772.27,667.49,774ZM275.74,777.5q-3-2.46-5.94-5L293.59,745q2.57,2.22,5.19,4.37ZM690,752.71l-26.27-25.13c1.58-1.65,3.13-3.32,4.67-5l26.86,24.5C693.52,749,691.76,750.85,690,752.71Zm-437.14,4c-1.82-1.83-3.62-3.69-5.39-5.56l26.44-25c1.55,1.65,3.13,3.27,4.73,4.88Zm457.36-27.33L681.58,707c1.4-1.78,2.77-3.59,4.12-5.41l29.21,21.64C713.37,725.27,711.81,727.33,710.21,729.36Zm-478,4.32q-2.41-3-4.77-6l28.79-22.2c1.39,1.8,2.81,3.59,4.24,5.36ZM728,704.11l-30.69-19.49c1.21-1.9,2.38-3.83,3.54-5.77l31.24,18.61C730.73,699.7,729.37,701.91,728,704.11Zm-504.81-1.4c3.44-3.63,17.56-19.6,17.56-19.6,1.18,1.92,2.4,3.82,3.64,5.7Zm520-25.64-32.57-16.16q1.51-3.06,3-6.17l33,15.36C745.44,672.44,744.32,674.77,743.18,677.07Zm-544.85,5q-1.79-3.43-3.47-6.91l32.68-15.92c1,2,2,4,3,6Zm557.19-33.46-34-12.73c.8-2.14,1.58-4.3,2.33-6.46l34.35,11.93Q756.88,645.05,755.52,648.65Zm-570,5.33c-.94-2.38-1.85-4.77-2.75-7.18l27.82-10.27C204.6,640.7,185.49,654,185.49,654Zm579.42-34.82L729.74,610c.57-2.2,1.12-4.4,1.64-6.62l35.4,8.34Q765.88,615.43,764.91,619.16Zm-589.34,5.53c-.71-2.48-1.37-5-2-7.46l35.23-9c.56,2.21,1.15,4.4,1.77,6.59Zm595.65-35.76-35.91-5.68q.53-3.33,1-6.71l36.05,4.7C772,583.81,771.62,586.38,771.22,588.93Zm-602.54,5.62q-.66-3.79-1.24-7.62l36-5.4c.34,2.26.7,4.51,1.1,6.74Zm605.76-36.41-36.3-1.95q.18-3.39.28-6.83l36.35,1.08C774.69,553,774.59,555.58,774.44,558.14Zm-609.55,5.74q-.3-3.87-.47-7.75l36.32-1.68q.16,3.4.4,6.78Zm573.36-35c-.11-2.29-.25-4.56-.4-6.83l36.27-2.55c.18,2.56.33,5.12.44,7.7Zm-537.73,5-36.35-1c.07-2.59.17-5.18.31-7.75l36.31,1.94Q200.61,530.55,200.52,534Zm535.11-32.11c-.33-2.28-.7-4.55-1.08-6.8l35.83-6.16q.64,3.76,1.21,7.56Zm-533,4.93-36.07-4.59c.33-2.57.7-5.14,1.09-7.69l35.93,5.56C203.22,502.3,202.9,504.53,202.62,506.78ZM730.3,475.13q-.84-3.35-1.76-6.64l35-9.77c.69,2.46,1.34,4.93,2,7.42ZM207.46,480,172,471.76c.59-2.52,1.2-5,1.85-7.52l35.2,9.13C208.52,475.56,208,477.77,207.46,480ZM215,453.83,180.6,442c.85-2.45,1.72-4.89,2.63-7.31l34.06,12.71C216.49,449.54,215.73,451.68,215,453.83Zm10.17-25.29-33-15.26c1.08-2.34,2.2-4.67,3.33-7l32.63,16.05C227.11,424.41,226.12,426.46,225.16,428.54Zm473.38-28.37q-1.77-2.88-3.63-5.71l30.43-19.91c1.41,2.16,2.8,4.35,4.16,6.55Zm-460.68,4.24-31.28-18.53q2-3.35,4-6.63l30.77,19.36Q239.6,401.49,237.86,404.41Zm445.22-26.64c-1.37-1.8-2.78-3.58-4.2-5.33l28.28-22.86c1.62,2,3.22,4,4.79,6.08ZM252.93,381.7,223.7,360.08q2.3-3.1,4.66-6.15l28.7,22.31Q255,379,252.93,381.7Zm412.55-24.63q-2.37-2.51-4.78-4.95l25.85-25.56c1.8,1.81,3.58,3.66,5.33,5.52ZM270.22,360.6l-26.94-24.42q2.58-2.85,5.24-5.64l26.36,25.06C273.3,357.25,271.75,358.91,270.22,360.6Zm375.55-22.45c-1.72-1.49-3.44-3-5.19-4.4l23.13-28.05c2,1.64,4,3.31,5.91,5Zm-356.26,3.24-24.32-27c1.91-1.72,3.85-3.42,5.8-5.09l23.65,27.61Q292,339.1,289.51,341.39Zm334.8-20.05q-2.79-2-5.62-3.86l20.22-30.23c2.14,1.44,4.27,2.9,6.37,4.38Zm-313.66,2.85-21.49-29.33q3.13-2.3,6.33-4.51l20.66,29.92Q313.38,322.19,310.65,324.19Zm290.63-17.41q-3-1.66-6-3.27l17-32.12c2.28,1.22,4.55,2.45,6.79,3.72Zm-267.89,2.46L315,277.88c2.23-1.3,4.46-2.58,6.72-3.83l17.59,31.82C337.3,307,335.33,308.09,333.39,309.24Zm243.5-14.6c-2.08-.91-4.18-1.8-6.29-2.65l13.65-33.7q3.6,1.47,7.16,3Zm-219.36,2-15.16-33.05c2.34-1.07,4.69-2.12,7.05-3.13l14.32,33.43C361.65,294.81,359.58,295.72,357.53,296.67ZM551.37,285c-2.17-.69-4.36-1.35-6.55-2L555,248.12c2.48.72,5,1.48,7.41,2.26Zm-168.59,1.59-11.67-34.43q3.64-1.23,7.32-2.39l10.87,34.7C387.11,285.18,384.94,285.88,382.78,286.61ZM525,278.07c-2.2-.47-4.42-.9-6.65-1.31L524.89,241c2.54.47,5.09,1,7.61,1.5Zm-116,1.11-8.12-35.45c2.51-.57,5-1.12,7.58-1.63l7.19,35.64C413.4,278.19,411.19,278.67,409,279.18Zm89.14-5.34q-3.37-.36-6.78-.63L494.22,237c2.59.2,5.15.44,7.71.71Zm-62.3.59-4.52-36.07c2.56-.33,5.12-.61,7.69-.87l3.59,36.19C440.32,273.9,438.06,274.15,435.82,274.43Zm35.08-2.08c-2.28,0-4.54,0-6.82,0l-1.16,0-.73-36.35,1.16,0q3.87-.08,7.73-.06Z"/></g></svg>