<svg id="Layer_1" data-name="Layer 1" xmlns="http://www.w3.org/2000/svg" xmlns:xlink="http://www.w3.org/1999/xlink" viewBox="0 0 1067.22 1121.78"><defs><style>.cls-1{fill:none;}.cls-2{clip-path:url(#clip-path);}.cls-3{fill:#fcd116;}.cls-4{fill:#fbbe0c;}</style><clipPath id="clip-path"><polygon class="cls-1" points="1067.22 0 0 1121.78 0 0 1067.22 0"/></clipPath></defs><title>SciPy Landing</title><g class="cls-2"><polygon class="cls-3" points="1067.22 0 0 1334.8 0 0 1067.22 0"/><rect class="cls-4" x="338.86" y="501.91" width="919.77" height="24.89" transform="translate(-125.37 734.72) rotate(-46.19)"/><rect class="cls-4" x="403.47" y="563.52" width="919.78" height="24.89" transform="translate(-149.95 800.3) rotate(-46.19)"/><rect class="cls-4" x="468.07" y="625.14" width="919.78" height="24.89" transform="translate(-174.54 865.88) rotate(-46.19)"/><rect class="cls-4" x="532.67" y="686.76" width="919.78" height="24.89" transform="translate(-199.13 931.47) rotate(-46.19)"/><rect class="cls-4" x="597.27" y="748.38" width="919.77" height="24.89" transform="translate(-223.71 997.05) rotate(-46.19)"/><polygon class="cls-4" points="-398.46 1145.96 348.19 363.16 590.17 593.96 415.6 778.84 323.77 691.25 340.95 673.24 414.67 743.56 555.07 594.88 349.03 398.35 -380.44 1163.14 -398.46 1145.96"/><polygon class="cls-4" points="181.41 690.53 335.22 529.27 426.77 614.82 409.78 633.01 336.23 564.28 216.6 689.7 981.39 1419.17 964.21 1437.18 181.41 690.53"/><rect class="cls-4" x="-749.87" y="367.69" width="919.77" height="24.89" transform="translate(-363.57 -92.28) rotate(-46.19)"/><rect class="cls-4" x="-685.27" y="429.3" width="919.77" height="24.89" transform="translate(-388.15 -26.7) rotate(-46.19)"/><rect class="cls-4" x="-620.67" y="490.92" width="919.77" height="24.89" transform="translate(-412.74 38.88) rotate(-46.19)"/><rect class="cls-4" x="-556.06" y="552.54" width="919.78" height="24.89" transform="translate(-437.33 104.47) rotate(-46.19)"/><rect class="cls-4" x="-491.46" y="614.16" width="919.78" height="24.89" transform="translate(-461.91 170.05) rotate(-46.19)"/><rect class="cls-4" x="547.81" y="-491.04" width="24.89" height="919.78" transform="translate(194.94 394.76) rotate(-46.2)"/><rect class="cls-4" x="486.19" y="-426.44" width="24.89" height="919.78" transform="translate(129.35 370.17) rotate(-46.2)"/><rect class="cls-4" x="424.57" y="-361.84" width="24.89" height="919.78" transform="translate(63.76 345.59) rotate(-46.2)"/><rect class="cls-4" x="362.95" y="-297.23" width="24.89" height="919.77" transform="translate(-1.84 321) rotate(-46.2)"/><rect class="cls-4" x="731.7" y="-684.85" width="24.89" height="919.77" transform="translate(391.42 467.82) rotate(-46.2)"/><rect class="cls-4" x="670.08" y="-620.25" width="24.89" height="919.77" transform="translate(325.83 443.24) rotate(-46.2)"/><rect class="cls-4" x="608.46" y="-555.65" width="24.89" height="919.78" transform="translate(260.24 418.65) rotate(-46.2)"/><rect class="cls-4" x="301.33" y="-232.63" width="24.89" height="919.77" transform="translate(-67.43 296.41) rotate(-46.2)"/><rect class="cls-4" x="441.35" y="605.32" width="24.89" height="919.77" transform="translate(-629.1 655.4) rotate(-46.2)"/><rect class="cls-4" x="379.73" y="669.92" width="24.89" height="919.77" transform="translate(-694.69 630.82) rotate(-46.2)"/><rect class="cls-4" x="318.11" y="734.52" width="24.89" height="919.78" transform="translate(-760.29 606.23) rotate(-46.2)"/><rect class="cls-4" x="256.49" y="799.13" width="24.89" height="919.78" transform="translate(-825.88 581.65) rotate(-46.2)"/><rect class="cls-4" x="194.87" y="863.73" width="24.89" height="919.78" transform="translate(-891.47 557.06) rotate(-46.2)"/></g></svg>