<svg xmlns="http://www.w3.org/2000/svg" width="18.598" height="15.085" viewBox="0 0 18.598 15.085">
  <path id="Path_2" data-name="Path 2" d="M43.89,17.085A10.753,10.753,0,0,0,54.739,6.236V5.72A8.4,8.4,0,0,0,56.6,3.757a8.577,8.577,0,0,1-2.17.62A4.02,4.02,0,0,0,56.082,2.31a9.477,9.477,0,0,1-2.376.93A3.69,3.69,0,0,0,50.916,2a3.882,3.882,0,0,0-3.823,3.823,2.014,2.014,0,0,0,.1.827,10.683,10.683,0,0,1-7.853-4.03,3.957,3.957,0,0,0-.517,1.963,4.105,4.105,0,0,0,1.653,3.2,3.483,3.483,0,0,1-1.757-.517h0a3.776,3.776,0,0,0,3.1,3.72,3.185,3.185,0,0,1-1.033.1,1.758,1.758,0,0,1-.723-.1,3.914,3.914,0,0,0,3.616,2.686,7.8,7.8,0,0,1-4.753,1.653,2.861,2.861,0,0,1-.93-.1,9.753,9.753,0,0,0,5.89,1.86" transform="translate(-38 -2)" fill="#fff" fill-rule="evenodd"/>
</svg>
