<?xml version="1.0" encoding="UTF-8" standalone="no"?>
<svg
   xmlns:dc="http://purl.org/dc/elements/1.1/"
   xmlns:cc="http://creativecommons.org/ns#"
   xmlns:rdf="http://www.w3.org/1999/02/22-rdf-syntax-ns#"
   xmlns:svg="http://www.w3.org/2000/svg"
   xmlns="http://www.w3.org/2000/svg"
   version="1.1"
   id="svg2"
   viewBox="0 0 800.00001 200"
   height="200"
   width="800">
  <defs
     id="defs4" />
  <metadata
     id="metadata7">
    <rdf:RDF>
      <cc:Work
         rdf:about="">
        <dc:format>image/svg+xml</dc:format>
        <dc:type
           rdf:resource="http://purl.org/dc/dcmitype/StillImage" />
        <dc:title></dc:title>
      </cc:Work>
    </rdf:RDF>
  </metadata>
  <g
     transform="translate(0,-852.36216)"
     id="layer1">
    <g
       transform="translate(41.761831,28.636677)"
       id="g3474">
      <g
         transform="translate(4.0000002,0)"
         id="g4280">
        <path
           style="fill:#ffe600;fill-opacity:1"
           d="m 80.012428,1023.0546 c -23.85212,-2.216 -47.24559,-8.7273 -65.94505,-18.3551 -29.9479,-15.41915 -49.01924,-38.48255 -54.72544,-66.18065 -1.29137,-6.2684 -1.50354,-25.475 -0.34921,-31.6128 3.10055,-16.4864 13.98469,-33.845 29.15503,-46.4982 23.01193,-19.1936 54.22127,-31.4308 91.52475,-35.8869 9.05761,-1.082 38.299772,-1.0531 46.909372,0.046 23.47078,2.9972 41.21525,7.7303 58.7553,15.6723 15.10255,6.8383 26.42164,14.3896 37.43067,24.971 13.39235,12.8721 21.20934,26.4238 24.13337,41.8381 1.32755,6.9983 1.33725,21.73 0.0193,29.2878 -8.26003,47.3663 -55.21935,80.76355 -122.03827,86.79285 -9.18395,0.8287 -35.619202,0.7847 -44.869832,-0.075 z m 16.53985,-45.69215 c 2.84525,-1.1888 5.671212,-4.5545 6.543252,-7.793 2.1125,-7.8452 -5.888822,-15.3349 -13.992202,-13.0974 -3.47337,0.959 -3.94542,0.3008 -3.13942,-4.3774 0.88303,-5.1254 0.0977,-8.3709 -2.56811,-10.6127 -3.46894,-2.9172 -7.76875,-3.3808 -11.71908,-1.2635 -1.39529,0.7478 -2.69483,1.3597 -2.88786,1.3597 -0.19302,0 -1.07111,-1.6284 -1.95129,-3.6187 -1.80783,-4.0878 -4.56461,-5.8992 -8.97819,-5.8992 -3.04403,0 -7.57213,2.0479 -9.82089,4.4416 l -1.60658,1.7101 -1.39562,-2.8648 c -1.89562,-3.8912 -4.4994,-5.6822 -8.14647,-5.6034 -9.25454,0.1998 -11.76416,12.8036 -3.26198,16.3823 2.09987,0.8838 3.00089,0.9282 5.25392,0.2587 6.01969,-1.7888 5.57377,-1.981 5.90097,2.5425 0.37496,5.1836 2.60032,8.3367 7.09559,10.0535 3.01052,1.1497 3.32145,1.151 6.48273,0.028 3.7625,-1.3364 4.65524,-1.0796 4.65524,1.3387 0,2.8745 1.85613,5.4948 4.95502,6.9949 3.68326,1.7831 5.59445,1.7981 8.81946,0.07 1.39529,-0.7478 2.80761,-1.3597 3.13849,-1.3597 0.33088,0 0.9417,1.3507 1.35738,3.0015 1.82096,7.2317 8.77908,11.0187 15.26564,8.3084 z m 26.586112,-1.0953 c 0.97831,-0.372 1.73812,-1.1927 1.73075,-1.8696 -0.007,-0.6636 -2.62524,-4.0615 -5.81783,-7.5508 -5.63278,-6.1562 -6.69411,-8.3419 -4.27678,-8.8075 0.62603,-0.1205 4.52689,2.8892 9.11797,7.0351 l 8.02386,7.2457 3.73554,-0.3098 c 3.13489,-0.26 4.04512,-0.6563 5.66087,-2.4646 3.46973,-3.8833 3.37978,-4.0704 -8.14803,-16.9509 -3.1107,-3.4757 -5.5345,-6.688 -5.38624,-7.1384 0.14826,-0.4504 0.89336,-0.9113 1.65577,-1.0243 0.97849,-0.145 3.93194,2.1545 10.04136,7.8182 4.76033,4.413 9.16044,8.2316 9.778,8.4858 3.80601,1.5663 10.05359,-0.65 12.39949,-4.3987 2.62973,-4.2022 1.81362,-5.6458 -9.89031,-17.4944 -5.81033,-5.8821 -10.56424,-11.2008 -10.56424,-11.8194 0,-1.6302 1.81081,-2.0737 3.57444,-0.8755 0.83842,0.5697 6.11336,5.189 11.72209,10.2653 11.05156,10.0023 12.99703,11.0921 17.59202,9.8548 6.50651,-1.752 8.58564,-7.7545 4.35502,-12.5729 -2.70501,-3.0808 -21.69924,-19.6458 -42.0025,-36.6306 -17.61493,-14.7359 -21.42784,-17.0105 -27.73635,-16.5458 -5.48162,0.4037 -10.045352,2.7577 -20.192782,10.4154 -11.42971,8.6255 -13.33828,9.4999 -20.7353,9.5 -9.63046,0 -16.32059,-3.3975 -16.46168,-8.36 -0.0767,-2.6982 0.81604,-3.9968 8.25344,-12.0054 5.87683,-6.3282 6.94409,-7.835 5.54945,-7.835 -0.34059,0 -3.61779,0.7981 -7.28267,1.7735 -12.73182,3.3888 -23.61274,1.9864 -48.4357496,-6.2422 l -15.20699,-5.0411 -3.21115,2.6885 c -5.4944204,4.6002 -12.2594104,12.2055 -16.1058104,18.1064 -5.87665,9.0156 -10.57296,20.8457 -8.91402,22.4545 0.47194,0.4577 6.51778,2.263 13.43521,4.0118 17.7501804,4.4873 29.6107604,8.5048 39.3327,13.3228 l 8.39971,4.1628 3.15767,-1.5915 c 4.841,-2.4399 9.80793,-2.2266 14.38314,0.6175 3.54067,2.201 3.62735,2.2174 6.22409,1.1784 6.05471,-2.4227 14.35116,-0.6422 18.65147,4.0026 1.94708,2.1031 2.351,2.2504 5.26865,1.9215 8.24532,-0.9294 16.68209,5.5471 16.74222,12.8521 0.0218,2.653 0.68555,3.9647 2.00609,3.9647 2.59206,0 7.550382,2.2651 9.852562,4.501 4.55295,4.4217 6.39535,10.0083 5.14326,15.5953 -0.43846,1.9565 -0.47927,3.4818 -0.1032,3.8579 2.13626,2.1362 11.03254,3.2853 14.68479,1.8968 z m 67.50783,-53.111 c 11.76057,-4.6958 26.30742,-9.4168 38.59239,-12.5249 5.60873,-1.4191 10.57065,-2.9157 11.02649,-3.3259 0.64973,-0.5847 0.59962,-1.6264 -0.23197,-4.8216 -2.96879,-11.4071 -12.98609,-26.8827 -22.62462,-34.9525 l -3.40887,-2.8541 -6.40964,2.4007 c -24.72433,9.2603 -46.82805,8.9737 -68.92653,-0.8938 -13.57187,-6.0601 -25.30659,-8.3077 -35.9998,-6.8952 -10.635572,1.4049 -17.799942,4.6677 -26.511992,12.074 -5.0189,4.2666 -18.57416,19.0287 -18.57416,20.2277 0,2.9833 8.32984,4.5952 14.49079,2.8042 2.91629,-0.8478 6.24224,-2.93 13.878,-8.6883 12.35034,-9.3137 15.685482,-10.9673 22.829302,-11.3192 4.83231,-0.238 5.68863,-0.074 9.54613,1.8247 5.89676,2.903 19.06855,13.6833 56.5292,46.2657 2.6174,2.2766 5.28929,4.1403 5.93752,4.1415 0.64823,10e-4 5.08422,-1.557 9.85776,-3.463 z"
           id="path3478" />
        <path
           style="fill:#2c3966"
           d="m 82.499995,1023.2897 c -65.68692,-5.6141 -113.4999,-38.36311 -122.82232,-84.12581 -1.71654,-8.42628 -1.93909,-24.59083 -0.44523,-32.33742 5.06489,-26.26449 25.40921,-48.90201 58.2591,-64.82601 25.79509,-12.50419 52.95513,-18.29114 85.770305,-18.27494 24.25592,0.012 44.03144,3.05867 65.18786,10.04312 39.12988,12.91811 66.93822,36.47724 76.32133,64.65917 5.16836,15.52309 4.53995,35.51843 -1.658,52.75555 -8.04924,22.38572 -26.02211,41.09245 -51.94104,54.06184 -17.97997,8.9969 -34.48057,13.8015 -58.63933,17.0744 -9.52431,1.2903 -39.488665,1.8713 -50.032675,0.9701 z m 42.885155,-17.0551 c 39.43569,-4.0072 75.58341,-19.46009 96.33594,-41.18299 6.68725,-6.99995 10.78131,-12.81521 14.58267,-20.71341 3.89318,-8.089 5.81544,-15.58617 6.01171,-23.44674 0.14594,-5.84501 0.0843,-6.13621 -1.34187,-6.33915 -3.41737,-0.48627 -43.99246,11.64522 -52.43195,15.67655 -2.50765,1.19783 -3.2003,1.86615 -3.02168,2.91551 1.27847,7.51073 0.8493,10.34087 -2.07284,13.66899 -2.66246,3.03236 -6.31261,4.91167 -10.80621,5.56362 -3.46945,0.50337 -3.51513,0.54177 -4.8262,4.05815 -2.27136,6.09192 -8.53085,10.40472 -15.10115,10.40472 -2.1045,0 -2.70413,0.37349 -4.09835,2.55268 -3.60692,5.63771 -8.14967,8.33878 -14.02443,8.33878 -2.71357,0 -4.00689,0.41693 -6.18278,1.99314 -5.25659,3.80785 -12.93141,4.06895 -20.77502,0.70679 l -3.07015,-1.31602 -3.8839,2.2011 c -3.299935,1.87014 -4.549155,2.1973 -8.308555,2.17591 -5.54084,-0.0315 -9.01265,-1.73484 -13.02098,-6.38822 -2.50197,-2.90461 -3.16454,-3.31715 -4.80167,-2.98972 -4.38389,0.87677 -12.74373,-2.99521 -14.81241,-6.86058 -0.7174,-1.34046 -1.479,-1.7753 -3.10941,-1.7753 -3.27144,0 -8.28239,-1.71296 -10.93943,-3.73959 -1.30676,-0.99671 -3.29157,-3.43465 -4.4107,-5.41764 -1.91146,-3.38691 -2.22975,-3.63196 -5.25145,-4.04307 -4.36712,-0.59416 -8.19127,-2.89904 -10.67624,-6.43475 -1.86898,-2.65927 -2.07089,-3.45361 -2.07486,-8.16283 l -0.004,-5.21688 -3.22815,-2.16038 c -6.23887,-4.17524 -25.2887201,-10.67809 -45.11842,-15.40161 -5.25499,-1.25176 -9.92641,-2.15196 -10.38093,-2.00046 -1.0459,0.34863 -1.11202,9.19096 -0.111,14.84259 4.10553,23.17911 22.08097,44.51987 49.82211,59.1497 31.01319,16.35541 71.37913,23.38051 111.132705,19.34111 z M 97.603815,977.28457 c 5.653195,-2.68262 7.855115,-10.89799 4.308295,-16.07424 -0.92956,-1.3566 -2.874315,-3.13211 -4.321695,-3.94558 -2.29951,-1.2924 -3.23561,-1.41952 -7.4183,-1.00737 l -4.78672,0.47167 0.42508,-1.92195 c 1.18512,-5.35844 1.17543,-8.08461 -0.037,-10.41734 -2.68086,-5.15784 -9.47191,-7.07033 -14.41186,-4.05864 -2.63167,1.60442 -2.77293,1.52741 -4.17865,-2.27804 -1.4027,-3.79724 -4.60514,-5.92979 -8.90473,-5.92979 -4.10603,0 -5.95754,0.70651 -9.11373,3.47769 -2.04023,1.79134 -2.62995,2.02449 -3.12843,1.23685 -0.33784,-0.53383 -0.61896,-1.28005 -0.62469,-1.65827 -0.005,-0.37822 -0.80624,-1.54591 -1.77889,-2.59489 -3.16815,-3.4167 -7.2602,-4.10744 -10.96192,-1.85037 -2.75877,1.68212 -4.28753,4.61676 -4.28753,8.23043 0,2.29505 0.42647,3.25121 2.27431,5.09905 2.80793,2.80793 5.32057,3.4932 8.91639,2.43174 4.82162,-1.42331 4.77233,-1.44855 5.16751,2.64569 0.42122,4.3641 1.21745,6.00989 4.06798,8.40845 2.86222,2.4084 6.38674,2.96215 10.17748,1.59901 3.37256,-1.21277 4.08378,-0.82025 4.10246,2.26415 0.0146,2.40063 1.68341,4.5303 4.7933,6.11686 3.37791,1.72327 6.52749,1.71436 9.38292,-0.0266 2.67336,-1.6299 3.21258,-1.41369 3.80007,1.52374 0.64367,3.21836 3.33747,6.93781 5.96081,8.23034 2.93752,1.44732 7.56001,1.45928 10.57757,0.0274 z m 24.133885,-0.24942 c 1.36346,-0.37871 2.85708,-1.14412 3.31916,-1.70089 0.90958,-1.09598 0.63223,-1.48379 -7.75338,-10.84121 -3.3101,-3.69372 -3.85373,-4.6337 -3.16192,-5.46727 1.1988,-1.44447 2.46263,-0.59941 10.25372,6.85615 7.13279,6.82563 8.40144,7.3772 13.98705,6.08116 2.43944,-0.56603 5.04181,-3.72383 5.04181,-6.11789 0,-1.79507 -1.23487,-3.55028 -7.1401,-10.14881 -7.3534,-8.21671 -8.77981,-10.14915 -8.03862,-10.89034 1.24892,-1.24892 3.51234,0.27207 10.85059,7.2915 8.99918,8.60817 9.99845,9.29656 13.49493,9.29656 7.50334,0 12.92707,-7.03642 9.45905,-12.27161 -0.61321,-0.9257 -5.58358,-6.19778 -11.04524,-11.71574 -8.93768,-9.02981 -9.82561,-10.13737 -8.88296,-11.08002 0.94267,-0.94267 1.31527,-0.84773 3.72754,0.94977 1.47411,1.09843 6.94771,5.85124 12.16356,10.56181 10.2334,9.24204 11.90247,10.10508 16.73973,8.65581 5.01866,-1.50363 7.4394,-6.62612 5.32467,-11.26745 -1.28158,-2.81276 -51.66071,-46.05141 -59.96847,-51.46885 -5.49497,-3.58323 -9.27715,-4.374 -14.43445,-3.01792 -4.84571,1.27416 -8.352915,3.36122 -17.974195,10.69602 -11.02777,8.40704 -16.16454,10.22343 -24.59089,8.69544 -7.79769,-1.414 -11.5819,-4.24959 -11.5819,-8.67858 0,-1.91414 1.13121,-3.4811 7.62796,-10.5663 5.46451,-5.95946 7.30751,-8.38058 6.4981,-8.53645 -0.62142,-0.11968 -4.41941,0.60606 -8.43997,1.61277 -11.6527,2.9177 -20.98467,1.97039 -41.08336,-4.17049 -5.42872,-1.65866 -12.3209801,-3.93408 -15.31613007,-5.05648 -2.99515003,-1.1224 -5.81121003,-2.04183 -6.25789003,-2.04319 -1.44224,-0.004 -9.4563999,7.2874 -13.9981099,12.73634 -7.76923,9.32119 -14.62405,22.39757 -14.99048,28.59615 l -0.15079,2.55084 12.59326,3.23704 c 22.55789993,5.79842 37.93795,11.26195 45.66999,16.22359 l 3.27276,2.10012 2.98728,-1.75066 c 5.06443,-2.96796 11.12396,-2.32262 16.96,1.80622 0.92241,0.65259 1.82476,0.58103 4.42466,-0.35085 6.35775,-2.27882 12.86794,-0.98599 17.42406,3.46014 2.45896,2.39959 2.80992,2.52396 7.14753,2.53284 8.65601,0.0177 14.52224,4.74256 15.6238,12.58392 l 0.52596,3.74395 3.09531,0.76613 c 4.39619,1.08812 6.908955,2.53382 9.466065,5.44622 3.51065,3.9984 4.3199,6.6169 3.90928,12.64922 -0.40602,5.96472 -0.34923,6.0579 4.61558,7.57357 4.13417,1.2621 5.40483,1.32673 8.60545,0.43772 z m 68.86648,-53.5133 c 12.4702,-4.95257 26.79043,-9.59936 39.61135,-12.85353 5.61592,-1.42542 10.50961,-2.85599 10.87488,-3.17905 0.93618,-0.82801 -1.12303,-8.27431 -4.02532,-14.55593 -3.53658,-7.65445 -8.06943,-14.05001 -15.289,-21.57178 -7.47629,-7.78922 -5.64271,-7.50112 -18.78923,-2.95228 -12.35215,4.27399 -19.8989,5.43961 -32.29171,4.98757 -11.28418,-0.4116 -19.09231,-2.10681 -29.12306,-6.32283 -16.59587,-6.97542 -24.89765,-8.89272 -35.58737,-8.21893 -13.191145,0.83146 -21.875355,4.78575 -32.250055,14.6848 -6.24036,5.95425 -16.76155,17.52935 -16.76155,18.44056 0,1.36411 5.67801,3.35382 9.61463,3.36919 5.88414,0.0229 9.00676,-1.48332 19.2176,-9.27019 11.89841,-9.07384 16.131015,-11.24558 22.757135,-11.67665 4.64222,-0.302 5.2751,-0.16624 9.87039,2.11731 5.79742,2.88094 16.11236,11.12526 42.64811,34.08693 10.64725,9.21318 19.47219,16.75123 19.611,16.75123 0.13881,0 4.5993,-1.72638 9.9122,-3.83642 z M 59.497635,867.79556 c 5.06805,-1.31038 10.33611,-2.38251 11.70679,-2.38251 1.70865,0 3.66201,-0.76391 6.21315,-2.4298 11.12824,-7.26672 18.3393,-9.41548 31.630365,-9.42525 11.67298,-0.009 17.56306,1.30311 30.52661,6.79815 4.89994,2.077 11.82939,4.58706 15.39879,5.57791 5.95666,1.65354 7.52433,1.80019 19.08306,1.78519 11.57078,-0.015 13.14133,-0.16679 19.34346,-1.8692 8.25501,-2.2659 14.15962,-4.58129 14.52247,-5.69472 0.65101,-1.99772 -20.94271,-13.93977 -34.08842,-18.85204 -14.59897,-5.45532 -32.94903,-9.64303 -49.46984,-11.28962 -9.32739,-0.92965 -33.911555,-0.92031 -42.555735,0.0162 -24.28588,2.63103 -45.30912,8.45908 -63.97643,17.73551 -9.8879901,4.91369 -17.02862007,9.32331 -17.00324007,10.50018 0.0176,0.81453 5.60469997,2.86483 17.97758007,6.59721 20.2278,6.10188 26.64565,6.56444 40.69139,2.93282 z M 372.48533,1008.6147 c -8.25574,-1.2808 -16.33638,-6.3503 -19.5482,-12.26382 -3.68007,-6.77562 -3.93686,-9.16749 -3.93272,-36.6314 0.002,-15.01762 0.28422,-26.22331 0.69725,-27.71037 0.95931,-3.45385 4.53634,-6.39638 8.98623,-7.39223 6.64766,-1.48768 6.28317,-2.22467 6.49413,13.13116 0.19596,14.26505 0.43734,15.1476 3.28286,12.00334 0.71276,-0.7876 2.67475,-2.24263 4.35998,-3.23341 2.78807,-1.63916 3.70785,-1.80142 10.21158,-1.80142 6.55745,0 7.47313,0.16498 11.09146,1.99836 7.46842,3.78421 12.61564,11.60312 14.46404,21.97169 1.24415,6.97909 1.22317,11.38874 -0.0843,17.71865 -3.01386,14.59105 -11.73031,21.59065 -27.72409,22.26325 -3.44083,0.1447 -7.17502,0.1205 -8.29821,-0.054 z m 12.54598,-14.18137 c 5.32284,-2.75255 7.7707,-8.88175 7.428,-18.59898 -0.19525,-5.5361 -0.53481,-7.2212 -2.08683,-10.35594 -2.97481,-6.00844 -8.40213,-8.53638 -14.69128,-6.84288 -6.78727,1.82762 -10.39729,8.17758 -10.44259,18.36834 -0.0387,8.70241 2.93222,15.30994 7.84516,17.44818 2.83482,1.2338 9.54577,1.22328 11.94754,-0.0187 z m 92.62476,14.15497 c -3.93046,-0.6249 -11.46845,-3.822 -14.63541,-6.2074 -6.88545,-5.186 -9.80239,-11.76565 -10.3676,-23.38587 -0.76219,-15.66978 4.54021,-26.42582 15.71688,-31.88206 4.76835,-2.32782 12.45327,-3.64543 17.71929,-3.03802 16.73658,1.93045 25.86698,11.94778 26.78999,29.39233 l 0.36867,6.96779 -22.05039,0.17973 -22.05039,0.17974 0.0346,3.10397 c 0.0453,4.05243 2.26959,7.62568 6.16971,9.91131 2.51192,1.47207 3.86589,1.7714 8.01279,1.7714 5.14038,0 6.85799,-0.55994 10.17069,-3.31563 1.7715,-1.47362 2.53818,-1.60066 9.66006,-1.60066 4.57268,0 7.913,0.28667 8.16912,0.70107 0.59959,0.97016 -2.44503,5.97603 -5.59975,9.2069 -6.16265,6.3115 -17.85491,9.6457 -28.10831,8.0154 z m 18.23487,-39.19577 c 1.78518,-2.16095 -2.77935,-9.27482 -7.15135,-11.14548 -2.82716,-1.20966 -9.13078,-1.20257 -12.04135,0.0136 -3.71392,1.55178 -8.34213,8.53286 -7.38007,11.13194 0.23664,0.63931 3.49224,0.8509 13.0924,0.8509 9.39324,0 12.96362,-0.22537 13.48037,-0.8509 z M 294.03273,1007.232 c -0.66625,-0.2688 -0.8509,-8.47475 -0.8509,-37.81585 0,-36.51558 0.0354,-37.52984 1.38711,-39.7169 1.68368,-2.72426 6.30624,-5.08844 10.30478,-5.27031 l 2.94353,-0.13389 0.17557,40.76676 c 0.12724,29.544 -0.0363,41.02199 -0.59389,41.69389 -0.54759,0.6598 -2.46287,0.9117 -6.64238,0.8734 -3.23011,-0.029 -6.25583,-0.2082 -6.72382,-0.3971 z m 27.21606,-0.3446 c -0.63774,-0.6377 -0.83828,-7.79488 -0.83828,-29.91727 0,-15.99345 0.18593,-29.56354 0.41318,-30.15575 0.34335,-0.89475 1.72525,-1.07675 8.17554,-1.07675 l 7.76235,0 -0.17712,30.80243 -0.17711,30.80244 -7.16013,0.1916 c -4.98877,0.1335 -7.41435,-0.063 -7.99843,-0.6467 z m 93.93891,0 c -1.25121,-1.2512 -1.13682,-32.7415 0.14082,-38.76917 2.29658,-10.83473 8.90599,-18.56295 18.88742,-22.08461 3.36427,-1.18698 13.63264,-2.50135 15.11065,-1.93419 0.92379,0.35449 1.10081,1.65547 1.10081,8.08993 l 0,7.66752 -5.28825,0.4613 c -7.01913,0.61229 -10.1515,2.34426 -12.41038,6.86202 -1.65816,3.31631 -1.71052,3.87486 -2.04215,21.78294 l -0.34036,18.37936 -7.16013,0.1916 c -4.98877,0.1335 -7.41435,-0.063 -7.99843,-0.6467 z m -94.36401,-68.35298 c -0.22725,-0.59221 -0.41318,-3.63038 -0.41318,-6.75149 0,-3.1211 0.18593,-6.15928 0.41318,-6.75149 0.34332,-0.89467 1.72463,-1.07675 8.1686,-1.07675 l 7.75542,0 0,7.82824 0,7.82825 -7.75542,0 c -6.44397,0 -7.82528,-0.18208 -8.1686,-1.07676 z m 93.18537,-24.84207 c -6.02171,-0.88662 -14.48547,-5.29129 -18.28246,-9.51446 -5.53648,-6.1579 -8.19113,-17.20419 -6.74034,-28.04728 1.81116,-13.53647 7.6045,-21.3181 19.20346,-25.79418 2.90786,-1.12215 5.34386,-1.46888 10.58435,-1.50653 11.8831,-0.0854 20.20741,3.74043 25.5976,11.76447 3.96682,5.90516 5.00899,9.58863 5.02268,17.7523 l 0.012,7.14752 -21.75866,0.17994 c -11.96726,0.099 -22.02997,0.45124 -22.36156,0.78284 -0.35006,0.35006 -0.14841,2.1663 0.48082,4.33078 1.27157,4.37406 4.95317,8.15656 9.04484,9.29276 5.72547,1.58987 13.207,0.21267 15.78801,-2.90625 0.77382,-0.93508 2.31584,-1.12896 8.97933,-1.12896 4.46683,0 8.2267,0.29387 8.45343,0.66073 0.63787,1.0321 -1.53367,4.6768 -4.9846,8.36613 -6.51818,6.96846 -17.70433,10.28907 -29.03888,8.62019 z m 18.9129,-39.6323 c 0.51529,-1.34282 -1.24097,-5.84146 -3.02821,-7.75671 -2.60378,-2.79028 -6.25738,-4.29388 -10.4337,-4.29388 -6.36969,0 -10.41283,2.56682 -12.96778,8.2327 -2.10191,4.6612 -1.99317,4.70092 12.86833,4.70092 10.20669,0 13.2998,-0.2014 13.56136,-0.88303 z m 83.46177,38.73662 c -12.95025,-3.73402 -19.86608,-14.41239 -19.88677,-30.70606 -0.0188,-14.78159 5.2056,-24.9345 15.4019,-29.93174 14.86769,-7.2867 35.45871,-2.99359 41.38822,8.6292 1.59689,3.13017 3.27539,9.40768 2.82925,10.58125 -0.23352,0.61423 -2.553,0.8509 -8.33938,0.8509 l -8.01589,0 -1.75109,-3.57912 c -0.99084,-2.0252 -2.6041,-4.08299 -3.71582,-4.7397 -4.45954,-2.63431 -11.0906,-2.11002 -15.00847,1.18666 -7.23647,6.08909 -6.80001,27.6637 0.67139,33.18721 3.90304,2.88548 12.13712,2.70799 15.37234,-0.33134 0.83312,-0.78267 2.04281,-2.83192 2.6882,-4.55388 0.64539,-1.72196 1.49548,-3.35589 1.8891,-3.63096 0.86205,-0.6024 13.43002,-0.69297 14.95504,-0.10777 3.08382,1.18337 -1.49751,11.74303 -7.45828,17.19084 -5.43285,4.96532 -9.61638,6.37486 -19.71471,6.64243 -5.37973,0.14253 -9.23942,-0.0923 -11.30503,-0.68792 z m 57.35422,-0.31281 c -2.00376,-0.7153 -4.45434,-1.90199 -5.44573,-2.63707 -6.88688,-5.10622 -8.70612,-16.79945 -3.89173,-25.01453 3.25669,-5.55718 9.28205,-8.28337 22.51062,-10.18499 11.74904,-1.68893 13.78105,-2.96061 13.15697,-8.23375 -0.39591,-3.3448 -3.24267,-4.74512 -9.63548,-4.73969 -6.56334,0.005 -8.62339,1.03732 -10.26541,5.14112 l -1.07329,2.6824 -7.4934,0 -7.4934,0 0,-2.03485 c 0,-2.68937 2.20253,-8.38624 4.31105,-11.15065 2.2158,-2.90513 8.5754,-6.22671 13.91494,-7.26772 5.66275,-1.10403 15.63082,-0.4866 21.32597,1.32098 6.12618,1.94435 10.43301,5.75011 11.8297,10.45337 1.20882,4.0705 1.48846,31.86022 0.36146,35.91688 -1.3502,4.85988 -4.92138,9.73191 -8.86232,12.09047 -5.87513,3.51617 -9.49593,4.35922 -20.07679,4.67456 -8.13694,0.24251 -10.06255,0.0939 -13.17316,-1.01653 z m 20.05296,-12.4227 c 4.58831,-2.36122 6.39418,-5.95117 6.39418,-12.71128 0,-4.94374 -0.0402,-5.06596 -1.53161,-4.63291 -0.84239,0.24464 -3.52271,0.91923 -5.95627,1.4991 -9.64726,2.29873 -11.81248,3.2068 -13.43197,5.63327 -2.61933,3.92443 -1.531,9.09242 2.3789,11.29593 2.60803,1.46985 8.14409,0.97576 12.14677,-1.08411 z m 48.83544,12.71629 c -13.99043,-3.39356 -20.63096,-13.1718 -20.65022,-30.40777 -0.0211,-18.62257 7.59734,-30.48718 21.38022,-33.29748 6.97347,-1.42188 13.14893,0.0615 18.49569,4.44274 1.58947,1.30245 3.0394,2.36807 3.22204,2.36807 0.1827,0 0.43749,-4.37942 0.56615,-9.73205 0.19155,-7.96436 0.4571,-10.07219 1.46225,-11.60468 1.64917,-2.51438 4.81396,-4.34583 9.01772,-5.21853 6.31869,-1.31176 5.82667,-4.17256 5.60557,32.59389 l -0.19502,32.42187 -2.10444,4.42466 c -3.50385,7.36715 -9.30084,12.02846 -17.30518,13.91498 -5.24629,1.23648 -14.59947,1.28172 -19.49478,0.0943 z m 16.78968,-14.27451 c 5.22613,-3.45851 7.88229,-13.1879 6.13223,-22.4626 -1.68892,-8.95103 -7.13057,-13.83182 -14.71954,-13.20248 -2.26148,0.18754 -4.45672,0.84717 -5.57439,1.67505 -4.78735,3.54606 -7.27162,10.44082 -6.80159,18.87694 0.48331,8.67398 3.75395,14.69342 9.04217,16.64146 3.1963,1.17745 8.94632,0.44026 11.92112,-1.52837 z m 48.92985,14.25433 c -13.30903,-3.67025 -21.04136,-15.32083 -21.02094,-31.67301 0.0177,-14.33418 5.93578,-25.01844 16.66946,-30.09509 4.71158,-2.2284 4.87577,-2.25368 14.63541,-2.25368 9.75964,0 9.92383,0.0253 14.63541,2.25368 10.73381,5.07671 16.66143,15.77836 16.66143,30.08036 0,16.50542 -7.83784,28.11924 -21.42645,31.74908 -4.23324,1.13079 -15.96083,1.0951 -20.15432,-0.0613 z m 13.61951,-12.67069 c 6.3131,-1.45532 9.7625,-5.96027 11.01583,-14.387 1.52113,-10.22761 -1.56047,-19.27597 -7.61715,-22.36587 -2.33642,-1.19198 -3.76967,-1.41651 -7.75643,-1.21519 -6.17103,0.31163 -9.17694,2.34223 -11.82296,7.98674 -1.57586,3.36163 -1.78919,4.66903 -1.78919,10.96427 0,6.29525 0.21333,7.60264 1.78919,10.96428 2.025,4.3198 5.17781,7.08191 9.14496,8.01179 3.5643,0.83545 3.58874,0.83559 7.03575,0.041 z M 293.31796,889.732 l 0.20423,-22.6505 2.21228,-4.49143 c 2.62575,-5.33084 6.90473,-9.51615 12.30391,-12.03456 3.36191,-1.56815 4.74642,-1.80313 10.67033,-1.81099 7.60938,-0.0101 10.97878,1.08058 15.44058,4.99809 1.34079,1.17722 2.79821,2.1404 3.23873,2.1404 0.44053,0 1.9317,-0.905 3.31373,-2.01111 10.64903,-8.52302 27.73464,-6.74533 35.68534,3.71291 4.85428,6.38523 5.28792,9.12647 5.28792,33.42682 l 0,21.37087 -7.10261,0 -7.10261,0 -0.2151,-20.59168 c -0.20001,-19.1484 -0.31051,-20.75368 -1.57652,-22.90303 -2.24318,-3.80831 -4.62373,-5.15719 -9.05422,-5.13031 -4.57411,0.0278 -7.54934,1.40809 -9.782,4.53834 -1.55642,2.18214 -1.59148,2.60065 -1.92564,22.98447 l -0.34036,20.76186 -7.14753,0 -7.14752,0 -0.34036,-20.76186 c -0.31368,-19.13474 -0.44589,-20.93638 -1.68693,-22.98865 -3.95495,-6.54026 -14.96886,-6.16601 -19.07493,0.64815 -1.26795,2.1042 -1.37565,3.67336 -1.56841,22.85103 l -0.20698,20.59168 -7.14479,0 -7.14478,0 0.20424,-22.6505 z m 164.73088,2.39918 c 0.19288,-18.76427 0.31535,-20.53463 1.66792,-24.10952 4.30324,-11.37362 12.6559,-17.43078 26.36907,-19.12225 5.60745,-0.69166 6.11488,-0.6534 6.97734,0.52609 1.00077,1.36863 1.33156,12.97313 0.40915,14.35339 -0.27507,0.41159 -2.69798,0.92791 -5.38425,1.14736 -7.52271,0.61459 -11.69411,3.47659 -13.07809,8.97289 -0.4536,1.8014 -0.75749,9.69224 -0.75749,19.66905 0,9.16345 -0.18593,17.14535 -0.41319,17.73756 -0.34347,0.89509 -1.72792,1.07675 -8.2059,1.07675 l -7.79271,0 0.20815,-20.25132 z"
           id="path3476" />
      </g>
    </g>
  </g>
</svg>
