<svg xmlns="http://www.w3.org/2000/svg" xmlns:xlink="http://www.w3.org/1999/xlink" viewBox="0 0 250.94 379.59"><defs><style>.cls-1{fill:none;}.cls-2{isolation:isolate;}.cls-3{fill:#306a98;}.cls-4{fill:#ffd33d;}.cls-5{fill:#959531;}.cls-6{fill:#eeeeef;}.cls-7{mix-blend-mode:soft-light;}.cls-8{fill:url(#Degradado_sin_nombre_3);}.cls-9{fill:#f8c1ac;}.cls-10{fill:#04242f;}.cls-11{fill:#5e1b1f;}.cls-12{fill:#062633;}.cls-13{fill:#9b3133;}.cls-14{fill:#a5aeba;}.cls-15{fill:#d2dbea;}.cls-16{fill:#161f33;}.cls-17{fill:#1a2639;}.cls-18{fill:#7a2023;}.cls-19{fill:#ee7a76;}.cls-20{fill:#e7f1f3;}.cls-21{fill:#123a50;}.cls-22{fill:url(#linear-gradient);}.cls-23{fill:#dd7a43;}.cls-24{fill:#f18b4a;}.cls-25{fill:#352011;}.cls-26{fill:#3989a9;}.cls-27{clip-path:url(#clip-path);}.cls-28{fill:url(#linear-gradient-2);}.cls-29{fill:#f49f62;}.cls-30{fill:url(#linear-gradient-3);}.cls-31{mix-blend-mode:multiply;}.cls-32{fill:#cfd9e8;}.cls-33{fill:url(#linear-gradient-4);}.cls-34{fill:#e3eef9;}.cls-35{fill:#358198;}.cls-36{fill:url(#linear-gradient-5);}.cls-37{fill:#b58e53;}</style><linearGradient id="Degradado_sin_nombre_3" x1="87.37" y1="122.29" x2="131.04" y2="122.29" gradientUnits="userSpaceOnUse"><stop offset="0" stop-color="#fff"/><stop offset="0.16" stop-color="#fff" stop-opacity="0.79"/><stop offset="0.38" stop-color="#fff" stop-opacity="0.52"/><stop offset="0.59" stop-color="#fff" stop-opacity="0.29"/><stop offset="0.77" stop-color="#fff" stop-opacity="0.13"/><stop offset="0.91" stop-color="#fff" stop-opacity="0.04"/><stop offset="0.99" stop-color="#fff" stop-opacity="0"/></linearGradient><linearGradient id="linear-gradient" x1="-784.11" y1="266.66" x2="-774.49" y2="266.66" gradientTransform="translate(817.87)" gradientUnits="userSpaceOnUse"><stop offset="0" stop-color="#fff"/><stop offset="0.16" stop-color="#f0f5fb"/><stop offset="0.43" stop-color="#ddeaf6"/><stop offset="0.71" stop-color="#d2e2f3"/><stop offset="1" stop-color="#cee0f2"/></linearGradient><clipPath id="clip-path"><polygon class="cls-1" points="176.22 272.96 182.33 261.94 250.94 259.33 246.14 294.84 111.15 308.21 0 289.38 0 249.76 20.74 249.76 75.62 265.86 86.37 274.41 176.22 272.96"/></clipPath><linearGradient id="linear-gradient-2" x1="-749.77" y1="189.28" x2="-748.62" y2="197.65" gradientTransform="matrix(1, -0.08, 0.05, 0.58, 807.99, 103.36)" xlink:href="#linear-gradient"/><linearGradient id="linear-gradient-3" x1="-762.63" y1="300.27" x2="-762.63" y2="351.22" gradientTransform="matrix(1.01, 0.09, -0.03, 0.99, 822.38, -6.61)" xlink:href="#linear-gradient"/><linearGradient id="linear-gradient-4" x1="-784.65" y1="277.37" x2="-765.09" y2="277.37" gradientTransform="translate(817.87)" gradientUnits="userSpaceOnUse"><stop offset="0" stop-color="#c5d3df"/><stop offset="0.03" stop-color="#c1cfdc"/><stop offset="0.26" stop-color="#a6bacd"/><stop offset="0.5" stop-color="#93abc3"/><stop offset="0.74" stop-color="#88a2bc"/><stop offset="1" stop-color="#849fba"/></linearGradient><linearGradient id="linear-gradient-5" x1="929.09" y1="359.96" x2="930.64" y2="371.32" gradientTransform="matrix(-1, -0.08, -0.05, 0.58, 1155.06, 103.36)" xlink:href="#linear-gradient"/></defs><title>Artboard 1</title><g class="cls-2"><g id="Layer_1" data-name="Layer 1"><path id="path1948" class="cls-3" d="M109.48,0a143.32,143.32,0,0,0-24,2.05C64.2,5.81,60.34,13.67,60.34,28.17V47.33h50.25v6.38H41.48c-14.61,0-27.4,8.78-31.4,25.48-4.61,19.14-4.82,31.09,0,51.07,3.57,14.88,12.1,25.48,26.71,25.48H54.07v-23c0-16.58,14.35-31.22,31.39-31.22h50.2A25.31,25.31,0,0,0,160.78,76V28.17c0-13.61-11.48-23.85-25.12-26.12A156.39,156.39,0,0,0,109.48,0ZM82.3,15.41A9.58,9.58,0,1,1,72.87,25,9.53,9.53,0,0,1,82.3,15.41Z"/><path id="path1950" class="cls-4" d="M165.66,52.76V75.07c0,17.3-14.67,31.87-31.4,31.87H84.07c-13.75,0-25.13,11.76-25.13,25.53v47.86c0,13.62,11.84,21.63,25.13,25.53,15.91,4.68,31.16,5.53,50.19,0,12.66-3.66,25.13-11,25.13-25.53V161.17H109.2v-6.38h75.32c14.6,0,20-10.19,25.12-25.48,5.25-15.74,5-30.88,0-51.07C206,63.7,199.14,52.76,184.52,52.76ZM137.43,173.94a9.58,9.58,0,1,1-9.43,9.55A9.49,9.49,0,0,1,137.43,173.94Z"/><path class="cls-5" d="M129.41,175.34a10,10,0,0,0-2.39-2,5.35,5.35,0,0,1-1.81-1.6c-.33-.77,1.28-2.39,2.46-3.57a15.16,15.16,0,0,0,2-2.19,1.54,1.54,0,0,0,.2-1.34c-.47-1.69-3.53-3.32-5.8-4.39a2.3,2.3,0,0,0-.9-.23,8.19,8.19,0,0,0-1.87.21,7.67,7.67,0,0,1-1.7.2,1.3,1.3,0,0,1-.67-.2,3.65,3.65,0,0,0-1.89-.59,5.84,5.84,0,0,0-3.37.86,11.24,11.24,0,0,1-4.13.33c-1.93-.12-3.4-.52-3.82-1.06a.42.42,0,0,1-.1-.35c.28-1.6-.81-2.67-1.69-3.52-.69-.67-1.1-1.11-1-1.51a4.25,4.25,0,0,0-.86-3.09,6.3,6.3,0,0,0-4.19-2.75c-1.24-.19-1.64-1.33-2.16-3.19-.37-1.35-.76-2.75-1.82-3.51a4.56,4.56,0,0,0-2.35-.63,22.34,22.34,0,0,0-4.46.3l-.13-.16c-2.61-3.31-4.13-5-5.26-5.07a1.11,1.11,0,0,0-.91.37,3.41,3.41,0,0,1-2.32.48h0a5.94,5.94,0,0,1-2.92-.93,10.42,10.42,0,0,1-2.09-2c-.86-1-1.68-1.92-2.83-2s-5.86-3-8.75-5.63c.28-1.53.9-2.43,1.13-2.41.77,0,1.11-.81,1.51-1.79.65-1.64,1.31-3,2.8-3,3.55,0,5.32-1.85,7.18-5.08.41-.71.82-1.35,1.17-1.91,1.34-2.09,2.3-3.61.92-5.34-.93-1.17-1.63-6.84-1.23-10,.15-1.21.41-1.42.41-1.42,1.38-.75,1.56-2.53.49-5a3.18,3.18,0,0,1,0-1.46,5.6,5.6,0,0,0-1.25-4.83c-.45-.54-1-1.17-1.72-1.9l-.28-.3A66,66,0,0,1,78,77.82a3.74,3.74,0,0,0,1.29-2.13l.26,0a1.88,1.88,0,0,0,1.5-.67c.53-.57,1.09-1.29,1.74-2.13,1.64-2.12,3.69-4.76,6.45-6.3,3.72-2.06,3.62-4.44,3.52-6.74,0-.34,0-.67,0-1,0-.81.75-2,2-3.21,1.64-1.55,3.67-2.67,4.72-2.61l.22,0a6.08,6.08,0,0,1,1.76,1,3,3,0,0,0,1.38.71c.63,0,1-.45,1.16-1.43.11-.71,1.29-.8,3.08-.85a10.72,10.72,0,0,0,3.82-.55,10.34,10.34,0,0,0,2.45-1.58,7.27,7.27,0,0,1,4.37-1.95c1.75-.14,3.17-1.32,4.43-2.36s2.19-1.8,3.22-1.74a2.16,2.16,0,0,1,1.07.39c1,.67,1.49,1.36,1.35,1.94-.18.82-1.52,1.54-3.32,1.79A2.93,2.93,0,0,0,122.19,50a4.93,4.93,0,0,0-2.5,1.48,25.54,25.54,0,0,1-3,2.87c-2.1,1.77-4.27,3.6-4.46,5.84l-.06.73c-.21,2.54-.29,3.5-1.32,4.66-1.66,1.85-2.49,3-2.15,3.82a1,1,0,0,0,1,.6h.21c.44,0,.79,0,1.1,0,1.73.1,1.94.71,1.9,1.35-.07,1.09.76,1.79,1.56,2.47s1.79,1.51,1.57,2.82c0,.18-.07.37-.1.58-.43,2.37-1.14,6.34.77,8.76a5.34,5.34,0,0,0,4.08,1.89h.22a46,46,0,0,0,5.47-.19,27.29,27.29,0,0,1,3.5-.12,4.49,4.49,0,0,1,3.86,2,12.25,12.25,0,0,0,9.48,5.65,15,15,0,0,0,1.64,0,48.32,48.32,0,0,1,5.71-.14c2.43.14,3,.66,3.17,1s-.12.9-.39,1.29c-2.55,3.65-4.86,12.09-2.7,14.81.36.46.75.91,1.12,1.34,1.85,2.12,2.56,3.15,1.6,4.12a5.84,5.84,0,0,0-2,4,3.54,3.54,0,0,0,1.32,2.59,3,3,0,0,1,1.05,3.35c-.84.49-5.95,2.26-8.39,2.11-.52,0-1.25-.1-2.1-.17-1.15-.11-2.58-.24-3.95-.32-4.82-.29-6,.19-6.32,1a4.56,4.56,0,0,0,.35,3.44,3.09,3.09,0,0,0,1.78,1.69c2,.58,2.21,1.12,2.23,1.23s-.23.58-1,1.07a4.87,4.87,0,0,1-2.69.67c-1.75,0-2.92.33-3.12,3.65-.14,2.47,1.17,4.55,2.44,6.56s2.58,4.11,1.83,6.23a59.06,59.06,0,0,0-2.27,10.69c-.19,3.21-1.75,9.69-3.17,9.91Z"/><path class="cls-6" d="M125.35,44.91h0a1.6,1.6,0,0,1,.79.29c.93.62,1.19,1.12,1.13,1.37-.09.41-1,1.12-2.86,1.37a3.51,3.51,0,0,0-2.58,1.56,5.37,5.37,0,0,0-2.56,1.59,25.37,25.37,0,0,1-3,2.8c-2.18,1.84-4.44,3.75-4.65,6.22l-.06.73c-.21,2.62-.31,3.35-1.18,4.33-1.84,2.06-2.7,3.31-2.25,4.39a1.56,1.56,0,0,0,1.45.94h.26c.43,0,.77,0,1.06,0,1.42.09,1.4.46,1.38.78-.08,1.36.94,2.22,1.76,2.92,1,.84,1.54,1.35,1.38,2.31,0,.17-.07.36-.1.57-.44,2.46-1.18,6.59.88,9.2a5.86,5.86,0,0,0,4.48,2.09h.23a47.12,47.12,0,0,0,5.53-.18,26.44,26.44,0,0,1,3.42-.13,4,4,0,0,1,3.45,1.81,12.78,12.78,0,0,0,9.89,5.89,14,14,0,0,0,1.71,0,49.62,49.62,0,0,1,5.65-.14c2.36.14,2.71.64,2.71.64h0s0,.22-.35.75c-2.69,3.87-5,12.51-2.68,15.46.37.47.76.92,1.14,1.36,1.89,2.16,2.19,2.8,1.62,3.38a6.4,6.4,0,0,0-2.12,4.44,4.12,4.12,0,0,0,1.51,3,2.44,2.44,0,0,1,.94,2.56c-1.18.56-5.77,2.07-7.89,2-.51,0-1.24-.1-2.08-.18-1.15-.1-2.59-.23-4-.32-4.59-.27-6.39.08-6.87,1.35a5.07,5.07,0,0,0,.37,3.88,3.62,3.62,0,0,0,2.11,2,5.06,5.06,0,0,1,1.78.77,2.87,2.87,0,0,1-.69.55,4.24,4.24,0,0,1-2.42.58c-1.86.06-3.42.41-3.64,4.17-.16,2.65,1.26,4.9,2.51,6.89s2.45,3.87,1.78,5.75a58.63,58.63,0,0,0-2.29,10.84c-.19,3-1.52,8.2-2.51,9.24a12,12,0,0,0-2.21-1.79,6,6,0,0,1-1.62-1.36c-.09-.54,1.62-2.24,2.34-3a16.52,16.52,0,0,0,2-2.28,2.12,2.12,0,0,0,.27-1.78c-.41-1.48-2.29-2.94-6.09-4.75l-.05,0a2.71,2.71,0,0,0-1.06-.25,8.7,8.7,0,0,0-2,.21,6.59,6.59,0,0,1-1.55.19.75.75,0,0,1-.4-.1,4.32,4.32,0,0,0-2.17-.69,6.41,6.41,0,0,0-3.68.94,11.9,11.9,0,0,1-3.82.25c-2.16-.13-3.19-.58-3.4-.82.29-1.86-1-3.07-1.86-3.95-.31-.31-.83-.81-.85-1a4.69,4.69,0,0,0-.94-3.52,6.83,6.83,0,0,0-4.56-3c-.88-.14-1.21-1-1.71-2.8-.38-1.37-.82-2.93-2-3.8a4.93,4.93,0,0,0-2.63-.74,21.34,21.34,0,0,0-4.26.27c-2.77-3.53-4.25-5.12-5.59-5.2a1.66,1.66,0,0,0-1.34.55,3.28,3.28,0,0,1-1.89.3,5.42,5.42,0,0,1-2.65-.83,10.5,10.5,0,0,1-2-1.9c-.9-1-1.83-2.09-3.21-2.18-1,0-5.28-2.67-8.18-5.27a4.42,4.42,0,0,1,.68-1.68c1-.06,1.47-1.15,1.86-2.13.6-1.5,1.15-2.65,2.29-2.65,2.82,0,5.08-.87,7.66-5.34.41-.71.81-1.34,1.17-1.89,1.34-2.12,2.5-3.94.88-6-.4-.5-.94-2.57-1.15-5.42a14.16,14.16,0,0,1,.27-5.2c1-.57,2.17-2,.63-5.64a2.84,2.84,0,0,1,0-1.17A6.11,6.11,0,0,0,75.36,84c-.43-.53-1-1.13-1.64-1.83a58.12,58.12,0,0,1,4.61-3.93,3.84,3.84,0,0,0,1.36-2,2.46,2.46,0,0,0,1.78-.85c.55-.58,1.11-1.31,1.77-2.16,1.61-2.09,3.62-4.68,6.28-6.16,4-2.23,3.9-5,3.81-7.25,0-.32,0-.66,0-1,0-.49.48-1.52,1.85-2.82,1.66-1.57,3.53-2.5,4.31-2.45h.09a5.83,5.83,0,0,1,1.6.93,3.29,3.29,0,0,0,1.67.81c.54,0,1.49-.17,1.74-1.89v0c.23-.28,1.73-.33,2.54-.35a11.4,11.4,0,0,0,4-.6,10.73,10.73,0,0,0,2.57-1.65A6.73,6.73,0,0,1,117.77,49c1.92-.15,3.42-1.39,4.74-2.48,1-.85,2-1.66,2.84-1.61m.06-1.09c-2.51-.15-4.6,3.84-7.73,4.1-3.66.3-4.49,2.5-7,3.57s-6.93-.24-7.23,1.82c-.1.73-.3,1-.59,1-.61,0-1.62-1.26-3-1.69a.93.93,0,0,0-.34-.06c-2.28-.14-7.34,3.89-7.32,6.37S92.94,64,89,66.16s-6.46,6.55-8.32,8.52a1.3,1.3,0,0,1-1.07.5A1.52,1.52,0,0,1,79,75a4.2,4.2,0,0,1-1.22,2.38,66.07,66.07,0,0,0-5.56,4.78c.91,1,1.77,1.88,2.35,2.58,2.26,2.74.58,4.72,1.19,6.15s1.18,3.54-.26,4.32-.79,10.37.66,12.19-.2,3.28-2.13,6.64-3.59,4.82-6.71,4.8S64,123.66,63,123.6c-.82,0-1.53,1.66-1.74,3.16,2.75,2.62,7.79,5.88,9.3,6s2.56,2.52,4.65,3.9a6.51,6.51,0,0,0,3.19,1,3.73,3.73,0,0,0,2.76-.66.56.56,0,0,1,.47-.19c.93.06,2.6,2,4.86,4.86.12.15.21.28.33.42a23.46,23.46,0,0,1,4.66-.35,4.05,4.05,0,0,1,2.06.54c2.09,1.49,1.25,6.34,4.22,6.79s5,3.56,4.59,5.17,3.11,2.64,2.69,5.07c-.22,1.32,2.09,1.9,4.43,2a10.85,10.85,0,0,0,4.47-.42,5.29,5.29,0,0,1,3-.77,3.17,3.17,0,0,1,1.62.51,1.89,1.89,0,0,0,1,.28c1.11.07,2.51-.47,3.57-.4a1.77,1.77,0,0,1,.66.15c1.32.63,6.62,3.12,5.42,5s-5.18,4.59-4.46,6.27c.57,1.32,3.35,2.29,4.41,4a2.54,2.54,0,0,0,.39,0c2.1-.33,3.49-8.12,3.63-10.42a58.09,58.09,0,0,1,2.23-10.54c1.58-4.46-4.52-8-4.23-12.94s2.62-2,5.56-3.89,0-2.89-1.37-3.29-2.33-3-1.77-4.41c.3-.79,3-.81,5.78-.64,2.35.14,4.8.41,6,.49,2.73.16,8.81-2,8.91-2.36a3.58,3.58,0,0,0-1.17-4.06c-2-1.77-1.09-4.06.67-5.83s-.79-3.81-2.69-6.19.16-10.48,2.73-14.16c1.54-2.21-.42-2.93-3.19-3.1a50.43,50.43,0,0,0-5.79.14,11.49,11.49,0,0,1-10.63-5.41A5.07,5.07,0,0,0,129.94,87c-2.28-.14-5.19.45-9,.31h-.21c-6.47-.39-4.72-7.75-4.25-10.59s-3.23-3.48-3.12-5.35c.09-1.45-1.07-1.85-2.41-1.93-.38,0-.77,0-1.15,0a.43.43,0,0,1-.16,0c-1.44-.08.33-2.14,1.55-3.51s1.25-2.59,1.51-5.7,5-5.49,7.39-8.41a4.56,4.56,0,0,1,2.46-1.36,2.35,2.35,0,0,1,2-1.41c3.49-.48,5.36-2.62,2.19-4.73a2.68,2.68,0,0,0-1.34-.47Z"/><g class="cls-7"><path class="cls-8" d="M119.1,86.65c-.76.64-1.5,1.33-2.25,2s-1.47,1.36-2.21,2l-2.18,2.11-.41.43-1.65,1.69c-.69.75-1.39,1.48-2.06,2.23-1.35,1.49-2.67,3-3.92,4.56-.63.78-1.26,1.56-1.87,2.36l-.91,1.19-.88,1.2c-1.18,1.61-2.29,3.27-3.37,4.93-.52.85-1,1.68-1.56,2.53s-1,1.71-1.46,2.58c-1,1.72-1.83,3.49-2.64,5.27s-1.53,3.6-2.15,5.44A48,48,0,0,0,88,132.82a31.12,31.12,0,0,0-.67,5.77,21,21,0,0,0,.09,2.38,17.35,17.35,0,0,0,.63,3.41A12.66,12.66,0,0,0,91,149.5l.26.26.12.14.06.07.12.1.5.42.25.2.12.11.16.11.64.42a9.12,9.12,0,0,0,.91.51,11.79,11.79,0,0,0,1.9,2.69l.25.27.12.13.07.07.12.11.5.41.24.21.13.1.16.11.63.42a12.78,12.78,0,0,0,2.57,1.22,16.49,16.49,0,0,0,5.27.79h.64l-1.17,0c.39,0,.78,0,1.17-.09a4.76,4.76,0,0,0-1.42-1.77h-.39l-.58,0c-1.56-.1-1.3-.39-2.72-1l-.53-.23-.26-.12c-.08,0-.16-.1-.24-.15l-.5-.28-.23-.15-.21-.16-.43-.31-.1-.08-.12-.11-.23-.22-.47-.45,0,0h0a18.76,18.76,0,0,0,2.78.2h.65l.64,0c.42,0,.84,0,1.26-.1s.41-1.46-.07-1.8c-.16,0,.09,0-.07,0a11.42,11.42,0,0,1-1.17,0h-.59l-.58,0a14.52,14.52,0,0,1-4.54-1h0a12.69,12.69,0,0,1-.54-1.75,15.44,15.44,0,0,1-.31-4.1c0-.27,0-.53,0-.79a30.44,30.44,0,0,1,.9-5.08,44.45,44.45,0,0,1,1.71-5.07c.67-1.67,1.45-3.32,2.28-5a90.54,90.54,0,0,1,5.77-9.61c1.07-1.55,2.18-3.09,3.35-4.6l.86-1.15.9-1.11c.59-.76,1.21-1.49,1.83-2.23q1.86-2.19,3.8-4.33c.65-.71,1.31-1.39,2-2.09l2.06-2.11,2-2,.82-.77h0c.43-.41.86-.82,1.29-1.21,1.43-1.3,2.87-2.58,4.34-3.81.45-.39.92-.77,1.39-1.16-1.14-2.13-2.28-4.15-2.66-3.94l-1.58,1-.35.28c-.79.62-1.54,1.28-2.31,1.92s-1.5,1.33-2.26,2-1.47,1.36-2.21,2l-2.17,2.12-1.35,1.38-.72.74c-.68.74-1.39,1.48-2.06,2.23-1.34,1.49-2.66,3-3.92,4.56-.63.78-1.26,1.56-1.86,2.35l-.91,1.19-.89,1.21c-1.18,1.61-2.28,3.27-3.36,4.93-.53.84-1.06,1.67-1.56,2.53s-1,1.7-1.47,2.57c-1,1.73-1.82,3.49-2.64,5.27s-1.52,3.61-2.14,5.45a47.55,47.55,0,0,0-1.55,5.61,30.9,30.9,0,0,0-.66,5.76c0,.43,0,.85,0,1.28a20.16,20.16,0,0,0,.25,2.56h0A10,10,0,0,1,91,144l-.09-.34a16.53,16.53,0,0,1-.26-4.89,30.48,30.48,0,0,1,.91-5.08,41.84,41.84,0,0,1,1.71-5.06c.67-1.68,1.45-3.33,2.28-5a92.14,92.14,0,0,1,5.76-9.61c1.08-1.55,2.18-3.1,3.35-4.61l.87-1.14.9-1.12c.59-.75,1.21-1.48,1.82-2.22q1.86-2.2,3.81-4.33c.65-.72,1.31-1.4,2-2.1l.09-.08,2-2,2-2c.7-.66,1.4-1.33,2.11-2,1.43-1.29,2.86-2.57,4.33-3.81l0,0c.6-1,1.24-2.09,1.41-2.38"/></g><path class="cls-9" d="M60.67,193.4c-2.67,7.48-8.33,21.25-9.17,25.24s10.27,33.64,10.27,33.64L66,251.4s-4.22-13.69-5.09-20.71S58.41,220.55,59.23,218s9.63-16.2,9.63-16.2Z"/><path class="cls-9" d="M88,208.78s12.7-22.2,18-30.4c4.06-6.27,9.57-28.27,9.57-28.27s1-2.75,1.56-3.68c.79-1.42,2.42-3.86,3.36-6s-.71-2.86-.71-2.86l-1.51-.86-1.06-.43s.28-1.83.45-2.63a19.61,19.61,0,0,1,.82-2.44l-1.12-.54s-1.82,3.81-2.66,5.55a25.49,25.49,0,0,1-1.57,2.82s-.8-.56-.89-1.09a16.43,16.43,0,0,1,.26-2.73l-1.57.08s-1.38,4.51-1,5.95,0,6.49-.1,6.75c-3.08,11.26-7.76,18.61-9.64,25.19l-14.6,14S85,206.53,88,208.78Z"/><path class="cls-9" d="M76.37,265.5c-.58,11.27-1.08,27.19-2.25,34-1.52,8.8-5.68,44.91-6,49.46s.31,16.08,1.52,17.9,4.25,5.47,4.25,5.47h-11s1.22-4.56,0-15.48-4.16-29.28-3-44.07-1.51-34-2.43-43.5a36.89,36.89,0,0,1-.12-4.09C63.71,265.35,70,265.45,76.37,265.5Z"/><path class="cls-9" d="M70.57,265.43c6.44.09,12.88.12,19.32.16-.19,11.26.16,27.12-1,33.87-1.51,8.8-4.24,44.91-4.55,49.46s.31,16.08,1.52,17.9,10,5.47,10,5.47l-4.8-.83L83.15,371l-4.06,1.29s1.22-4.56,0-15.48-5-24.89-4.39-44.07c.51-14.83-3-34-3.86-43.5C70.72,268,70.64,266.72,70.57,265.43Z"/><path class="cls-10" d="M90.29,252.76c.4,1.58.86,3.24,1.36,5,4.72,16.41-2.22,42.56-2.22,42.56-5.36,1.95-6.76,2.91-16.2,1.95A47.46,47.46,0,0,1,60,299.63s-3.78-7.69-3.72-32.26a71.75,71.75,0,0,1,1.93-14.61Z"/><path d="M69.53,366.07c-1.52-.31-2.06.3-3.42,1.21a5.77,5.77,0,0,1-2.88.91v4.1H73.78Z"/><path d="M85.85,366.82s-.15,1.42-2.43,2.06a3.84,3.84,0,0,1-3.82-1.23l-.51,4.64H82L83.15,371l1.27,1.4H97.07Z"/><path class="cls-9" d="M84.16,163.54c1,2.39,1.31,5.47,1.6,8.88s-.67,10.31-2.53,11.93-5.53,1.63-9.14-1.19c-5.82-4.55-13.22-8.47-7.89-15S84.16,163.54,84.16,163.54Z"/><path class="cls-11" d="M81.39,159.24c2.11,1.25,4.69,4.42,3.59,7s-7,1.63-7.33,4.22-.57,3.9-.57,3.9c-.52-.7-2.13-2.55-4-1.07s.46,5.19,4.36,5.52l-3.31,4.34s-.27,6.76-4.27,4.49-7.84-6.94-8.06-15.4c-.29-10.86,6.41-14.26,10.17-15.07S79.19,158,81.39,159.24Z"/><path class="cls-9" d="M79.54,183.76c0,4.36-.17,6.41,1.51,7.62a18.72,18.72,0,0,1-5.73.93,27.17,27.17,0,0,1-5.5-.54L72,179.89l10,.63Z"/><path class="cls-12" d="M79.87,191s-2.65,1.94-10.08-.23-10.35-1.26-10.35-1.26-4.28,7.11-2.64,19.16,1.91,29.68.46,37.47a137.48,137.48,0,0,0-1.59,19s27.54,6.9,38.24-2.76c0,0-6.11-28-2-39.06,1.63-4.38,1.64-11,0-13.53s-5.75-12.28-6.34-22.59C85.58,187.21,82.08,190.22,79.87,191Z"/><path class="cls-11" d="M61.87,174c1.4,5.75-3,10.89-5.2,14.17C48.73,200,55,209.65,64,210.46c9.26.83,18.08-4.57,15.29-14.17-1.25-4.27-2.62-6.54-1.4-9.24,2.12-4.7-.68-5.9-.53-8.23,0,0-3.4,1.28-8.87-1.76S61.87,174,61.87,174Z"/><polygon class="cls-13" points="169.66 363.19 166.66 363.19 177.38 279.81 183.96 279.81 169.66 363.19"/><polygon class="cls-13" points="70.52 363.19 73.52 363.19 62.8 279.81 56.22 279.81 70.52 363.19"/><rect class="cls-14" x="145.45" y="321.47" width="4.2" height="37.91" transform="translate(295.11 680.86) rotate(-180)"/><rect class="cls-15" x="144.18" y="315.54" width="6.75" height="5.93" transform="translate(295.11 637.01) rotate(-180)"/><rect class="cls-15" x="145" y="343.72" width="5.1" height="12.71" transform="translate(295.11 700.14) rotate(-180)"/><rect class="cls-15" x="144.18" y="356.42" width="6.75" height="5.93" transform="translate(295.11 718.77) rotate(-180)"/><rect class="cls-14" x="139.37" y="304.32" width="16.37" height="11.22" transform="translate(295.11 619.87) rotate(-180)"/><rect class="cls-14" x="125.53" y="300.97" width="45.68" height="8.4" rx="0.75" ry="0.75" transform="translate(296.74 610.34) rotate(-180)"/><polygon class="cls-14" points="131.28 368.01 144.18 361.62 144.18 357.16 129.59 366.94 131.28 368.01"/><path class="cls-14" d="M126.57,369.26a3,3,0,1,0,3-3A3,3,0,0,0,126.57,369.26Z"/><circle class="cls-14" cx="147.55" cy="369.26" r="3.02"/><polygon class="cls-14" points="163.82 368.01 150.93 361.62 150.93 357.16 165.52 366.94 163.82 368.01"/><circle class="cls-14" cx="165.52" cy="369.26" r="3.02"/><rect class="cls-14" x="146.73" y="359.39" width="1.64" height="9.84" transform="translate(295.11 728.61) rotate(-180)"/><path class="cls-16" d="M149.74,363.8v8.14h11s-.42-2.21-5.65-3.22l-.77-4.92Z"/><path class="cls-17" d="M134,286.23s-6.6,7.73-3,14.89c1.35,2.72,22.47,19.28,22.47,19.28l-4.35,46.46h6.33s10.56-26.45,12.69-36.28,4.82-14.2,2-19.31-14.7-16.08-14.7-16.08l-4.06-11.51Z"/><path class="cls-16" d="M175.31,363.8v8.14h11s-.42-2.21-5.65-3.22l-.77-4.92Z"/><path class="cls-16" d="M148.94,285s-6.59,7.72-3,14.89C147.28,302.56,179,320.4,179,320.4l-4.36,46.46H181s10.57-26.45,12.69-36.28,4.82-14.2,2-19.31-25.28-17.36-25.28-17.36l-4.06-11.51Z"/><rect class="cls-14" x="103.48" y="321.14" width="4.2" height="37.91"/><rect class="cls-15" x="102.2" y="315.21" width="6.75" height="5.93"/><rect class="cls-15" x="103.03" y="343.38" width="5.1" height="12.71"/><rect class="cls-15" x="102.2" y="356.09" width="6.75" height="5.93"/><rect class="cls-14" x="97.4" y="303.99" width="16.37" height="11.22"/><rect class="cls-14" x="81.93" y="300.63" width="45.68" height="8.4" rx="0.75" ry="0.75"/><polygon class="cls-14" points="121.85 367.68 108.96 361.29 108.96 356.83 123.55 366.6 121.85 367.68"/><path class="cls-14" d="M126.57,368.93a3,3,0,1,1-3-3A3,3,0,0,1,126.57,368.93Z"/><path class="cls-14" d="M108.6,368.93a3,3,0,1,1-3-3A3,3,0,0,1,108.6,368.93Z"/><polygon class="cls-14" points="89.31 367.68 102.2 361.29 102.2 356.83 87.62 366.6 89.31 367.68"/><path class="cls-14" d="M84.6,368.93a3,3,0,1,0,3-3A3,3,0,0,0,84.6,368.93Z"/><rect class="cls-14" x="104.76" y="359.05" width="1.64" height="9.84"/><path d="M103.4,363.47v8.13h-11s.41-2.2,5.65-3.22l.77-4.91Z"/><path d="M119.19,285.9s6.59,7.72,3,14.89c-1.36,2.72-22.48,19.28-22.48,19.28l4.36,46.46H97.75s-10.56-26.45-12.68-36.29-4.82-14.19-2-19.31,14.69-16.08,14.69-16.08l4.07-11.5Z"/><path d="M59.81,363.47v8.13h-11s.42-2.2,5.65-3.22l.77-4.91Z"/><path d="M104.19,284.61s6.6,7.73,3,14.89c-1.36,2.73-33.06,20.57-33.06,20.57L60.5,366.53H54.17s.51-50.48,3.31-55.6,25.28-17.36,25.28-17.36l4.06-11.51Z"/><path class="cls-18" d="M227.43,263.5l-.83.95c-10.39-4.52-26.77-8.23-47.75-10.68-6.21,2.87-26.52,3.13-26.52,3.13v10.19l3.87.31c27.31,2.34,40,6.82,40,9.11,0,3.71-28.43,10.52-74.88,10.52s-74.89-6.81-74.89-10.52c0-2.79,16.34-7.62,47-9.64V256.68c-3.09-2.65-14.42-2.19-16.92-4.19C46.52,255,23.88,260,12.2,266.31H3.35v6.39c0,14.73,50.73,25.83,118,25.83s118-11.1,118-25.83v-6.39Z"/><path class="cls-19" d="M178.85,243.58c-9.33,4.31-17.79,8.85-26.52,13.32q1.95.14,3.87.3c27.31,2.35,40,6.83,40,9.11,0,3.71-28.43,10.52-74.88,10.52S46.46,270,46.46,266.31c0-2.78,16.34-7.62,47-9.63-5.69-4.79-11-9.63-16.92-14.38-44.86,3.8-73.23,13-73.23,24,0,14.73,50.73,25.84,118,25.84s118-11.11,118-25.84C239.35,256.43,216.49,248,178.85,243.58Z"/><path class="cls-9" d="M96.4,217.91s-.93,3.7-3,5.36c-3.29,2.62-9.46,6.39-9.46,6.39s-.35,1.8,4.67,5.54,12.15,5.75,18.62,2.73,1.51-15.45,1.51-15.45a6.89,6.89,0,0,1-4.09-2.91c-1.49-2.55-1-8.86-1-8.86Z"/><path class="cls-20" d="M91.18,225.05a11,11,0,0,0,7.06,5s4.33-.53,6.82-2.79a16.32,16.32,0,0,0,3.66-4.81l10.36,2.57a79.16,79.16,0,0,1,1.77,14c.26,7.61-2.31,28-2.31,28a31.19,31.19,0,0,1-15.8,4c-9.41-.06-19.49-5-19.49-5a200.6,200.6,0,0,0-.15-22.43,84.29,84.29,0,0,1,0-14.7A43.41,43.41,0,0,1,91.18,225.05Z"/><polygon class="cls-21" points="96.64 230.35 97.58 232.56 100 232.6 101.1 230.64 98.49 229.02 96.64 230.35"/><polygon class="cls-11" points="98.87 231.58 97.58 232.56 96.64 247.59 98.55 250.74 101.27 247.42 100 232.6 98.87 231.58"/><path class="cls-9" d="M68.87,246.53c-.28.54-6.42,10.25-7.07,11.24-.55.83-8.38,5.17-16,5.67,0,0,7,5.95,5.53,5.19,0,0,11.33-3,13.9-3.42,4-.63,9.59-9.59,11.8-12.6Z"/><path class="cls-22" d="M43.38,268.92H33.76v-.41c0-2.66,2.15-4.1,4.81-4.1,2.87,0,4.81,1.44,4.81,4.1Z"/><path class="cls-9" d="M44.85,262.76c-.87-.33-3.5-1.56-4.92-1.56s-3.78,2.41-5.11,3.59.52,1.49,1.56.95a6.84,6.84,0,0,1,3.16-1.09c1,0,1.48,1,2.05,1.14.28.09.44.85-.1,1.23s-1.75.38-2.08.59c-.66.43-.24,1.58.9,1.58a15.85,15.85,0,0,0,3.45-.14,28.91,28.91,0,0,1,4.07-.31c3.46-.11,5.59-.36,5.59-.36l-3.69-4.82A21.19,21.19,0,0,1,44.85,262.76Z"/><path class="cls-23" d="M83.14,228.94c-3.18,1.62-4.74,3.77-10.52,12.23-5,7.29-9.07,14.45-9.07,14.45l-20.17,7.43s1.44,1.45,2.38,7.12c0,0,21.32-4.27,24.51-6.81s15.19-17.44,15.19-17.44Z"/><path class="cls-24" d="M90.63,225.05s-5.42,2.27-7.49,3.89c0,0,.36,20.55.34,29.2s-.34,25-.34,25,10.56,1,16.44-.33l-1.34-35.7Z"/><path class="cls-24" d="M98.24,247.13l.59,34.77c3.78,1.18,21.5-1.17,21.5-1.17s-.18-8-.42-12.89-1.65-42.62-1.65-42.62L110.65,223Z"/><path class="cls-9" d="M87.47,199.45c-1.48,1.74-1.85,5.83-1.36,7.82s1.5,9.08,3,11.73c.68,1.22,1.82,3.22,4.33,3.35a9.63,9.63,0,0,0,6.6-2.51c2.2-2.25,3.25-3.65,3.52-6.1s3.07-.75,3.13-5.54-1.13-3.64-4.87-6.22S91,195.24,87.47,199.45Z"/><path class="cls-25" d="M92.27,205c2.18.84,6.58.72,6.58.72a9.44,9.44,0,0,0,.74,3.12,25.37,25.37,0,0,0,1.88,2.58s.09-1.32.17-2.65,2-1.89,2.41-.5a5.38,5.38,0,0,1-1.32,4.56c-.87.76,1.15,3.36,1.15,3.36a28.51,28.51,0,0,0,2.64-3.75,15.81,15.81,0,0,0,1.56-13c-1.43-3.86-5.22-6.39-9.83-6.56a13.43,13.43,0,0,0-8.18,2.79c-1.26,0-2.78.94-4,3.46s-.14,7-.14,7,1.07-2.21,1.71-3.71A21.79,21.79,0,0,0,92.27,205Z"/><polygon class="cls-20" points="107.06 221.26 98.49 229.02 102.19 232.82 108.72 222.48 107.06 221.26"/><polygon class="cls-20" points="92.33 223.7 98.49 229.02 95.93 232.71 90.64 225.05 92.33 223.7"/><polygon class="cls-24" points="98.24 247.13 108.72 222.48 110.65 223 109.75 233.05 105.47 234.18 107.21 237.93 98.24 247.13"/><path class="cls-9" d="M154.36,221.16s.93,3.69,3,5.36c3.29,2.61,9.47,6.38,9.47,6.38s.34,1.8-4.68,5.54-12.14,5.75-18.62,2.73S142,225.73,142,225.73a6.88,6.88,0,0,0,4.09-2.92c1.49-2.54,1.05-8.86,1.05-8.86Z"/><path class="cls-20" d="M159.58,228.3a11.08,11.08,0,0,1-7.06,5s-4.32-.54-6.82-2.79a16.46,16.46,0,0,1-3.66-4.81l-10.36,2.57a79.16,79.16,0,0,0-1.77,14c-.26,7.61.25,46.5.25,46.5a31.23,31.23,0,0,0,15.79,4c9.42-.07,16.33-7.14,16.33-7.14s2.25-24.34,3-36.48a114.19,114.19,0,0,1,2.33-17A43.24,43.24,0,0,0,159.58,228.3Z"/><polygon class="cls-21" points="154.12 233.59 153.18 235.8 150.76 235.84 149.67 233.88 152.27 232.26 154.12 233.59"/><polygon class="cls-16" points="151.89 234.82 153.18 235.8 155.01 262.32 152.33 267.09 148.34 262.32 150.76 235.84 151.89 234.82"/><polygon class="cls-26" points="143.7 224.51 152.27 232.26 148.57 236.07 142.04 225.73 143.7 224.51"/><polygon class="cls-26" points="158.43 226.94 152.27 232.26 154.83 235.96 160.13 228.3 158.43 226.94"/><g class="cls-27"><path class="cls-13" d="M227.43,263.5l-.83.95c-10.39-4.52-26.77-8.23-47.75-10.68-6.21,2.87-26.52,3.13-26.52,3.13v10.19l3.87.31c27.31,2.34,40,6.82,40,9.11,0,3.71-28.43,10.52-74.88,10.52s-74.89-6.81-74.89-10.52c0-2.79,16.34-7.62,47-9.64V256.68c-3.09-2.65-14.42-2.19-16.92-4.19C46.52,255,23.88,260,12.2,266.31H3.35v6.39c0,14.73,50.73,25.83,118,25.83s118-11.1,118-25.83v-6.39Z"/><path class="cls-19" d="M178.85,243.58c-9.33,4.31-17.79,8.85-26.52,13.32q1.95.14,3.87.3c27.31,2.35,40,6.83,40,9.11,0,3.71-28.43,10.52-74.88,10.52S46.46,270,46.46,266.31c0-2.78,16.34-7.62,47-9.63-5.69-4.79-11-9.63-16.92-14.38-44.86,3.8-73.23,13-73.23,24,0,14.73,50.73,25.84,118,25.84s118-11.11,118-25.84C239.35,256.43,216.49,248,178.85,243.58Z"/></g><polygon class="cls-14" points="49.72 276.51 49.56 274.5 70.88 277.62 71.04 279.63 49.72 276.51"/><polygon class="cls-28" points="70.03 272.9 49.56 274.5 70.88 277.62 91.27 275.5 70.03 272.9"/><polygon class="cls-14" points="91.43 277.5 71.04 279.63 70.88 277.62 91.27 275.5 91.43 277.5"/><path class="cls-9" d="M87.79,266.24a51.82,51.82,0,0,1-6.27,1.1c-.63,0-2.93,0-4,0h0c-3.15-.09-6.69-.07-7.41.53s-3.26,3.47-4.46,4.89h0l-.18.22-.06.08-.13.15,0,.06-.12.15c-.51.7-.26,1.5,1.3.94a3.8,3.8,0,0,0,.84-.44,1,1,0,0,0,0,.68c.34.72,1.23.66,2-.14a10.24,10.24,0,0,0,1-1.26,8.36,8.36,0,0,1,1.27-1.55l.29.07a13.94,13.94,0,0,0-.89,1.52,1.83,1.83,0,0,0,0,2,.42.42,0,0,0,.48.13,12.42,12.42,0,0,0,2.32-2.71l.27-.33a6.77,6.77,0,0,0,.94.15h0A4.61,4.61,0,0,0,73.69,274a.82.82,0,0,0,1.12,1.14c.78-.39,3.26-2,4-1.5a11.78,11.78,0,0,0,3.39,1.42,3.63,3.63,0,0,0,2.91-1.27c.92-.92,4.16-1.43,4.42-1.47A51.46,51.46,0,0,1,87.79,266.24Z"/><polygon class="cls-20" points="87.34 266.05 85.44 266.47 87.34 273.16 89.51 272.52 89.51 267.4 87.34 266.05"/><path class="cls-29" d="M118.26,225.22c4.77,1.39,6.56,4.19,6.92,20.31.21,9.08-4.36,20.57-6.67,21.91-4.48,2.58-25.33,5.6-29,6.24,0,0-1.2-6.06-2.17-7.63,0,0,22.62-6.45,23.55-7.94,0,0,2.3-15.78,1.61-19.3C110.71,229.63,116.15,224.6,118.26,225.22Z"/><polygon class="cls-24" points="91.04 224.83 98.24 247.13 90.64 236.58 91.99 234.29 88.59 233.08 89.22 225.51 91.04 224.83"/><path class="cls-30" d="M68.28,226l-55.41-3.24c-.82-.05-1.44.73-1.38,1.74l2.38,42a2.16,2.16,0,0,0,1.6,2.07l56.24,8.12a1.54,1.54,0,0,0,1.71-1.8l-3.18-46.8A2.27,2.27,0,0,0,68.28,226Z"/><path class="cls-14" d="M68.28,226l-55.41-3.24c-.82-.05-1.44.73-1.38,1.74l2.38,42a2.16,2.16,0,0,0,1.6,2.07l56.24,8.12a1.54,1.54,0,0,0,1.71-1.8l-3.18-46.8A2.27,2.27,0,0,0,68.28,226Z"/><path class="cls-15" d="M67.15,225.9l-55.21-3.23c-.82,0-1.44.72-1.39,1.73l1.86,41.91A2.14,2.14,0,0,0,14,268.37l55.91,8.07a1.54,1.54,0,0,0,1.72-1.79L69.07,228A2.21,2.21,0,0,0,67.15,225.9Z"/><g class="cls-31"><path class="cls-32" d="M56.08,270h0a.65.65,0,0,1-.54-.6l-.15-2.5a.42.42,0,0,1,.48-.46h0a.67.67,0,0,1,.54.6l.14,2.51A.4.4,0,0,1,56.08,270Z"/><path class="cls-32" d="M57.7,270.24h0a.69.69,0,0,1-.55-.61L57,267.11a.41.41,0,0,1,.48-.46h0a.68.68,0,0,1,.55.6l.14,2.53A.41.41,0,0,1,57.7,270.24Z"/><path class="cls-32" d="M59.34,270.48h0a.67.67,0,0,1-.55-.61l-.15-2.53a.41.41,0,0,1,.49-.46h0a.67.67,0,0,1,.56.6l.14,2.55A.41.41,0,0,1,59.34,270.48Z"/><path class="cls-32" d="M61,270.74h0a.7.7,0,0,1-.56-.62l-.15-2.55a.42.42,0,0,1,.49-.47h0a.68.68,0,0,1,.57.61l.15,2.57A.42.42,0,0,1,61,270.74Z"/><path class="cls-32" d="M62.7,271h0a.7.7,0,0,1-.57-.62L62,267.8a.43.43,0,0,1,.5-.47h0a.67.67,0,0,1,.57.61l.16,2.59A.42.42,0,0,1,62.7,271Z"/></g><polygon class="cls-33" points="52.78 279.1 44.7 279.1 33.22 275.64 41.31 275.89 52.78 279.1"/><polygon class="cls-32" points="52.78 279.1 44.7 279.1 46 281.9 52.78 281.51 52.78 279.1"/><path class="cls-32" d="M41.7,270.87l2.06-24.24H34.85l-3.86,24c-.52,2.77.34,5.71,2.06,7.05l2,1.53,11,2.69-.2-2.8C42.61,277.88,41.32,273.54,41.7,270.87Z"/><path class="cls-34" d="M40.39,270.87l2.07-24.24H33.55l-3.86,24c-.52,2.77.34,5.71,2.06,7.05l3,2,8.7-.45-.88-1.68C40.89,276.26,40,273.54,40.39,270.87Z"/><path class="cls-34" d="M40.58,274.3H29.78a6,6,0,0,0,2,3.38l3,2L46,281.9l-3.48-4.37A6,6,0,0,1,40.58,274.3Z"/><path class="cls-35" d="M167.63,232.18c3.17,1.62,13.65,26.68,13.65,26.68l13.61,15.22a7.5,7.5,0,0,0-5.54,3.64s-11.6-8.57-14.79-11.11-9.26-17.44-9.26-17.44.44-7.31.74-9.49S167.63,232.18,167.63,232.18Z"/><polygon class="cls-13" points="119.94 379.59 116.94 379.59 115.16 296.2 121.73 296.2 119.94 379.59"/><polygon class="cls-14" points="214.58 277.83 214.74 275.83 186.87 279.84 186.71 281.85 214.58 277.83"/><polygon class="cls-15" points="194.27 274.23 214.74 275.83 186.87 279.84 166.48 277.72 194.27 274.23"/><polygon class="cls-14" points="166.32 279.73 186.71 281.85 186.87 279.84 166.48 277.72 166.32 279.73"/><polygon class="cls-15" points="222.5 275.96 227.91 241.14 194.33 246.12 188.91 280.94 222.5 275.96"/><polygon class="cls-36" points="225.52 241.14 227.91 241.14 194.33 246.12 193.93 245.29 225.52 241.14"/><polygon class="cls-14" points="187.06 279.25 188.91 280.94 194.33 246.12 193.93 245.29 187.06 279.25"/><path class="cls-14" d="M210.27,264.27c-.5,2.45-2.07,4.19-3.51,3.89s-2.2-2.53-1.71-5,2.07-4.2,3.51-3.9S210.76,261.82,210.27,264.27Z"/><path class="cls-9" d="M163,269.48a52.15,52.15,0,0,0,6.27,1.1c.63,0,2.93,0,4,0h0c3.14-.09,6.68-.08,7.4.52s3.26,3.48,4.46,4.9h0l.18.21.07.08.12.15,0,.06.11.16c.51.7.27,1.49-1.3.94a3.87,3.87,0,0,1-.84-.45,1.11,1.11,0,0,1,0,.69c-.35.71-1.23.65-2-.14a11.6,11.6,0,0,1-1-1.27,8.7,8.7,0,0,0-1.27-1.55L179,275a11.3,11.3,0,0,1,.89,1.52,1.83,1.83,0,0,1,0,2,.42.42,0,0,1-.48.13,11.94,11.94,0,0,1-2.32-2.71l-.27-.33a5.44,5.44,0,0,1-.94.16h0a4.68,4.68,0,0,1,1.19,1.5c.39.85-.33,1.53-1.12,1.14s-3.26-2-4-1.5a11.8,11.8,0,0,1-3.39,1.43,3.61,3.61,0,0,1-2.91-1.28c-.92-.92-4.15-1.42-4.42-1.46A51.61,51.61,0,0,0,163,269.48Z"/><polygon class="cls-20" points="163.42 269.29 165.32 269.71 163.42 276.4 161.25 275.76 161.25 270.65 163.42 269.29"/><path class="cls-26" d="M132.5,228.46c-4.77,1.39-6.56,4.19-6.92,20.32-.21,9.07,4.36,20.57,6.67,21.9,4.48,2.59,25.33,5.6,29,6.25,0,0,1.2-6.07,2.17-7.64,0,0-22.62-6.45-23.55-7.94,0,0-2.3-15.77-1.61-19.29C140.05,232.87,134.61,227.85,132.5,228.46Z"/><polygon class="cls-13" points="137.63 374.2 140.63 374.2 142.42 293.22 135.84 293.22 137.63 374.2"/><polygon class="cls-13" points="218.4 363.19 215.4 363.19 226.13 279.81 232.7 279.81 218.4 363.19"/><polygon class="cls-13" points="22.52 363.19 25.52 363.19 14.79 279.81 8.22 279.81 22.52 363.19"/><path class="cls-9" d="M163.42,209.47a35,35,0,0,1-1.29,9c-1,3.14-2.48,6-4.87,7s-6.69-2.18-8.36-4.44-1.71-4-1.85-6.89a17.81,17.81,0,0,1,.85-5.74s-.43-4.71,2.12-6.2C159.82,196.45,163.38,207,163.42,209.47Z"/><path class="cls-37" d="M161.68,207.18c-1.29,2.15-4.64,2.34-6.8.45-2-1.75-5.33-3.25-6.64-1.45-1.08,1.49,1.17,3.24,1.2,4.8a34.29,34.29,0,0,1-.2,3.74s-1,1.22-1.62,1.91-.64,5.83-.64,5.83a51.32,51.32,0,0,0-2.43-5.16c-4-4.58-4-13.4,1.21-16.9a13.19,13.19,0,0,1,13.26-.64c1.76.93,4.74,4,3.9,7.36C162.92,207.12,162.11,206.46,161.68,207.18Z"/><path class="cls-9" d="M149.19,215c0-1.17.16-4.12-2.06-4.17s-2,2.86-.84,4.77c.61,1,1.78,2.78,1.78,2.78A6.55,6.55,0,0,0,149.19,215Z"/><path class="cls-21" d="M150.48,213.8c0,.21.51.34.59.4s0,.5.51,1.53,1.12,1.84,4.46,1.46c1.59-.18,1.6-1.65,1.81-2.28s.36-.72.6-.71.37.08.58.71.53,2.19,2.13,2.28,2.37-.45,2.66-1.32c.53-1.57.53-1.55.71-1.67s.25-.8.21-1.18-1.51-.46-2.46-.46a9.27,9.27,0,0,0-3,.29c-.57.3-.55.54-.83.55s-.28-.25-.85-.55-3.36-.29-4.83-.29c-1,0-2.29.13-2.33.51A2.64,2.64,0,0,0,150.48,213.8Zm9,0c.12-.47.52-.5,1.72-.56s2.26-.13,2.46.11a2.41,2.41,0,0,1,0,2c-.36,1.12-.73,1.61-2.25,1.61a1.72,1.72,0,0,1-1.77-1.49A4.67,4.67,0,0,1,159.5,213.83Zm-7.58-.45c.2-.24,2.55-.18,3.74-.11s1.59.09,1.72.56a4.67,4.67,0,0,1-.12,1.62c-.16.8-.42,1.49-2.3,1.49-2.26,0-2.53-.18-3-1.61A2.4,2.4,0,0,1,151.92,213.38Z"/></g></g></svg>