<svg id="Layer_1" data-name="Layer 1" xmlns="http://www.w3.org/2000/svg" xmlns:xlink="http://www.w3.org/1999/xlink" viewBox="0 0 268.91 272.47"><defs><style>.cls-1{fill:#306a98;}.cls-2{fill:#ffd33d;}.cls-3{fill:#959531;}.cls-4{fill:#eeeeef;}.cls-5{fill:url(#Degradado_sin_nombre_3);}</style><linearGradient id="Degradado_sin_nombre_3" x1="108.12" y1="150.22" x2="166.04" y2="150.22" gradientUnits="userSpaceOnUse"><stop offset="0" stop-color="#fff"/><stop offset="0.16" stop-color="#fff" stop-opacity="0.79"/><stop offset="0.38" stop-color="#fff" stop-opacity="0.52"/><stop offset="0.59" stop-color="#fff" stop-opacity="0.29"/><stop offset="0.77" stop-color="#fff" stop-opacity="0.13"/><stop offset="0.91" stop-color="#fff" stop-opacity="0.04"/><stop offset="0.99" stop-color="#fff" stop-opacity="0"/></linearGradient></defs><title>Artboard 1</title><path id="path1948" class="cls-1" d="M133.75,0a186.22,186.22,0,0,0-31.21,2.67C74.91,7.55,69.89,17.77,69.89,36.61V61.49h65.3v8.3H45.39c-19,0-35.6,11.41-40.79,33.11-6,24.87-6.26,40.39,0,66.36,4.64,19.33,15.72,33.1,34.7,33.1H61.75V172.53C61.75,151,80.4,132,102.54,132h65.23c18.15,0,32.64-15,32.64-33.18V36.61c0-17.7-14.92-31-32.64-33.94A203.64,203.64,0,0,0,133.75,0ZM98.43,20A12.44,12.44,0,1,1,86.18,32.5,12.39,12.39,0,0,1,98.43,20Z"/><path id="path1950" class="cls-2" d="M206.75,68.55v29c0,22.48-19.06,41.4-40.8,41.4H100.73c-17.86,0-32.65,15.29-32.65,33.18v62.18c0,17.69,15.39,28.1,32.65,33.18,20.67,6.08,40.49,7.18,65.22,0,16.44-4.76,32.65-14.34,32.65-33.18V209.42H133.38v-8.29h97.87c19,0,26.05-13.24,32.65-33.11,6.82-20.45,6.53-40.12,0-66.36-4.69-18.89-13.65-33.11-32.65-33.11ZM170.06,226a12.45,12.45,0,1,1-12.25,12.41A12.33,12.33,0,0,1,170.06,226Z"/><path class="cls-3" d="M163.84,223.17a13.48,13.48,0,0,0-3.24-2.77,7.35,7.35,0,0,1-2.46-2.17c-.44-1,1.74-3.23,3.33-4.83a22.38,22.38,0,0,0,2.66-3,2.16,2.16,0,0,0,.27-1.8c-.65-2.3-4.8-4.51-7.86-6a3.24,3.24,0,0,0-1.23-.31,10.37,10.37,0,0,0-2.54.29,10.24,10.24,0,0,1-2.29.26,1.82,1.82,0,0,1-.92-.26,5,5,0,0,0-2.56-.81,7.84,7.84,0,0,0-4.56,1.17,15.05,15.05,0,0,1-5.6.44c-2.62-.15-4.61-.7-5.18-1.42a.58.58,0,0,1-.13-.48c.37-2.18-1.11-3.62-2.29-4.78-.94-.91-1.49-1.5-1.37-2a5.64,5.64,0,0,0-1.16-4.18A8.51,8.51,0,0,0,121,186.8c-1.68-.25-2.23-1.8-2.93-4.32-.51-1.83-1-3.72-2.47-4.75a6.13,6.13,0,0,0-3.18-.87,30.54,30.54,0,0,0-6,.42l-.18-.23c-3.53-4.48-5.6-6.77-7.13-6.86a1.45,1.45,0,0,0-1.22.5,4.69,4.69,0,0,1-3.15.65h0a8,8,0,0,1-4-1.25,14.72,14.72,0,0,1-2.85-2.71c-1.16-1.34-2.26-2.6-3.83-2.7s-7.94-4-11.86-7.62c.38-2.09,1.23-3.3,1.53-3.28,1,.07,1.51-1.09,2-2.42.88-2.22,1.78-4.06,3.79-4.06,4.81,0,7.21-2.5,9.74-6.87.56-1,1.11-1.83,1.59-2.59,1.81-2.84,3.11-4.89,1.24-7.24-1.26-1.58-2.21-9.27-1.67-13.48.21-1.65.56-1.93.56-1.93,1.87-1,2.11-3.44.67-6.8a4.11,4.11,0,0,1,0-2A7.57,7.57,0,0,0,90,99.88c-.61-.74-1.41-1.59-2.34-2.59l-.37-.39A88.14,88.14,0,0,1,94.19,91a5.18,5.18,0,0,0,1.75-2.87,2.09,2.09,0,0,0,.35,0,2.52,2.52,0,0,0,2-.91,36.93,36.93,0,0,0,2.35-2.88c2.23-2.88,5-6.46,8.75-8.54,5-2.8,4.91-6,4.78-9.14,0-.45,0-.9,0-1.36,0-1.1,1-2.73,2.74-4.36,2.21-2.1,5-3.62,6.4-3.53a1.16,1.16,0,0,1,.29.05A8.24,8.24,0,0,1,126,58.86a4,4,0,0,0,1.87,1c.85,0,1.39-.6,1.58-1.93.14-1,1.74-1.08,4.16-1.15a15,15,0,0,0,5.18-.75,14.06,14.06,0,0,0,3.32-2.14A9.82,9.82,0,0,1,148,51.2c2.37-.19,4.31-1.78,6-3.19,1.53-1.26,3-2.44,4.37-2.36a2.94,2.94,0,0,1,1.44.52c1.36.91,2,1.84,1.84,2.63-.25,1.12-2.06,2.09-4.5,2.43a4,4,0,0,0-3.11,2,6.6,6.6,0,0,0-3.38,2,33.83,33.83,0,0,1-4.15,3.89c-2.84,2.4-5.78,4.88-6,7.92l-.08,1c-.28,3.44-.39,4.74-1.79,6.31-2.24,2.51-3.37,4.07-2.92,5.17a1.39,1.39,0,0,0,1.33.82h.29c.6,0,1.08,0,1.5,0,2.34.14,2.62,1,2.57,1.83-.09,1.47,1,2.43,2.12,3.35,1.24,1,2.41,2,2.11,3.82,0,.24-.08.5-.13.78-.58,3.21-1.54,8.6,1,11.87a7.27,7.27,0,0,0,5.53,2.56h.3a62.62,62.62,0,0,0,7.41-.24,36.86,36.86,0,0,1,4.75-.18,6.12,6.12,0,0,1,5.24,2.77c3.25,4.71,7.69,7.36,12.84,7.66a16.45,16.45,0,0,0,2.22,0,65.31,65.31,0,0,1,7.75-.19c3.29.2,4.1.89,4.29,1.29s-.15,1.22-.52,1.75c-3.46,5-6.6,16.38-3.67,20.07.49.63,1,1.23,1.53,1.81,2.5,2.87,3.46,4.27,2.16,5.6s-2.73,3.24-2.66,5.46a4.82,4.82,0,0,0,1.79,3.51,4.08,4.08,0,0,1,1.42,4.54c-1.13.68-8.06,3.07-11.37,2.87-.7,0-1.69-.13-2.84-.24-1.56-.14-3.49-.32-5.35-.43-6.54-.39-8.16.26-8.58,1.36a6.16,6.16,0,0,0,.49,4.65,4.12,4.12,0,0,0,2.4,2.29c2.76.8,3,1.53,3,1.67s-.3.79-1.36,1.46a6.5,6.5,0,0,1-3.65.9c-2.37.07-3.95.45-4.22,4.95-.2,3.36,1.58,6.17,3.3,8.9s3.5,5.56,2.48,8.44a79.51,79.51,0,0,0-3.07,14.49c-.26,4.35-2.37,13.12-4.3,13.43Z"/><path class="cls-4" d="M158.33,46.39h0a2.18,2.18,0,0,1,1.08.4c1.25.83,1.6,1.51,1.53,1.85-.13.56-1.42,1.52-3.88,1.86a4.71,4.71,0,0,0-3.49,2.11,7.2,7.2,0,0,0-3.47,2.16,35.41,35.41,0,0,1-4,3.79c-3,2.5-6,5.08-6.31,8.43l-.08,1c-.29,3.56-.42,4.54-1.6,5.88-2.5,2.79-3.66,4.48-3.05,6a2.12,2.12,0,0,0,2,1.27,1.93,1.93,0,0,0,.34,0c.59,0,1.05,0,1.44,0,1.93.12,1.9.62,1.88,1-.11,1.85,1.27,3,2.38,4,1.34,1.14,2.08,1.84,1.86,3.14,0,.23-.08.49-.13.76-.6,3.34-1.59,8.93,1.19,12.47a7.92,7.92,0,0,0,6.07,2.84l.32,0a66,66,0,0,0,7.49-.25,35.42,35.42,0,0,1,4.64-.18,5.39,5.39,0,0,1,4.68,2.46c3.38,4.89,8,7.65,13.41,8a17.8,17.8,0,0,0,2.31,0,63.9,63.9,0,0,1,7.66-.19c3.19.19,3.66.86,3.66.86h0s0,.3-.47,1c-3.66,5.24-6.81,17-3.64,21,.51.63,1,1.24,1.55,1.83,2.56,2.94,3,3.8,2.19,4.59-1.36,1.37-2.95,3.53-2.87,6a5.61,5.61,0,0,0,2.05,4,3.32,3.32,0,0,1,1.27,3.47c-1.61.76-7.81,2.81-10.69,2.64-.69,0-1.68-.13-2.83-.24-1.56-.14-3.5-.31-5.37-.43-6.21-.37-8.65.11-9.31,1.83a7,7,0,0,0,.51,5.26,5,5,0,0,0,2.86,2.67,6.51,6.51,0,0,1,2.41,1,4.14,4.14,0,0,1-.93.74,5.79,5.79,0,0,1-3.28.79c-2.52.08-4.63.55-4.94,5.65-.21,3.59,1.71,6.64,3.41,9.33s3.31,5.26,2.41,7.8a80.85,80.85,0,0,0-3.11,14.69c-.25,4.13-2,11.11-3.4,12.53a16.75,16.75,0,0,0-3-2.43,7.92,7.92,0,0,1-2.19-1.84c-.12-.73,2.18-3,3.17-4a22.85,22.85,0,0,0,2.75-3.09,2.88,2.88,0,0,0,.36-2.41c-.56-2-3.11-4-8.26-6.43l-.06,0a4.06,4.06,0,0,0-1.43-.34,11.59,11.59,0,0,0-2.73.3,9.47,9.47,0,0,1-2.11.25A1.12,1.12,0,0,1,150,202a5.79,5.79,0,0,0-2.94-.94,8.73,8.73,0,0,0-5,1.27,16,16,0,0,1-5.18.34c-2.93-.17-4.32-.79-4.61-1.11.4-2.52-1.29-4.16-2.52-5.36-.42-.41-1.12-1.1-1.15-1.35a6.35,6.35,0,0,0-1.28-4.77,9.25,9.25,0,0,0-6.17-4c-1.2-.18-1.65-1.35-2.33-3.79-.51-1.86-1.1-4-2.75-5.16a6.93,6.93,0,0,0-3.57-1,29.85,29.85,0,0,0-5.77.36c-3.77-4.77-5.76-6.92-7.58-7a2.21,2.21,0,0,0-1.82.74,4.43,4.43,0,0,1-2.56.41,7.32,7.32,0,0,1-3.59-1.13,14.31,14.31,0,0,1-2.69-2.58c-1.21-1.39-2.47-2.83-4.34-2.95-1.3-.07-7.17-3.62-11.1-7.15a5.94,5.94,0,0,1,.93-2.27c1.4-.08,2-1.56,2.52-2.88.82-2,1.56-3.6,3.11-3.59,3.81,0,6.88-1.19,10.38-7.25.55-1,1.09-1.81,1.57-2.56,1.83-2.87,3.4-5.34,1.2-8.1-.54-.68-1.27-3.48-1.55-7.34s0-6.41.37-7c1.29-.78,2.93-2.78.84-7.65a3.83,3.83,0,0,1,0-1.59,8.29,8.29,0,0,0-1.86-7.1c-.59-.72-1.35-1.53-2.22-2.47a77.89,77.89,0,0,1,6.25-5.34,5.28,5.28,0,0,0,1.84-2.69,3.33,3.33,0,0,0,2.41-1.15c.74-.79,1.51-1.79,2.4-2.93,2.19-2.83,4.91-6.34,8.52-8.35,5.44-3,5.28-6.79,5.15-9.82,0-.44,0-.9,0-1.33,0-.67.65-2.06,2.51-3.82,2.25-2.14,4.79-3.4,5.85-3.33a.2.2,0,0,1,.11,0,7.66,7.66,0,0,1,2.18,1.26,4.47,4.47,0,0,0,2.25,1.1c.74,0,2-.23,2.36-2.57a.06.06,0,0,1,0,0c.31-.38,2.35-.44,3.44-.47a15.43,15.43,0,0,0,5.46-.81,14.68,14.68,0,0,0,3.49-2.25,9.06,9.06,0,0,1,5.51-2.48c2.6-.21,4.63-1.88,6.43-3.36,1.4-1.16,2.74-2.26,3.84-2.19m.09-1.48c-3.41-.21-6.24,5.21-10.48,5.56-5,.4-6.08,3.39-9.47,4.84s-9.38-.33-9.79,2.47c-.14,1-.41,1.32-.8,1.3-.82,0-2.2-1.71-4.07-2.3a2.41,2.41,0,0,0-.48-.08c-3.07-.18-9.94,5.28-9.92,8.64,0,3.52,1,6.88-4.35,9.85s-8.76,8.88-11.28,11.55a1.81,1.81,0,0,1-1.45.68,1.89,1.89,0,0,1-.88-.28,5.7,5.7,0,0,1-1.66,3.23,92.62,92.62,0,0,0-7.54,6.48c1.25,1.35,2.41,2.55,3.19,3.5,3.07,3.71.79,6.4,1.62,8.34s1.59,4.79-.35,5.85-1.08,14,.89,16.52-.27,4.45-2.89,9-4.86,6.53-9.1,6.5-4.39,6.57-5.79,6.48c-1.12-.06-2.08,2.26-2.37,4.29,3.74,3.54,10.56,8,12.61,8.09,2.2.14,3.48,3.41,6.3,5.28a8.9,8.9,0,0,0,4.32,1.38c1.69.1,3.18-.26,3.75-.9a.72.72,0,0,1,.63-.25c1.27.07,3.54,2.7,6.59,6.58l.44.57a31.45,31.45,0,0,1,6.32-.48,5.61,5.61,0,0,1,2.8.73c2.82,2,1.69,8.6,5.72,9.2s6.72,4.84,6.22,7,4.21,3.57,3.65,6.86c-.31,1.79,2.83,2.58,6,2.77,2.66.16,5.35-.1,6-.57a7.18,7.18,0,0,1,4.1-1,4.39,4.39,0,0,1,2.2.68,2.48,2.48,0,0,0,1.28.39c1.5.09,3.41-.63,4.84-.55a2.37,2.37,0,0,1,.89.21c1.8.85,9,4.23,7.35,6.72s-7,6.22-6,8.5c.77,1.79,4.55,3.11,6,5.39a3,3,0,0,0,.52,0c2.85-.45,4.73-11,4.92-14.12a78.17,78.17,0,0,1,3-14.29c2.14-6-6.14-10.87-5.74-17.53s3.56-2.76,7.53-5.27,0-3.93-1.86-4.47-3.15-4-2.39-6c.41-1.07,4-1.11,7.84-.88,3.18.19,6.5.57,8.19.67,3.69.22,11.93-2.68,12.07-3.2a4.85,4.85,0,0,0-1.59-5.5c-2.72-2.39-1.47-5.5.9-7.9s-1.07-5.16-3.63-8.39.22-14.2,3.69-19.19c2.09-3-.57-4-4.33-4.2a65.64,65.64,0,0,0-7.84.19,18.94,18.94,0,0,1-2.13,0c-5-.3-9.19-2.88-12.27-7.35a6.91,6.91,0,0,0-5.81-3.09c-3.09-.18-7,.61-12.17.43l-.28,0c-8.77-.52-6.4-10.5-5.75-14.35s-4.39-4.71-4.23-7.25c.11-2-1.46-2.51-3.27-2.61-.51,0-1,0-1.57,0a1.47,1.47,0,0,1-.21,0c-2-.12.44-2.91,2.1-4.76s1.69-3.51,2.05-7.73,6.7-7.44,10-11.39a6.16,6.16,0,0,1,3.34-1.85,3.15,3.15,0,0,1,2.69-1.9c4.74-.66,7.27-3.56,3-6.41a3.57,3.57,0,0,0-1.81-.65Z"/><path class="cls-5" d="M150.21,103c-1,.85-2,1.76-3,2.64s-1.95,1.81-2.93,2.71l-2.89,2.81-.55.57-2.18,2.24c-.92,1-1.85,2-2.74,3-1.78,2-3.53,4-5.2,6.05-.83,1-1.67,2.07-2.47,3.12l-1.21,1.58-1.17,1.6c-1.57,2.14-3,4.33-4.47,6.54-.69,1.12-1.4,2.22-2.07,3.36s-1.32,2.26-1.94,3.41c-1.27,2.29-2.42,4.63-3.5,7s-2,4.78-2.85,7.23a64.34,64.34,0,0,0-2,7.43,41.06,41.06,0,0,0-.89,7.65c0,1,0,2.12.11,3.17a23.27,23.27,0,0,0,.84,4.51,16.62,16.62,0,0,0,3.8,6.79l.34.36.16.17.09.09a.76.76,0,0,0,.16.14l.66.56.33.27.16.13.21.15.84.56a12.28,12.28,0,0,0,1.21.68,16,16,0,0,0,2.52,3.57l.34.35.16.18.08.09.16.14.67.56.32.27.17.13.21.15.84.56a16,16,0,0,0,3.41,1.61,21.62,21.62,0,0,0,7,1.06h.86L132.2,198c.51,0,1,0,1.55-.12a6.44,6.44,0,0,0-1.88-2.35h-.52l-.77-.05c-2.07-.13-1.73-.52-3.62-1.31l-.69-.31-.35-.16-.32-.19-.65-.38c-.11-.07-.23-.13-.32-.2l-.28-.21-.56-.42-.14-.1-.16-.14-.31-.3-.62-.59,0-.06h0a23.2,23.2,0,0,0,3.7.27h.85l.85-.06c.56,0,1.12-.05,1.67-.13s.55-1.94-.09-2.4c-.21,0,.12,0-.09,0-.52,0-1,0-1.55,0h-.79l-.77-.06a19.07,19.07,0,0,1-6-1.31h0a14.85,14.85,0,0,1-.71-2.32,20.37,20.37,0,0,1-.42-5.44c0-.35,0-.7.06-1a40.49,40.49,0,0,1,1.21-6.74,56.91,56.91,0,0,1,2.26-6.71c.89-2.23,1.93-4.42,3-6.6a120.93,120.93,0,0,1,7.64-12.74c1.43-2.06,2.91-4.11,4.45-6.11l1.15-1.52,1.19-1.48c.79-1,1.6-2,2.42-2.95,1.64-2,3.33-3.86,5-5.75.86-.94,1.73-1.85,2.6-2.77l2.74-2.79,2.71-2.67,1.08-1h0c.57-.54,1.14-1.08,1.72-1.61,1.89-1.72,3.8-3.42,5.75-5.06.6-.51,1.22-1,1.84-1.52-1.5-2.84-3-5.52-3.52-5.23-.28.15-1.12.67-2.09,1.25l-.47.38c-1.05.82-2.05,1.69-3.07,2.54s-2,1.77-3,2.65-2,1.81-2.93,2.71l-2.89,2.81-1.78,1.83-1,1c-.91,1-1.84,2-2.73,3-1.79,2-3.54,4-5.2,6.05-.84,1-1.67,2.07-2.47,3.12l-1.21,1.58-1.18,1.6c-1.56,2.13-3,4.34-4.46,6.54-.69,1.12-1.4,2.22-2.07,3.35s-1.32,2.27-1.94,3.42c-1.27,2.29-2.42,4.63-3.5,7s-2,4.78-2.85,7.22a65.11,65.11,0,0,0-2,7.44,41.81,41.81,0,0,0-.88,7.65c0,.56,0,1.13,0,1.69a27.94,27.94,0,0,0,.33,3.4h0A13,13,0,0,1,113,179c0-.15-.08-.29-.12-.45a21.81,21.81,0,0,1-.34-6.49,41.2,41.2,0,0,1,1.2-6.73,56.45,56.45,0,0,1,2.26-6.72c.89-2.22,1.93-4.41,3-6.6a120.93,120.93,0,0,1,7.64-12.74c1.44-2.06,2.9-4.11,4.45-6.11l1.15-1.51,1.19-1.49c.78-1,1.6-2,2.42-2.95q2.48-2.91,5-5.75c.86-.94,1.74-1.84,2.6-2.77l.12-.11,2.62-2.68,2.71-2.66c.93-.88,1.86-1.77,2.8-2.63,1.89-1.72,3.8-3.41,5.75-5.06l0,0c.79-1.39,1.64-2.77,1.86-3.15"/></svg>